<svg width="1428" height="756" viewBox="0 0 1428 756" fill="none" xmlns="http://www.w3.org/2000/svg">
<path d="M1346.78 752.166C1265.16 752.166 76.1882 752.414 75.498 750.617L75.3821 750.39C75.3821 750.39 75.2662 750.169 75.2662 750.059C74.8131 749.158 -107.927 496.739 176.162 321.022C287.316 252.265 169.207 206.881 257.595 130.337C359.181 42.381 470.04 139.684 583.001 99.7941C602.959 92.7551 622.986 81.4221 643.033 64.0301C654.319 54.2514 666.684 45.7003 679.925 38.3135C681.953 37.1755 684.003 36.0691 686.078 34.989C694.008 30.8636 702.227 27.1281 710.694 23.7719C716.379 21.5222 722.174 19.4358 728.081 17.5232H728.086C737.454 14.4832 747.074 11.8646 756.895 9.64648C770.852 6.49579 785.214 4.15649 799.867 2.57061C806.258 1.87514 812.701 1.32719 819.192 0.91623C945.41 -7.05006 1087.45 37.7551 1160.75 103.245C1175.5 116.433 1242.61 184.668 1189.71 278.456C1156.32 337.671 1296.23 394.226 1345.95 461.844C1472.37 633.768 1347.93 749.927 1346.78 752.166Z" fill="url(#paint0_linear)"/>
<path d="M732.521 303.268L659.855 318.604L675.191 391.269L747.856 375.934L732.521 303.268Z" fill="#D9E8FE"/>
<path d="M763.327 344.881L693.684 319.097L667.9 388.741L737.543 414.524L763.327 344.881Z" fill="#F5FBFF"/>
<path d="M597.572 489.747C597.572 489.747 593.236 418.076 580.844 395.647H646.086V489.604L597.572 489.747Z" fill="white"/>
<path d="M630.196 489.747C630.196 489.747 625.86 418.076 613.468 395.647H678.71V489.604L630.196 489.747Z" fill="url(#paint1_linear)"/>
<path d="M717.888 357.091H654.742V560.795H717.888V357.091Z" fill="#7B64F3"/>
<path d="M870.164 357.091H717.888V560.795H870.164V357.091Z" fill="url(#paint2_linear)"/>
<path d="M686.312 393.07C692.131 393.07 696.849 388.353 696.849 382.533C696.849 376.713 692.131 371.996 686.312 371.996C680.492 371.996 675.774 376.713 675.774 382.533C675.774 388.353 680.492 393.07 686.312 393.07Z" fill="#DDE7FE"/>
<path d="M686.312 389.983C690.427 389.983 693.762 386.648 693.762 382.533C693.762 378.419 690.427 375.083 686.312 375.083C682.198 375.083 678.862 378.419 678.862 382.533C678.862 386.648 682.198 389.983 686.312 389.983Z" fill="#6C7AFF"/>
<path d="M701.397 407.923H671.697V461.574H701.397V407.923Z" fill="#8FADEF"/>
<path d="M884.964 450.542H763.789V489.599H884.964V450.542Z" fill="white"/>
<path d="M1006.13 450.542H884.959V489.599H1006.13V450.542Z" fill="#39427C"/>
<path d="M794.026 469.646H763.789V470.494H794.026V469.646Z" fill="#8FADEF"/>
<path d="M884.964 457.628H801.439V458.477H884.964V457.628Z" fill="#8FADEF"/>
<path d="M817.245 480.163H763.789V481.011H817.245V480.163Z" fill="#8FADEF"/>
<path d="M847.382 411.485H726.207V450.542H847.382V411.485Z" fill="white"/>
<path d="M968.552 411.485H847.377V450.542H968.552V411.485Z" fill="#2A6AF9"/>
<path d="M756.444 430.589H726.207V431.438H756.444V430.589Z" fill="#8FADEF"/>
<path d="M847.382 418.571H763.857V419.42H847.382V418.571Z" fill="#8FADEF"/>
<path d="M779.669 441.105H726.207V441.954H779.669V441.105Z" fill="#8FADEF"/>
<path d="M915.201 301.369H794.026V340.426H915.201V301.369Z" fill="white"/>
<path d="M1036.37 301.369H915.196V340.426H1036.37V301.369Z" fill="#6274A6"/>
<path d="M824.264 320.473H794.026V321.321H824.264V320.473Z" fill="#8FADEF"/>
<path d="M915.202 308.455H831.677V309.303H915.202V308.455Z" fill="#8FADEF"/>
<path d="M847.483 330.447H794.026V331.295H847.483V330.447Z" fill="#8FADEF"/>
<path d="M877.619 262.312H756.444V301.369H877.619V262.312Z" fill="#F5FBFF"/>
<path d="M998.789 262.312H877.614V301.369H998.789V262.312Z" fill="url(#paint3_linear)"/>
<path d="M786.681 281.416H756.444V282.264H786.681V281.416Z" fill="#8FADEF"/>
<path d="M901.602 281.416H871.365V282.264H901.602V281.416Z" fill="#8FADEF"/>
<path d="M943.715 269.398H860.19V270.247H943.715V269.398Z" fill="#8FADEF"/>
<path d="M809.901 291.933H756.444V292.781H809.901V291.933Z" fill="#8FADEF"/>
<path d="M892.946 411.483H1014.12V340.377H892.946V411.483Z" fill="url(#paint4_linear)"/>
<path d="M771.775 411.483H892.95V340.377H771.775V411.483Z" fill="#F5FBFF"/>
<path d="M1014.12 375.357H983.885V376.501H1014.12V375.357Z" fill="#8FADEF"/>
<path d="M976.472 353.74H809.901V354.362H976.472V353.74Z" fill="#35488B"/>
<path d="M1014.12 394.499H960.666V395.642H1014.12V394.499Z" fill="#8FADEF"/>
<path d="M915.201 366.48H857.772V367.102H915.201V366.48Z" fill="#35488B"/>
<path d="M1066.31 489.746H709.548V753.34H1066.31V489.746Z" fill="#EF5D4F"/>
<path d="M875.127 489.747H592.261V753.34H875.127V489.747Z" fill="url(#paint5_linear)"/>
<path d="M754.206 532.776H680.934C676.398 532.776 672.688 529.067 672.688 524.525V523.456C672.688 518.919 676.398 515.21 680.934 515.21H754.206C758.742 515.21 762.457 518.919 762.457 523.456V524.525C762.452 529.067 758.742 532.776 754.206 532.776Z" fill="#191442"/>
<path d="M772.962 584.998L706.167 573.272L694.441 640.067L761.236 651.793L772.962 584.998Z" fill="#7B64F3"/>
<path d="M772.961 584.997L706.166 573.271L704.271 584.064L771.066 595.79L772.961 584.997Z" fill="#6453BF"/>
<path d="M841.459 519.368L775.864 536.601L793.097 602.195L858.691 584.963L841.459 519.368Z" fill="#6796FF"/>
<path d="M841.455 519.378L775.86 536.61L778.645 547.21L844.239 529.977L841.455 519.378Z" fill="#2A6AF9"/>
<path d="M593.947 416.437C592.119 406.274 586.803 395.89 586.745 395.789L587.298 395.505C587.351 395.61 592.709 406.074 594.559 416.327L593.947 416.437Z" fill="#8FADEF"/>
<path d="M609.948 442.038C606.123 414.667 598.11 395.953 598.025 395.769L598.594 395.521C598.673 395.705 606.724 414.499 610.56 441.949L609.948 442.038Z" fill="#8FADEF"/>
<path d="M1289.19 554.599H1020.43V753.172H1289.19V554.599Z" fill="url(#paint6_linear)"/>
<path d="M1145.17 554.599H932.076V753.172H1145.17V554.599Z" fill="url(#paint7_linear)"/>
<path d="M1054.07 587.018H998.873C995.454 587.018 992.661 584.22 992.661 580.806V580C992.661 576.58 995.459 573.788 998.873 573.788H1054.07C1057.49 573.788 1060.29 576.586 1060.29 580V580.806C1060.29 584.22 1057.49 587.018 1054.07 587.018Z" fill="#191342"/>
<path d="M1145.17 520.811H921.629V564.557H1145.17V520.811Z" fill="#6274A6"/>
<path d="M1295.9 520.811H1145.17V564.557H1295.9V520.811Z" fill="#39427C"/>
<path d="M1116.8 596.033L1048.44 613.992L1066.4 682.348L1134.76 664.39L1116.8 596.033Z" fill="#F29C62"/>
<path d="M1116.8 596.038L1048.44 613.997L1051.35 625.045L1119.7 607.086L1116.8 596.038Z" fill="#EF5D4F"/>
<path d="M1070.35 431.664L1126.39 386.548L1209.54 396.712V431.664H1070.35Z" fill="#EF5D4F"/>
<path d="M1126.39 431.884V386.331H987.2V431.884H1126.39Z" fill="url(#paint8_linear)"/>
<path d="M1109 402.018C1112.98 402.018 1116.21 405.242 1116.21 409.22C1116.21 413.198 1112.98 416.422 1109 416.422C1105.03 416.422 1101.8 413.198 1101.8 409.22C1101.81 405.237 1105.03 402.018 1109 402.018Z" fill="#DDE7FE"/>
<path d="M1109 405.188C1111.23 405.188 1113.03 406.99 1113.03 409.214C1113.03 411.437 1111.23 413.239 1109 413.239C1106.78 413.239 1104.98 411.437 1104.98 409.214C1104.98 406.99 1106.78 405.188 1109 405.188Z" fill="#0B0755"/>
<path d="M1091.66 419.525V399.229H1048.58V419.525H1091.66Z" fill="#BDD8FF"/>
<path d="M1133.51 476.348H995.565V520.811H1133.51V476.348Z" fill="white"/>
<path d="M1271.44 476.348H1133.5V520.811H1271.44V476.348Z" fill="#7B64F3"/>
<path d="M1029.98 498.097H995.564V499.061H1029.98V498.097Z" fill="#35488B"/>
<path d="M1133.5 484.415H1038.42V485.379H1133.5V484.415Z" fill="#35488B"/>
<path d="M1056.42 510.068H995.564V511.032H1056.42V510.068Z" fill="#35488B"/>
<path d="M1090.72 431.885H952.782V476.347H1090.72V431.885Z" fill="white"/>
<path d="M1228.66 431.885H1090.72V476.347H1228.66V431.885Z" fill="#2A6AF9"/>
<path d="M987.203 453.634H952.782V454.598H987.203V453.634Z" fill="#8FADEF"/>
<path d="M1090.72 439.951H995.644V440.915H1090.72V439.951Z" fill="#8FADEF"/>
<path d="M1013.64 465.604H952.782V466.569H1013.64V465.604Z" fill="#8FADEF"/>
<path d="M551.861 512.096C512.778 499.552 263.447 606.838 263.447 606.838C263.447 606.838 222.851 635.664 261.613 696.006C293.8 746.112 535.939 593.045 540.328 612.27C550.808 658.177 640.123 746.248 640.123 746.248C655.039 751.143 688.231 731.222 688.231 731.222C653.363 678.235 583.078 522.117 551.861 512.096Z" fill="url(#paint9_linear)"/>
<path d="M424.789 343.071C424.789 343.071 419.315 334.415 418.43 325.648C417.545 316.88 418.925 292.196 412.745 286.438C406.565 280.679 386.992 266.427 379.932 269.478C372.872 272.534 396.038 286.78 396.734 293.998C397.434 301.216 396.992 302.012 394.294 302.492C391.597 302.971 382.687 292.36 382.645 295.732C382.603 299.104 391.317 317.676 395.654 321.401C399.99 325.121 406.433 353.73 406.433 353.73L424.789 343.071Z" fill="#FFB27D"/>
<path d="M424.791 330.848C424.791 330.848 401.693 330.848 397.788 349.473C397.788 349.473 398.979 412.66 407.277 469.236C357.483 422.191 375.918 422.908 335.438 392.265C318.99 379.815 304.169 422.644 304.58 452.95C304.991 483.256 410.649 552.508 437.852 543.999C467.351 534.768 473.394 468.688 424.791 330.848Z" fill="url(#paint10_linear)"/>
<path d="M850.202 751.048C850.328 750.959 851.045 749.995 851.197 749.863L898.052 671.154C899.575 668.756 898.215 665.611 895.439 665.016C889.706 663.783 882.035 665.121 876.925 671.76C867.546 683.941 847.293 702.892 827.42 698.83C826.788 698.698 826.145 698.54 825.502 698.361C805.038 692.603 812.783 735.284 812.783 735.284C812.783 735.284 813.458 735.769 814.633 736.565C820.955 740.869 844.311 755.179 850.202 751.048Z" fill="#2C3A64"/>
<path d="M218.962 631.407C218.962 631.407 436.101 621.807 520.048 643.567C520.048 643.567 603.494 702.265 533.847 721.754C506.744 729.341 414.089 751.544 363.925 751.544C281.581 751.544 202.771 752.071 202.771 752.071C190.079 746.486 188.109 708.946 186.054 698.841C171.791 628.556 218.962 631.407 218.962 631.407Z" fill="#39427C"/>
<path d="M514.9 642.308C514.9 642.308 742.493 685.501 830.865 699.299C830.865 699.299 821.255 736.417 806.892 744.647C806.892 744.647 754.321 748.088 701.755 751.539C636.855 755.801 572.835 747.845 533.91 732.213C446.022 696.928 514.9 642.308 514.9 642.308Z" fill="#39427C"/>
<path d="M344.174 437.898C304.126 436.112 251.871 374.478 251.871 374.478C251.871 374.478 281.46 365.516 301.149 331.886C304.969 325.358 308.415 317.903 311.207 309.404L324.511 331.48L344.121 364.025C344.121 364.025 342.345 368.767 338.362 377.118V377.128C337.035 379.91 335.47 383.108 333.631 386.649C331.423 390.911 328.852 395.679 325.875 400.911C338.204 415.01 344.174 437.898 344.174 437.898Z" fill="#FFB27D"/>
<path d="M344.121 364.014C344.121 364.014 342.345 368.756 338.362 377.107C310.069 357.855 307.556 330.184 307.556 330.184C307.556 330.184 309.753 329.852 324.51 331.469L344.121 364.014Z" fill="#ED975D"/>
<path d="M355.538 371.053C355.538 371.053 295.074 349.978 308.778 312.528C322.482 275.078 323.905 247.133 363.088 259.009C402.271 270.879 404.5 287.902 402.967 301.511C401.434 315.12 371.618 375.574 355.538 371.053Z" fill="#FFB27D"/>
<path d="M297.73 244.288C297.282 243.477 296.038 242.639 293.046 241.844C293.046 241.844 295.786 240.811 299.042 241.401C300.564 237.254 304.379 230.152 312.013 229.82C312.013 229.82 307.677 231.116 306.223 235.558C316.439 228.551 335.754 225.921 384.727 240.279C449.274 259.204 418.757 297.381 409.2 300.7C399.642 304.02 381.154 285.616 365.059 283.598C348.963 281.58 341.112 304.188 335.08 306.259C329.047 308.329 332.329 303.129 325.759 298.282C319.184 293.435 315.949 305.521 316.397 313.909C316.839 322.297 302.514 329.494 302.514 329.494C302.514 329.494 301.086 324.578 296.876 317.571C289.01 304.478 289.3 255.705 295.965 246.696C296.544 245.911 297.129 245.1 297.73 244.288Z" fill="url(#paint11_linear)"/>
<path d="M361.186 478.63C356.634 595.932 317.277 577.829 337.746 612.545C350.791 634.657 323.536 652.113 293.615 674.658C292.735 675.316 291.861 675.985 290.981 676.654C282.398 683.182 273.315 689.568 264.237 695.374C250.154 704.373 236.054 712.018 223.757 716.712C211.212 721.512 200.543 723.261 193.678 720.274C193.457 720.184 193.257 720.105 193.062 720.005C187.192 717.113 182.324 709.268 178.341 698.641C171.186 679.7 163.062 604.784 160.749 582.397C160.338 578.377 160.111 576.048 160.111 576.048C146.829 412.739 282.403 355.379 282.403 355.379C282.403 355.379 294.268 390.827 332.593 388.651C332.656 388.714 363.115 428.925 361.186 478.63Z" fill="#F5F5F5"/>
<path d="M293.614 674.663C292.735 675.321 291.86 675.991 290.98 676.66C282.397 683.188 273.314 689.573 264.236 695.379C250.153 704.378 236.054 712.023 223.757 716.718C210.153 720.58 198.899 722.287 193.677 720.279C193.456 720.19 193.256 720.111 193.061 720.011C187.192 717.118 182.323 709.273 178.34 698.646C171.185 679.705 163.061 604.789 160.748 582.402C177.387 534.52 200.258 480.4 225.648 456.159C275.706 408.356 290.964 481.159 290.964 481.159C290.964 481.159 252.239 576.681 293.614 674.663Z" fill="url(#paint12_linear)"/>
<path d="M242.293 412.207C222.445 461.549 181.228 556.712 195.891 603.009C195.891 603.009 255.243 618.672 256.966 600.306C266.597 497.634 354.922 385.321 286.745 387.524C267.677 388.145 249.416 394.505 242.293 412.207Z" fill="#F5F5F5"/>
<path d="M327.598 394.526C327.598 394.526 374.926 537.461 347.519 675.343L306.813 689.337L296.839 660.39C296.839 660.39 349.61 525.548 321.028 396.049L327.598 394.526Z" fill="#2A6AF9"/>
<path d="M240.443 718.388C240.443 718.388 255.912 739.51 274.874 736.517C293.836 733.525 300.822 739.015 309.305 743.504C317.788 747.993 320.122 750.358 317.081 751.544C314.795 752.439 273.372 751.986 253.03 751.707C246.349 751.617 227.224 733.772 227.224 733.772L240.443 718.388Z" fill="#FFB27D"/>
<path d="M193.425 589.621C190.543 666.744 217.135 719.363 224.353 746.328C224.353 746.328 233.125 750.485 239.943 748.24C254.859 743.33 254.679 731.496 254.679 731.496C254.679 731.496 255.075 635.553 256.966 600.306C258.805 565.964 194.031 573.525 193.425 589.621Z" fill="url(#paint13_linear)"/>
<path d="M290.959 346.364C290.959 346.364 278.246 349.788 271.944 360.647C271.944 360.647 276.902 382.065 325.301 394.04L323.472 388.445C323.472 388.445 295.822 374.857 290.959 346.364Z" fill="#2A6AF9"/>
<path d="M323.473 388.446C323.473 388.446 333.341 384.779 335.422 383.135C335.422 383.135 337.899 388.772 336.887 393.367C336.887 393.367 333.689 395.369 325.306 394.046C316.913 392.719 323.473 388.446 323.473 388.446Z" fill="#2A6AF9"/>
<path d="M327.598 388.393C327.598 388.393 317.951 387.571 316.955 388.814C315.959 390.058 322.593 401.454 325.88 400.901C329.163 400.348 330.259 389.726 327.598 388.393Z" fill="#2A6AF9"/>
<path d="M900.598 722.644C901.362 724.483 902.768 734.22 905.766 742.36V742.37C907.574 747.27 909.944 751.58 913.1 753.261C921.509 757.755 936.383 751.67 936.383 751.67C936.383 751.67 961.072 755.916 963.554 754.899C966.035 753.888 970.514 716.722 970.514 716.722C970.514 716.722 952.294 695.568 950.603 694.899C948.912 694.23 934.344 700.906 931.931 700.774C929.518 700.642 915.877 690.621 911.952 692.729C908.021 694.852 899.375 719.699 900.598 722.644Z" fill="white"/>
<path d="M931.924 700.78C931.924 700.78 935.696 710.775 936.861 711.702C938.02 712.629 950.601 694.905 950.601 694.905C948.905 694.241 934.342 700.917 931.924 700.78Z" fill="#F2F7FE"/>
<path d="M911.698 702.444C911.698 702.444 928.453 719.773 928.137 721.29C927.82 722.807 908.352 732.665 907.683 732.244C907.014 731.822 912.42 719.651 912.304 717.533C912.188 715.415 911.698 702.444 911.698 702.444Z" fill="#F2F7FE"/>
<path d="M900.597 722.645C901.361 724.484 902.768 734.22 905.765 742.36V742.371H905.771L904.675 724.02L911.946 692.734C908.02 694.852 899.374 719.7 900.597 722.645Z" fill="#F2F7FE"/>
<path d="M936.382 751.675C936.382 751.675 961.071 755.922 963.553 754.905C966.034 753.894 970.513 716.728 970.513 716.728C970.513 716.728 964.048 735.558 963.879 736.507C963.711 737.45 956.176 734.942 956.176 734.942L936.382 751.675Z" fill="#F2F7FE"/>
<path d="M964.037 716.37L960.729 726.111L955.033 725.795L959.496 721.875L964.037 716.37Z" fill="#F2F7FE"/>
<path d="M1040.21 731.117C1040.8 732.366 1041.89 738.967 1044.22 744.505V744.51C1045.62 747.845 1047.47 750.785 1049.91 751.955C1056.43 755.09 1067.97 751.149 1067.97 751.149C1067.97 751.149 1087.13 754.299 1089.05 753.646C1090.98 752.987 1094.44 727.919 1094.44 727.919C1094.44 727.919 1080.3 713.409 1078.98 712.94C1077.67 712.466 1066.38 716.812 1064.5 716.697C1062.62 716.581 1052.04 709.647 1049 711.027C1045.95 712.413 1039.26 729.11 1040.21 731.117Z" fill="white"/>
<path d="M1064.5 716.696C1064.5 716.696 1067.43 723.493 1068.33 724.136C1069.23 724.773 1078.98 712.94 1078.98 712.94C1077.67 712.471 1066.38 716.812 1064.5 716.696Z" fill="#C4D9E8"/>
<path d="M1048.81 717.587C1048.81 717.587 1061.81 729.494 1061.57 730.516C1061.33 731.538 1046.23 737.977 1045.71 737.687C1045.19 737.397 1049.37 729.231 1049.29 727.798C1049.2 726.365 1048.81 717.587 1048.81 717.587Z" fill="#DFEBF5"/>
<path d="M1040.21 731.118C1040.8 732.367 1041.89 738.968 1044.22 744.506V744.511H1044.23L1043.37 732.093L1048.99 711.028C1045.95 712.414 1039.26 729.111 1040.21 731.118Z" fill="#C4D9E8"/>
<path d="M1067.97 751.149C1067.97 751.149 1087.13 754.3 1089.05 753.647C1090.98 752.988 1094.44 727.919 1094.44 727.919C1094.44 727.919 1089.43 740.575 1089.3 741.212C1089.17 741.85 1083.33 740.064 1083.33 740.064L1067.97 751.149Z" fill="#DFEBF5"/>
<path d="M1089.42 727.603L1086.86 734.152L1082.44 733.873L1085.89 731.27L1089.42 727.603Z" fill="#DFEBF5"/>
<path d="M1068.75 365.61C1069.34 366.859 1070.43 373.461 1072.76 378.998V379.003C1074.16 382.338 1076.01 385.278 1078.45 386.448C1084.98 389.583 1096.51 385.642 1096.51 385.642C1096.51 385.642 1115.67 388.793 1117.59 388.139C1119.52 387.481 1122.98 362.412 1122.98 362.412C1122.98 362.412 1108.84 347.902 1107.53 347.433C1106.21 346.959 1094.92 351.306 1093.04 351.19C1091.17 351.074 1080.59 344.14 1077.54 345.521C1074.5 346.912 1067.8 363.608 1068.75 365.61Z" fill="white"/>
<path d="M1093.04 351.196C1093.04 351.196 1095.97 357.993 1096.87 358.636C1097.77 359.278 1107.53 347.439 1107.53 347.439C1106.21 346.965 1094.92 351.312 1093.04 351.196Z" fill="#C4D9E8"/>
<path d="M1077.35 352.086C1077.35 352.086 1090.35 363.993 1090.11 365.015C1089.87 366.037 1074.77 372.476 1074.25 372.186C1073.73 371.896 1077.92 363.73 1077.83 362.297C1077.74 360.864 1077.35 352.086 1077.35 352.086Z" fill="#DFEBF5"/>
<path d="M1068.75 365.611C1069.34 366.86 1070.43 373.461 1072.76 378.999V379.004H1072.77L1071.91 366.586L1077.54 345.521C1074.5 346.912 1067.8 363.609 1068.75 365.611Z" fill="#C4D9E8"/>
<path d="M1096.51 385.648C1096.51 385.648 1115.67 388.799 1117.59 388.146C1119.52 387.487 1122.98 362.418 1122.98 362.418C1122.98 362.418 1117.97 375.074 1117.84 375.711C1117.71 376.349 1111.87 374.563 1111.87 374.563L1096.51 385.648Z" fill="#DFEBF5"/>
<path d="M1117.96 362.102L1115.39 368.646L1110.98 368.367L1114.43 365.769L1117.96 362.102Z" fill="#DFEBF5"/>
<path d="M1426.38 755.063H1.61749C0.727078 755.063 0 754.336 0 753.446V752.892C0 752.002 0.727078 751.275 1.61749 751.275H1426.38C1427.27 751.275 1428 752.002 1428 752.892V753.446C1428 754.336 1427.27 755.063 1426.38 755.063Z" fill="#233862"/>
<defs>
<linearGradient id="paint0_linear" x1="709.806" y1="0" x2="709.806" y2="752.178" gradientUnits="userSpaceOnUse">
<stop stop-color="#231E4E"/>
<stop offset="1" stop-color="#0A0430"/>
</linearGradient>
<linearGradient id="paint1_linear" x1="678.358" y1="290.262" x2="571.09" y2="372.75" gradientUnits="userSpaceOnUse">
<stop offset="0.0354" stop-color="#9F19AB"/>
<stop offset="0.2438" stop-color="#AE25B1"/>
<stop offset="0.6455" stop-color="#D744BF"/>
<stop offset="1" stop-color="#FF63CE"/>
</linearGradient>
<linearGradient id="paint2_linear" x1="794.026" y1="357.091" x2="954" y2="561" gradientUnits="userSpaceOnUse">
<stop stop-color="#7B64F3"/>
<stop offset="1" stop-color="#2C3A64" stop-opacity="0"/>
</linearGradient>
<linearGradient id="paint3_linear" x1="882.012" y1="316.583" x2="923.496" y2="227.32" gradientUnits="userSpaceOnUse">
<stop stop-color="#EF5D4F"/>
<stop offset="1" stop-color="#F29C62"/>
</linearGradient>
<linearGradient id="paint4_linear" x1="893.6" y1="491.118" x2="962.939" y2="360.063" gradientUnits="userSpaceOnUse">
<stop offset="0.0354" stop-color="#9F19AB"/>
<stop offset="0.2438" stop-color="#AE25B1"/>
<stop offset="0.6455" stop-color="#D744BF"/>
<stop offset="1" stop-color="#FF63CE"/>
</linearGradient>
<linearGradient id="paint5_linear" x1="602.526" y1="856.019" x2="838.114" y2="508.603" gradientUnits="userSpaceOnUse">
<stop offset="0.261469" stop-color="#EF5D4F"/>
<stop offset="1" stop-color="#F29C62"/>
</linearGradient>
<linearGradient id="paint6_linear" x1="1254" y1="521.999" x2="1262" y2="727.999" gradientUnits="userSpaceOnUse">
<stop offset="0.0607812" stop-color="#57679B"/>
<stop offset="0.552282" stop-color="#39427C"/>
</linearGradient>
<linearGradient id="paint7_linear" x1="1039" y1="201.999" x2="1038.62" y2="753.172" gradientUnits="userSpaceOnUse">
<stop stop-color="#39427C"/>
<stop offset="1" stop-color="#6274A6"/>
</linearGradient>
<linearGradient id="paint8_linear" x1="932.981" y1="387.984" x2="951.934" y2="471.482" gradientUnits="userSpaceOnUse">
<stop stop-color="#EF5D4F"/>
<stop offset="1" stop-color="#F29C62"/>
</linearGradient>
<linearGradient id="paint9_linear" x1="274" y1="800" x2="518" y2="580" gradientUnits="userSpaceOnUse">
<stop stop-color="#1B124C"/>
<stop offset="1" stop-color="#39427C"/>
</linearGradient>
<linearGradient id="paint10_linear" x1="461" y1="331" x2="305" y2="520" gradientUnits="userSpaceOnUse">
<stop stop-color="#F5F5F5"/>
<stop offset="1" stop-color="#D7D7D7"/>
</linearGradient>
<linearGradient id="paint11_linear" x1="295.825" y1="368.32" x2="433.974" y2="239.675" gradientUnits="userSpaceOnUse">
<stop stop-color="#EF5D4F"/>
<stop offset="1" stop-color="#F29C62"/>
</linearGradient>
<linearGradient id="paint12_linear" x1="293.896" y1="440.097" x2="90.9965" y2="599.216" gradientUnits="userSpaceOnUse">
<stop stop-color="#F5F5F5"/>
<stop offset="1" stop-color="#D7D7D7"/>
</linearGradient>
<linearGradient id="paint13_linear" x1="225" y1="620" x2="-36.5941" y2="678.934" gradientUnits="userSpaceOnUse">
<stop stop-color="#F5F5F5"/>
<stop offset="1" stop-color="#D7D7D7"/>
</linearGradient>
</defs>
</svg>
