<svg width="16" height="22" viewBox="0 0 16 22" fill="none" xmlns="http://www.w3.org/2000/svg">
<path d="M14.5836 20.321H1.13075C0.866915 20.321 0.681719 20.125 0.670384 19.9177L1.7485 6.33984H13.9658L15.0439 19.9177C15.0326 20.125 14.8474 20.321 14.5836 20.321Z" stroke="white"/>
<path d="M1.44226 6.02009L0.339276 19.9111C0.346957 20.315 0.698934 20.6413 1.13049 20.6413H14.5833C15.0148 20.6413 15.3668 20.315 15.3745 19.9111L14.2715 6.02009H1.44226ZM1.13049 5.66016H14.5833L15.7138 19.8976C15.7138 20.5071 15.2076 21.0013 14.5833 21.0013H1.13049C0.506137 21.0013 0 20.5071 0 19.8976L1.13049 5.66016Z" fill="white"/>
<path d="M4.91754 9.76623C5.04834 4.26999 5.16616 1.10045 7.87933 1.00207C10.5925 0.903689 10.8043 4.31966 10.7734 9.76623" stroke="white" stroke-linecap="round" stroke-linejoin="round"/>
</svg>
