<svg width="326" height="188" viewBox="0 0 326 188" fill="none" xmlns="http://www.w3.org/2000/svg">
<path d="M77.3944 187.44C74.9498 187.44 73.2374 186.85 72.3734 185.602C71.7727 184.737 71.5989 183.605 71.8571 182.24C74.3544 169.01 117.879 131.355 175.356 92.6984C231.462 54.9639 293.67 21.9607 300.656 32.045C301.257 32.909 301.431 34.0418 301.172 35.4064C298.675 48.6361 255.15 86.2916 197.674 124.948C148.517 158.009 94.6758 187.44 77.3944 187.44ZM73.3955 184.89C76.0088 188.663 91.0141 184.342 113.533 173.336C137.01 161.861 166.646 144.311 196.973 123.91C253.275 86.044 297.542 47.8985 299.945 35.1746C300.14 34.1525 300.034 33.3358 299.629 32.7562C297.015 28.9838 282.01 33.3042 259.492 44.3105C236.014 55.7858 206.378 73.3359 176.051 93.7363C119.75 131.603 75.4819 169.748 73.0794 182.472C72.8897 183.494 72.9951 184.305 73.3955 184.89Z" fill="#975CED"/>
<path d="M92.6788 149.205C79.2541 149.205 68.3795 148.273 60.3553 146.429C51.7251 144.448 46.6935 141.444 45.3921 137.509C44.723 135.475 45.0707 133.267 46.4248 130.944C52.2836 120.918 75.8506 110.828 89.3753 105.712C112.911 96.8026 143.664 88.3885 175.972 82.0292C213.127 74.7109 249.001 70.6593 276.978 70.6119C290.598 70.5855 301.652 71.5234 309.771 73.3885C318.401 75.3695 323.433 78.3727 324.734 82.3084C325.403 84.3421 325.055 86.555 323.701 88.8732C317.842 98.8996 294.275 108.989 280.751 114.105C257.215 123.014 226.462 131.429 194.154 137.788C156.999 145.106 121.125 149.158 93.1477 149.205C92.9897 149.205 92.8369 149.205 92.6788 149.205ZM277.431 72.1609C277.279 72.1609 277.131 72.1609 276.978 72.1609C249.096 72.203 213.332 76.2494 176.272 83.5465C110.566 96.4865 56.5249 116.745 47.7683 131.724C46.6461 133.647 46.3405 135.428 46.8674 137.019C49.096 143.778 65.7873 147.651 92.6894 147.651C92.8421 147.651 92.9897 147.651 93.1425 147.651C121.024 147.609 156.788 143.562 193.849 136.265C259.555 123.325 313.596 103.067 322.352 88.0882C323.475 86.1651 323.78 84.3843 323.253 82.7931C321.025 76.0334 304.333 72.1609 277.431 72.1609Z" fill="#FD62CE"/>
<path d="M85.598 104.675L81.6992 107.773L86.5253 108.984L88.264 113.652L90.9089 109.432L95.8879 109.221L92.6897 105.402L94.028 100.607L89.4073 102.462L85.2608 99.7114L85.598 104.675Z" fill="#975CED"/>
<path d="M286.109 51.971L284.518 56.6865L289.228 55.0848L293.222 58.0564L293.153 53.0775L297.215 50.2008L292.463 48.7255L290.977 43.9731L288.106 48.0406L283.127 47.9826L286.109 51.971Z" fill="#FD62CE"/>
<path d="M232.358 17.9618L230.256 22.4718L235.119 21.397L238.76 24.79L239.239 19.8322L243.591 17.4191L239.023 15.4328L238.075 10.5435L234.771 14.2737L229.829 13.6678L232.358 17.9618Z" fill="#F99746"/>
<path d="M292.864 142.346L290.761 146.861L295.624 145.781L299.265 149.174L299.744 144.221L304.096 141.803L299.534 139.817L298.58 134.933L295.282 138.658L290.34 138.052L292.864 142.346Z" fill="#975CED"/>
<path d="M0.144531 154.427L26.5829 163.378L23.4796 152.578L38.9486 155.528L11.7778 141.945L16.5091 154.559L0.144531 154.427Z" fill="#FD62CE"/>
<path d="M175.682 0.295898L173.965 43.0252L188.496 33.7891L190.851 57.8039L199.06 11.9977L182.569 24.4055L175.682 0.295898Z" fill="#975CED"/>
<path d="M99.5278 175.823L95.4023 178.61L100.123 180.191L101.498 184.975L104.459 180.976L109.438 181.145L106.546 177.093L108.242 172.409L103.495 173.911L99.5699 170.844L99.5278 175.823Z" fill="#FD62CE"/>
<path d="M78.3004 187.208C75.8557 187.208 74.1434 186.618 73.2793 185.37L74.3067 184.658C79.3594 191.95 130.218 169.189 197.884 123.684C254.186 85.8174 298.453 47.6719 300.856 34.948C301.051 33.9258 300.946 33.1092 300.54 32.5296L301.567 31.8184C302.168 32.6824 302.342 33.8152 302.084 35.1798C299.586 48.4095 256.061 86.065 198.585 124.722C149.428 157.777 95.587 187.208 78.3004 187.208Z" fill="#975CED"/>
</svg>
