<svg width="1223" height="1007" viewBox="0 0 1223 1007" fill="none" xmlns="http://www.w3.org/2000/svg">
<path d="M1004.99 692.577C1008.12 685.047 1011.31 677.504 1019.42 673.692C1026 670.603 1032.86 671.765 1038.69 676.158C1055.23 688.593 1040.82 702.3 1059.65 725.886C1065.5 733.217 1072.58 739.134 1076.09 747.716C1080.99 759.734 1075.15 765.508 1065.78 771.268C1020.97 798.81 997.479 742.257 998.326 729.323C998.948 719.689 1002.99 697.428 1004.99 692.577Z" fill="#13375B"/>
<path d="M978.012 943.381C980.219 953.377 983.697 962.116 984.168 963.148C984.394 963.64 986.45 965.402 986.703 965.908C986.054 978.213 978.491 985.77 971.33 991.216C972.71 984.978 976.01 977.756 975.505 976.396C974.698 974.23 971.521 964.33 965.044 951.969C971.125 951.061 973.168 947.275 978.012 943.381Z" fill="#F7A491"/>
<path d="M1005.67 797.238L1043.82 826.215C1043.82 826.215 1024.92 844.39 1017.84 851.141C1010.75 857.898 967.031 889.348 966.416 890.893C965.959 892.04 976.365 928.198 983.074 947.501C979.043 951.621 970.161 955.665 964.906 956.998C951.679 931.758 935.431 888.686 935.431 882.837C935.431 873.312 1005.67 797.238 1005.67 797.238Z" fill="#355389"/>
<path d="M1112.69 855.048C1111.44 856.265 1103.16 872.396 1100.01 881.033C1095.4 878.129 1092.61 874.665 1087.45 872.711C1091.51 866.828 1099.45 852.671 1100.1 849.295C1101.64 841.301 1103.46 840.119 1103.46 840.119C1103.46 840.119 1130.26 849.186 1132.05 851.728C1133.83 854.27 1117.7 850.163 1112.69 855.048Z" fill="#F7A491"/>
<path d="M1099.79 851.072C1097.71 851.079 1099.97 841.677 1100.44 839.511C1100.98 837.079 1102.39 836.348 1102.74 836.259C1103.69 836.027 1133.48 846.105 1138.51 849.719C1138.85 849.965 1139.46 850.737 1139.55 850.915C1142.31 856.06 1117.75 857.037 1114.22 854.789C1111.08 852.794 1109.14 851.045 1099.79 851.072Z" fill="#2A6AF9"/>
<path d="M997.525 805.792C997.525 805.792 1030.82 792.339 1030.83 792.339C1030.7 792.4 1031.03 793.692 1031.05 793.794C1034.18 805.956 1050.84 801.262 1057.72 822.382C1062.58 837.304 1069.7 893.113 1069.7 893.113C1069.7 893.113 1074.74 883.52 1090.41 865.864C1091.62 864.498 1107.06 875.095 1107.06 875.095C1095.58 905.528 1067.39 930.255 1063.58 928.506C1037.79 916.678 1006.82 823.331 1006.86 823.338C1003.92 817.633 997.525 805.792 997.525 805.792Z" fill="#466EB6"/>
<path d="M996.296 707.56C996.296 707.56 980.677 682.833 977.964 674.606C975.245 666.387 977.944 627.202 978.197 624.421C978.456 621.633 987.892 614.029 986.41 611.835C984.92 609.649 971.89 607.866 969.704 608.289C967.517 608.72 963.268 608.323 961.525 610.086C961.3 610.319 965.673 620.629 965.584 622.228C964.962 633.146 958.765 667.904 960.794 677.298C963.131 688.108 986.321 722.639 986.321 722.639L996.296 707.56Z" fill="#F7A491"/>
<path d="M1053.01 721.964C1053.01 721.964 1094.79 723.002 1103.97 723.754C1113.15 724.505 1146.43 721.738 1147.72 721.588C1149.01 721.437 1157.54 707 1158.95 708.551C1160.37 710.102 1154.21 715.712 1156.11 717.167C1158.02 718.622 1178.49 715.363 1178.21 716.88C1177.71 719.709 1165.76 719.353 1165.77 720.72C1165.79 722.086 1178.27 719.955 1179.12 722.223C1179.97 724.492 1167.11 723.152 1166.6 724.164C1166.09 725.175 1178.53 727.033 1177.25 729.145C1176.56 730.292 1166.23 727.231 1166.28 728.796C1166.33 730.361 1173.87 733.914 1172.94 735.157C1172.01 736.401 1167.02 731.338 1162.65 731.276C1158.28 731.215 1155.14 728.933 1148.16 730.846C1141.18 732.759 1117.38 742.359 1102.49 741.648C1087.59 740.938 1054.67 739.475 1054.67 739.475L1053.01 721.964Z" fill="#F7A491"/>
<path d="M991.684 765.596C991.117 758.702 990.154 740.111 990.461 737.822C988.377 730.661 980.773 720.05 979.174 717.051C979.174 717.051 989.491 705.36 997.137 705.463C997.137 705.463 1005.27 715.739 1011.31 718.889C1011.4 718.868 1013.45 719.804 1014.35 719.797C1020.19 719.756 1040.56 719.141 1044.37 720.276L1042.22 751.767C1041.12 753.571 1039.79 789.784 1037.54 792.763C1035.28 795.742 1002.48 809.311 997.041 805.813C996.836 805.662 992.839 779.521 991.684 765.596Z" fill="url(#paint0_linear)"/>
<path d="M1033.77 721C1037.52 719.203 1064.98 719.265 1064.98 719.265C1064.98 719.265 1068.78 738.205 1065.72 742.762C1065.72 742.762 1041.39 746.384 1042.08 748.379L1033.77 721Z" fill="url(#paint1_linear)"/>
<path d="M1027.66 708.195C1027.66 708.195 1025.55 719.121 1025.97 723.432C1026.39 727.743 1024.36 741.627 1015.24 741.675C1006.11 741.723 1013.5 724.02 1014.36 719.797C1015.22 715.575 1015.42 702.504 1015.42 702.504L1027.66 708.195Z" fill="#F7A491"/>
<path d="M1015.24 709.056C1015.39 705.483 1015.43 702.497 1015.43 702.497L1027.66 708.195C1027.66 708.195 1027.23 710.43 1026.8 713.279C1021.44 714.352 1017.56 712.37 1015.24 709.056Z" fill="#F47458"/>
<path d="M1032.13 678.051C1032.13 678.051 1036.85 680.668 1038.57 686.332C1040.29 691.996 1038.33 706.625 1026.16 710.15C1013.98 713.676 1008.7 702.101 1011.21 693.048C1013.72 683.995 1019.17 672.53 1032.13 678.051Z" fill="#F7A491"/>
<path d="M1009.69 689.536C1009.93 691.968 1011.27 693.827 1012.69 693.69C1014.11 693.554 1015.06 691.47 1014.82 689.037C1014.58 686.605 1013.24 684.746 1011.82 684.883C1010.41 685.02 1009.45 687.104 1009.69 689.536Z" fill="#F7A491"/>
<path d="M984.278 963.441C984.982 961.487 992.955 967.37 994.827 968.552C996.932 969.884 997.144 971.456 997.103 971.818C997 972.768 978.094 997.768 972.437 1001.33C971.904 1001.66 970.756 1001.71 970.414 1001.59C967.162 1000.47 971.699 980.393 975.771 976.314C978.402 973.683 981.121 972.242 984.278 963.441Z" fill="#2A6AF9"/>
<path d="M1053.64 589.876L1020.1 601.799C1018.39 602.407 1017.09 603.821 1016.62 605.577L1007.44 640.061C1006.26 644.482 1000.53 645.63 997.751 641.995L976.03 613.674C974.923 612.232 973.181 611.426 971.37 611.521L935.814 613.373C931.256 613.612 928.393 608.501 930.976 604.723L951.098 575.295C952.123 573.799 952.348 571.885 951.693 570.184L938.902 536.848C937.262 532.571 941.218 528.273 945.598 529.571L979.754 539.704C981.496 540.223 983.375 539.848 984.783 538.7L1012.43 516.241C1015.97 513.358 1021.28 515.81 1021.41 520.395L1022.4 556.089C1022.44 557.906 1023.39 559.587 1024.91 560.578L1054.79 580.037C1058.62 582.531 1057.95 588.345 1053.64 589.876Z" fill="#7B64F3"/>
<path d="M986.177 612.184C987.427 614.022 980.649 619.843 978.77 623.054L974.514 617.254C976.611 616.85 984.749 610.086 986.177 612.184Z" fill="#F7A491"/>
<path d="M1030.71 677.312C1030.71 677.312 1032.91 693.629 1038.19 696.567C1043.46 699.505 1041.25 706.747 1041.25 706.747C1041.25 706.747 1046.04 689.946 1041.87 684.548C1037.69 679.15 1030.71 677.312 1030.71 677.312Z" fill="#13375B"/>
<path d="M1035.06 698.91C1033.64 701.035 1033.64 703.543 1035.08 704.506C1036.51 705.469 1038.84 704.533 1040.27 702.408C1041.7 700.284 1041.7 697.776 1040.26 696.813C1038.81 695.849 1036.49 696.785 1035.06 698.91Z" fill="#F7A491"/>
<path d="M975.935 613.551C975.969 613.592 976.003 613.626 976.03 613.667L977.574 615.676C976.44 615.368 974.274 614.76 972.17 616.195C972.17 616.202 972.867 614.712 975.935 613.551Z" fill="#F47257"/>
<path d="M284.636 794.492C285.045 794.663 279.204 802.192 273.512 807.522C268.921 813.282 264.616 820.101 263.133 827.535C260.879 838.836 262.758 894.685 260.797 898.662C243.954 915.128 231.758 956.459 228.328 969.065C227.659 971.525 226.306 973.738 224.434 975.46L225.185 989.706L233.555 997.413C233.555 997.413 231.697 985.805 235.414 977.189C235.414 977.189 277.823 912.962 280.338 908.05C285.148 894.07 302.66 822.437 302.66 822.437L306.725 805.971C306.732 805.985 284.67 794.506 284.636 794.492Z" fill="#F7A491"/>
<path d="M215.265 980.044C215.265 980.044 220.56 988.209 221.018 991.387C221.469 994.571 224.29 1001.79 227.413 1002.24C228.124 1002.34 240.258 1003.23 240.169 1001.72C240.101 1000.56 235.708 998.902 233.672 997.495C230.146 995.063 224.673 975.228 224.673 975.228C224.673 975.228 215.497 977.503 215.265 980.044Z" fill="#F47458"/>
<path d="M320.884 819.247C320.884 819.247 348.201 877.652 348.371 887.921C348.522 896.722 343.595 946.108 344.969 987.233C345.017 988.716 346.896 990.69 349.635 991.947C351.173 992.651 358.613 995.979 358.613 995.979L359.638 998.637L334.016 996.812L333.654 989.816C333.654 989.816 323.46 928.295 324.498 910.892C324.662 908.159 325.988 891.795 325.988 891.795L295.18 832.318L314.557 806.859L320.884 819.247Z" fill="#F7A491"/>
<path d="M323.445 688.157C319.305 677.13 308.496 670.454 297.236 672.518C293.778 666.942 288.018 662.802 281.753 661.456C269.386 658.805 252.673 663.69 253.124 676.781C248.328 685.575 248.143 698.147 255.482 704.836C252.926 716.663 264.002 728.094 278.405 727.677C283.42 735.944 292.972 741.26 302.469 740.126C304.751 739.853 308.229 739.286 308.803 739.429C308.079 739.292 324.06 751.55 337.603 732.706C351.418 713.479 341.709 690.207 323.445 688.157Z" fill="#355389"/>
<path d="M321.812 622.01C322.482 620.432 323.302 618.922 324.272 617.508L325.338 615.95C325.468 615.677 325.57 615.444 325.625 615.287C326.089 613.907 325.734 609.473 325.734 609.473L316.387 611.734L314.337 617.125C312.26 616.162 308.707 608.933 307.409 610.668C305.879 612.718 311.652 621.607 312.103 624.019C312.561 626.424 307.143 663.799 305.571 671.219C304.007 678.639 293.43 699.355 293.43 699.355L303.098 711.627C303.098 711.627 318.601 680.04 319.619 670.399C319.728 669.388 319.844 667.864 319.974 665.985L321.812 622.01Z" fill="#F7A491"/>
<path d="M257.402 739.032L245.916 729.296C245.916 729.296 236.617 744.799 229.169 757.439C221.783 754.768 202.686 742.319 201.743 741.752C200.801 741.178 198.71 727.109 197.09 727.861C195.471 728.606 198.334 735.288 196.373 735.787C194.412 736.285 179.708 726.46 179.408 727.772C178.841 730.225 188.181 734.14 187.709 735.233C187.238 736.326 178.321 730.218 176.9 731.742C175.479 733.266 185.858 736.709 185.912 737.707C185.967 738.704 175.739 735.814 176.005 737.959C176.149 739.121 185.161 740.296 184.594 741.54C184.027 742.776 177.01 742.981 177.303 744.307C177.597 745.633 183.159 743.316 186.555 744.806C189.95 746.295 193.141 745.564 197.883 749.561C202.618 753.551 225.91 776.359 233.167 774.398C239.507 772.689 257.402 739.032 257.402 739.032Z" fill="#F7A491"/>
<path d="M258.27 889.404C258.277 889.412 258.277 889.412 258.284 889.404H258.27Z" fill="#F47458"/>
<path d="M297.345 724.547C298.083 720.058 305.032 708.819 306.125 706.065C306.125 706.065 298.069 695.823 291.53 696.602C291.53 696.602 282.744 711.176 277.742 711.661C272.748 712.153 255.167 712.911 252.086 714.783C249.004 716.655 235.934 736.723 235.934 736.723C235.934 736.723 247.679 748.721 252.407 748.693C252.407 748.693 254.921 743.747 255.919 742.667C256.63 744.963 267.575 780.431 267.562 788.459L267.644 788.528C277.879 796.829 292.808 794.909 300.693 784.278C300.693 784.278 299.764 773.222 300.29 763.028C301.123 747.06 304.355 738.574 297.345 724.547Z" fill="url(#paint2_linear)"/>
<path d="M354.315 861.738L300.7 784.284C297.393 785.623 294.27 786.792 290.731 787.468C283.044 788.951 275.344 788.712 267.562 788.459C267.562 788.746 267.548 789.006 267.514 789.217C266.619 795.606 258.146 805.493 256.404 824.87C254.423 846.864 255.618 885.072 256.295 887.579C291.94 883.247 344.203 872.349 354.315 861.738Z" fill="url(#paint3_linear)"/>
<path d="M323.049 616.189C323.049 616.189 319.68 618.444 316.817 617.72C313.954 616.989 312.643 615.93 312.643 615.93C312.643 615.93 314.221 618.813 316.558 620.07C320.589 622.229 323.049 616.189 323.049 616.189Z" fill="url(#paint4_linear)"/>
<path d="M256.568 600.208L287.745 593.778C289.33 593.45 290.977 593.963 292.138 595.138L314.932 618.314C317.856 621.286 322.769 619.476 323.247 615.246L326.964 582.293C327.155 580.612 328.126 579.143 329.554 578.357L357.67 562.922C361.277 560.941 361.134 555.502 357.431 553.712L328.556 539.78C327.087 539.07 326.042 537.649 325.768 535.988L320.35 503.274C319.653 499.079 314.652 497.527 311.891 500.65L290.328 524.994C289.228 526.231 287.615 526.833 286.016 526.587L254.552 521.804C250.514 521.189 247.569 525.671 249.558 529.388L265.102 558.365C265.894 559.841 265.942 561.631 265.225 563.141L251.198 592.897C249.394 596.709 252.571 601.034 256.568 600.208Z" fill="url(#paint5_linear)"/>
<path d="M268.703 698.747C268.703 698.747 270.589 708.901 270.213 712.911C269.837 716.915 271.648 729.829 279.792 729.87C287.937 729.911 281.337 713.458 280.571 709.529C279.806 705.607 279.622 693.452 279.622 693.452L268.703 698.747Z" fill="#F7A491"/>
<path d="M279.792 699.547C279.663 696.226 279.622 693.452 279.622 693.452L268.703 698.747C268.703 698.747 269.086 700.825 269.475 703.469C274.258 704.466 277.722 702.628 279.792 699.547Z" fill="#F47458"/>
<path d="M264.712 670.72C264.712 670.72 260.503 673.153 258.966 678.421C257.428 683.688 259.178 697.285 270.048 700.565C280.919 703.845 285.626 693.083 283.385 684.666C281.144 676.248 276.28 665.589 264.712 670.72Z" fill="#F7A491"/>
<path d="M284.746 681.399C284.534 683.661 283.338 685.389 282.067 685.26C280.803 685.13 279.949 683.196 280.161 680.935C280.373 678.673 281.569 676.944 282.833 677.074C284.104 677.204 284.958 679.138 284.746 681.399Z" fill="#F7A491"/>
<path d="M262.096 690.111C263.374 692.086 263.367 694.416 262.083 695.318C260.798 696.213 258.728 695.345 257.45 693.37C256.172 691.396 256.179 689.066 257.464 688.164C258.741 687.262 260.819 688.137 262.096 690.111Z" fill="#F7A491"/>
<path d="M324.634 603.788C322.523 603.378 313.607 610.381 313.682 611.427C313.764 612.513 322.468 608.038 322.714 608.748C322.906 609.309 312.971 611.912 313.49 612.909C313.846 613.593 322.762 611.714 323.001 612.151C323.37 612.834 315.561 613.128 316.066 613.88C316.647 614.754 324.088 614.399 324.088 614.399C324.088 614.399 325.584 611.987 325.741 611.085C325.81 610.702 325.81 610.163 325.775 609.548C325.748 609.049 325.967 608.625 325.898 608.065C325.611 605.81 325.796 604.013 324.634 603.788Z" fill="#F7A491"/>
<path d="M312.745 609.145L309.425 613.251L307.232 611.618C307.232 611.618 307.047 611.276 307.307 610.709C307.559 610.135 312.67 607.628 312.745 609.145Z" fill="#F7A491"/>
<path d="M333.94 1001.69H366.306C367.502 1001.58 367.795 1000.62 367.379 1000.02C366.525 998.793 362.746 997.898 358.503 995.944C351.062 996.716 334.849 991.633 333.674 989.925C332.997 993.341 333.27 1001.54 333.94 1001.69Z" fill="#F47458"/>
<path d="M309.658 612.964C309.658 612.964 314.051 615.649 315.869 618.785C317.686 621.921 316.846 624.518 316.846 624.518L309.323 615.26L309.658 612.964Z" fill="#F7A491"/>
<path d="M844.87 246.705C844.084 250.374 843.38 254.173 841.467 257.254C838.181 261.224 835.079 265.317 832.134 269.519C834.163 269.375 836.199 269.279 838.263 269.279C858.535 269.279 877.393 276.42 891.366 289.374C903.862 300.955 910.736 315.803 910.736 331.183C910.736 346.556 903.856 361.403 891.366 372.991C877.386 385.953 858.528 393.086 838.263 393.086C818.045 393.086 799.235 385.987 785.269 373.087C784.251 376.1 783.24 379.086 782.229 382.092C775.396 385.556 770.593 393.715 770.593 403.226C770.593 415.88 779.086 426.142 789.56 426.142C797.8 426.142 804.79 419.788 807.414 410.919C817.054 414.13 827.433 415.9 838.27 415.9C888.735 415.9 929.642 377.965 929.642 331.176C929.635 286.457 892.247 249.848 844.87 246.705Z" fill="url(#paint6_linear)"/>
<path d="M435.106 246.705C435.885 250.374 436.595 254.173 438.509 257.254C441.795 261.224 444.897 265.317 447.842 269.519C445.813 269.375 443.776 269.279 441.713 269.279C421.441 269.279 402.583 276.42 388.61 289.374C376.113 300.955 369.233 315.803 369.233 331.183C369.233 346.556 376.113 361.403 388.61 372.991C402.59 385.953 421.448 393.086 441.713 393.086C461.931 393.086 480.741 385.987 494.707 373.087C495.725 376.1 496.736 379.086 497.747 382.092C504.58 385.556 509.383 393.715 509.383 403.226C509.383 415.88 500.89 426.142 490.416 426.142C482.176 426.142 475.186 419.788 472.562 410.919C462.921 414.13 452.543 415.9 441.706 415.9C391.241 415.9 350.334 377.965 350.334 331.176C350.341 286.457 387.729 249.848 435.106 246.705Z" fill="url(#paint7_linear)"/>
<path d="M858.016 237.057V260.445C858.016 366.152 772.301 451.867 666.594 451.867C617.905 451.218 584.5 456.253 538.271 435.79C471.667 406.58 423.709 339.655 423.709 260.445V237.057H858.016Z" fill="url(#paint8_linear)"/>
<path d="M538.271 435.797C538.319 435.817 538.367 435.838 538.415 435.858L607.226 237.057H535.593L480.44 396.427C497.098 412.928 516.708 426.34 538.271 435.797Z" fill="white"/>
<path d="M583.037 449.209L655.647 237.057H619.667L550.029 440.559C561.57 444.816 572.406 447.508 583.037 449.209Z" fill="white"/>
<path d="M473.464 389.151L527.762 237.064H510.654L461.527 374.672C465.272 379.694 469.255 384.525 473.464 389.151Z" fill="white"/>
<path d="M839.056 223.802H443.763C429.333 223.802 417.574 231.83 416.747 241.949H866.072C865.238 231.83 853.479 223.802 839.056 223.802Z" fill="url(#paint9_linear)"/>
<path d="M567.474 446.271L589.837 561.085H687.638L715.345 446.271H567.474Z" fill="url(#paint10_linear)"/>
<path d="M715.351 446.277L709.1 472.187H572.53L567.474 446.277H715.351Z" fill="#B75742"/>
<path d="M715.351 703.121H567.474L578.563 646.131L589.83 588.307H687.645L701.611 646.131L715.351 703.121Z" fill="url(#paint11_linear)"/>
<path d="M715.351 703.122H567.474L578.563 646.131H701.611L715.351 703.122Z" fill="#B75742"/>
<path d="M704.795 561.086H572.68C566.852 561.086 562.131 565.814 562.131 571.635V577.751C562.131 583.579 566.859 588.307 572.68 588.307H704.795C710.624 588.307 715.345 583.579 715.345 577.751V571.635C715.345 565.814 710.624 561.086 704.795 561.086Z" fill="url(#paint12_linear)"/>
<path d="M726.249 695.353H551.581V663.977C551.581 660.595 554.321 657.855 557.703 657.855H720.134C723.516 657.855 726.256 660.595 726.256 663.977V695.353H726.249Z" fill="url(#paint13_linear)"/>
<path d="M783.971 717.764V729.167H493.853V717.764C493.853 704.618 501.874 693.952 511.761 693.952H766.063C775.95 693.952 783.971 704.625 783.971 717.764Z" fill="url(#paint14_linear)"/>
<path d="M562.165 693.952L552.982 729.174H540.875L550.058 693.952H562.165Z" fill="url(#paint15_linear)"/>
<path d="M544.824 693.952L535.647 729.174H523.526L532.716 693.952H544.824Z" fill="url(#paint16_linear)"/>
<path d="M577.573 693.952L568.396 729.174H556.275L565.465 693.952H577.573Z" fill="url(#paint17_linear)"/>
<path d="M891.994 989.735V1001.14H405.849V989.735C405.849 976.589 419.288 965.924 435.851 965.924H861.985C878.548 965.924 891.994 976.589 891.994 989.735Z" fill="url(#paint18_linear)"/>
<path d="M520.302 965.924L504.922 1001.14H484.636L500.016 965.924H520.302Z" fill="white"/>
<path d="M491.256 965.924L475.876 1001.14H455.562L470.97 965.924H491.256Z" fill="white"/>
<path d="M546.129 965.924L530.749 1001.14H510.436L525.843 965.924H546.129Z" fill="white"/>
<path d="M765.249 424.577V433.186C765.249 448.095 753.183 460.161 738.295 460.161H543.545C528.637 460.161 516.57 448.095 516.57 433.186V424.577H765.249Z" fill="url(#paint19_linear)"/>
<path d="M824.537 965.923H458.706L463.161 729.174H819.631L824.537 965.923Z" fill="#39427C"/>
<path d="M737.544 965.923H545.698L548.042 729.174H734.968L737.544 965.923Z" fill="#6274A6"/>
<path d="M1219.8 1001.14H2.75353C1.22987 1001.14 0 1002.37 0 1003.89C0 1005.42 1.2367 1006.65 2.75353 1006.65H1219.8C1221.33 1006.65 1222.56 1005.42 1222.56 1003.89C1222.56 1002.37 1221.32 1001.14 1219.8 1001.14Z" fill="#184655"/>
<path d="M851.669 83.7882C850.651 87.9765 848.813 94.5973 848.813 94.5973C848.956 96.4148 849.496 103.992 850.138 113.278L836.493 107.818C836.493 107.818 836.657 92.691 836.049 91.7618C835.537 90.976 834.669 91.9531 830.488 85.9678C829.278 84.2391 829.053 81.1508 829.053 81.1508C829.053 81.1508 828.807 77.3519 829.654 76.9966C830.508 76.6413 831.485 77.2084 831.793 77.8643C832.1 78.5202 832.025 80.0507 832.332 80.7067C832.64 81.3626 834.614 82.1552 835.448 82.1142C836.282 82.0732 835.346 70.8746 835.346 70.8746C835.346 70.8746 834.881 67.6974 834.649 66.6589C834.45 65.7706 833.644 63.1742 833.644 63.1742C833.644 63.1742 832.701 59.4027 833.87 59.1157C834.56 58.9449 836.316 62.0059 837.525 65.2582C838.823 68.7565 839.561 72.4666 839.93 72.4187C840.805 72.3026 840.34 66.1601 840.34 66.1601C840.34 66.1601 839.472 63.3451 839.493 62.0195C838.673 60.3934 838.126 57.3802 839.575 57.1274C839.841 57.0796 841.741 60.9127 841.741 60.9127C841.741 60.9127 842.486 63.6115 842.923 64.8687C843.688 67.0962 843.804 70.6081 844.207 72.1523C844.542 73.4436 844.843 72.9107 844.979 72.9654C845.089 73.0063 844.898 71.2299 844.686 68.7906C844.576 67.5608 844.72 66.1396 844.378 64.7389C844.057 63.4407 843.879 61.5822 843.797 60.4617C843.565 57.2845 845.56 57.6125 846.257 60.5164C846.517 61.6233 846.797 62.8326 847.07 64.0557C848.143 68.818 848.116 73.4026 848.628 73.4436C849.291 73.4915 848.854 65.142 848.854 65.142C848.854 65.142 849.878 60.5164 850.89 64.8072C852.072 69.7882 851.949 73.8468 851.928 74.0244C851.805 75.2543 852.687 79.5998 851.669 83.7882Z" fill="#F8A492"/>
<path d="M850.781 102.086C850.781 102.086 835.407 98.403 835.257 99.6397C832.025 126.69 830.577 136.467 830.03 136.754C828.165 137.711 803.465 115.122 799.058 113.592C796.954 112.861 794.658 112.984 792.465 113.045C787.224 113.202 786.192 113.216 786.192 113.216C786.042 113.223 786.001 113.23 786.001 113.23L786.028 118.156C791.932 123.465 805.447 203.912 806.581 203.857C807.852 203.796 834.56 210.519 834.089 208.271C834.014 207.909 815.982 193.15 810.865 171.853C809.15 164.706 808.303 157.006 807.366 150.269C813.297 153.241 836.48 164.652 840.149 163.142C851.587 158.461 850.781 102.086 850.781 102.086Z" fill="#2A6AF9"/>
<path d="M896.771 244.914C896.771 244.914 921.622 264.38 922.448 267.831C923.644 272.798 946.397 266.266 940.91 265.255C939.646 265.023 935.608 263.998 935.273 263.82C933.497 262.87 911.386 236.223 911.386 236.223L896.771 244.914Z" fill="#F7A491"/>
<path d="M951.589 265.255L935.724 263.963C935.724 263.963 931.187 267.714 922.475 267.892C922.475 267.892 921.081 271.876 921.744 276.529C921.86 277.328 921.99 279.76 922.803 279.706C925.734 279.508 933.544 277.56 942.44 275.784C942.44 275.784 954.397 273.249 961.305 269.122C968.213 264.981 951.589 265.255 951.589 265.255Z" fill="#F5F5F5"/>
<path d="M785.434 196.089C785.434 196.089 803.629 199.15 823.758 194.435C847.044 188.99 872.796 183.947 880.339 188.334C886.413 191.866 924.334 249.171 924.334 249.171L909.692 259.857L867.931 213.095C867.931 213.095 814.657 232.753 802.693 230.573C775.438 225.619 775.055 203.858 785.434 196.089Z" fill="#13375B"/>
<path d="M805.323 184.521L823.532 206.16L789.759 216.457L785.434 196.089L805.323 184.521Z" fill="#13375B"/>
<path d="M842.329 283.361C842.329 283.361 841.222 313.418 840.532 318.508C839.849 323.578 853.289 338.835 851.567 333.526C851.17 332.303 850.152 328.265 850.152 327.889C850.146 325.874 855.133 291.588 855.133 291.588L842.329 283.361Z" fill="#F7A491"/>
<path d="M860.161 344.479L850.241 328.347C850.241 328.347 844.781 326.14 840.484 318.556C840.484 318.556 836.323 319.218 832.537 322.013C831.881 322.491 827.44 325.744 827.748 326.495C828.889 329.255 834.942 335.166 841.556 341.622C841.556 341.622 850.938 349.186 857.852 353.299C864.78 357.413 860.161 344.479 860.161 344.479Z" fill="#F5F5F5"/>
<path d="M871.824 224.109C865.463 215.623 814.102 207.568 814.102 207.568L799.781 180.046L768.119 199.573C768.119 199.573 771.283 224.772 773.66 231.502C776.824 240.473 798.107 240.931 811.103 240.794C823.06 240.671 844.904 243.111 844.904 243.111L837.518 308.287C837.518 308.287 852.037 311.594 856.123 311.061C856.581 310.992 879.736 234.659 871.824 224.109Z" fill="#355389"/>
<path d="M786.172 113.278L768.304 114.275C768.304 114.275 767.895 114.398 767.772 114.426C766.316 114.692 767.635 166.756 768.94 186.202C770.238 205.648 772.869 213.819 772.869 213.819C772.869 213.819 797.097 209.515 804.531 206.632C807.619 205.436 815.087 196.096 815.087 196.096C815.087 196.096 807.455 185.84 803.615 169.175C800.65 156.323 796.995 133.543 794.904 128.788C790.1 117.856 786.172 113.278 786.172 113.278Z" fill="white"/>
<path d="M768.816 98.4987L768.311 114.275C768.311 114.275 779.878 134.206 785.816 131.425C790.797 129.095 786.376 113.934 786.376 113.934C786.376 113.934 785.515 110.456 784.319 106.466C783.486 103.678 782.789 100.651 782.837 98.4373C782.953 93.0463 768.816 98.4987 768.816 98.4987Z" fill="#F7A491"/>
<path d="M782.831 98.4373C782.954 93.0463 768.817 98.4987 768.817 98.4987L768.77 100.043C769.248 100.76 769.774 101.368 770.348 101.84C774.147 104.928 779.647 106.315 784.115 105.803C783.371 103.206 782.783 100.48 782.831 98.4373Z" fill="#F47458"/>
<path d="M782.632 62.5254C782.632 62.5254 788.528 71.4077 788.966 78.8826C789.403 86.3574 787.825 91.4614 787.825 91.4614L768.912 68.8524L782.632 62.5254Z" fill="#184655"/>
<path d="M790.92 77.3595C791.186 79.9764 790.168 82.2243 788.644 82.3815C787.121 82.5386 785.672 80.5435 785.406 77.9198C785.139 75.3029 786.157 73.055 787.681 72.8978C789.205 72.7407 790.653 74.7358 790.92 77.3595Z" fill="#F48C7F"/>
<path d="M762.79 72.4808C762.36 72.3919 762.401 94.1538 768.707 99.2714C775.014 104.396 785.994 104.84 789.198 99.6813C792.744 93.9761 789.369 71.0459 779.988 66.1743C770.607 61.3027 762.79 72.4808 762.79 72.4808Z" fill="#F7A491"/>
<path d="M761.191 58.9864C756.374 63.2089 754.044 66.2904 750.785 73.7994C746.781 83.0303 754.728 92.589 761.389 96.3948C768.051 100.201 768.611 104.792 768.611 104.792L768.885 101.963C769.014 100.925 768.98 100.084 768.796 99.3601C768.584 98.5061 768.195 97.7955 767.846 97.0644C767.279 95.855 765.455 91.694 764.744 90.6008C762.865 87.7106 762.496 87.082 763.425 84.3353C764.136 82.2172 763.316 77.5573 764.416 74.0659L773.387 72.1323C773.387 72.1323 779.004 70.7794 781.839 67.5134C789.984 58.0981 773.893 47.6306 761.191 58.9864Z" fill="#184655"/>
<path d="M765.57 86.6991C766.677 89.0906 766.445 91.5435 765.058 92.1857C763.671 92.828 761.648 91.4136 760.542 89.0222C759.435 86.6308 759.667 84.1779 761.054 83.5357C762.441 82.8934 764.463 84.3077 765.57 86.6991Z" fill="#F7A491"/>
<path d="M704.434 26.6612C705.452 30.8496 707.29 37.4704 707.29 37.4704C707.146 39.2878 706.606 46.8652 705.964 56.1507L719.609 50.6914C719.609 50.6914 719.445 35.5641 720.053 34.6348C720.565 33.8491 721.433 34.8261 725.615 28.8408C726.824 27.1122 727.049 24.0238 727.049 24.0238C727.049 24.0238 727.295 20.2249 726.448 19.8696C725.594 19.5143 724.617 20.0814 724.31 20.7374C724.002 21.3933 724.077 22.9238 723.77 23.5797C723.462 24.2356 721.488 25.0282 720.654 24.9872C719.821 24.9462 720.757 13.7476 720.757 13.7476C720.757 13.7476 721.221 10.5704 721.454 9.53189C721.652 8.64366 722.458 6.04729 722.458 6.04729C722.458 6.04729 723.408 2.2757 722.232 1.98873C721.542 1.81792 719.786 4.87891 718.577 8.13122C717.279 11.6295 716.541 15.3396 716.172 15.2918C715.297 15.1756 715.762 9.03313 715.762 9.03313C715.762 9.03313 716.63 6.2181 716.609 4.89258C717.429 3.26642 717.976 0.246417 716.527 0.000443894C716.261 -0.0473842 714.361 3.7857 714.361 3.7857C714.361 3.7857 713.617 6.48456 713.179 7.74176C712.414 9.96918 712.298 13.4811 711.895 15.0253C711.56 16.3167 711.259 15.7837 711.123 15.8384C711.013 15.8794 711.205 14.1029 711.417 11.6637C711.526 10.4338 711.382 9.01262 711.724 7.61194C712.045 6.31375 712.223 4.4553 712.305 3.33475C712.537 0.157597 710.542 0.485552 709.845 3.3894C709.585 4.49628 709.305 5.70564 709.032 6.92868C707.959 11.691 707.987 16.2757 707.474 16.3167C706.811 16.3645 707.249 8.01508 707.249 8.01508C707.249 8.01508 706.224 3.3894 705.213 7.68027C704.031 12.6612 704.153 16.7198 704.174 16.8974C704.297 18.1273 703.416 22.4728 704.434 26.6612Z" fill="#F8A492"/>
<path d="M768.304 114.275C768.304 114.275 750.594 113.449 746.023 111.385C743.256 110.135 720.497 91.7962 720.497 91.7962L720.75 42.6972L704.741 41.481C704.741 41.481 696.439 95.7522 699.316 101.697C702.281 107.832 735.597 133.085 742.259 144.045C746.098 150.358 754.099 236.23 755.316 237.002C763.938 241.491 790.551 245.967 789.93 243.247C772.602 168.034 768.304 114.275 768.304 114.275Z" fill="#2A6AF9"/>
<path d="M594.499 338.695C595.517 342.884 597.355 349.505 597.355 349.505C597.211 351.322 596.672 358.899 596.029 368.185L609.674 362.726C609.674 362.726 609.51 347.598 610.118 346.669C610.631 345.883 611.498 346.86 615.68 340.875C616.889 339.146 617.115 336.058 617.115 336.058C617.115 336.058 617.361 332.259 616.514 331.904C615.659 331.549 614.682 332.116 614.375 332.772C614.067 333.427 614.143 334.958 613.835 335.614C613.528 336.27 611.553 337.062 610.719 337.021C609.886 336.98 610.822 325.782 610.822 325.782C610.822 325.782 611.287 322.605 611.519 321.566C611.717 320.678 612.523 318.081 612.523 318.081C612.523 318.081 613.473 314.31 612.298 314.023C611.608 313.852 609.852 316.913 608.642 320.165C607.344 323.664 606.606 327.374 606.237 327.326C605.363 327.21 605.827 321.067 605.827 321.067C605.827 321.067 606.695 318.252 606.675 316.927C607.495 315.301 608.041 312.281 606.593 312.035C606.326 311.987 604.427 315.82 604.427 315.82C604.427 315.82 603.682 318.519 603.245 319.776C602.473 322.003 602.356 325.515 601.96 327.059C601.625 328.351 601.325 327.818 601.188 327.873C601.079 327.914 601.27 326.137 601.482 323.698C601.591 322.468 601.448 321.047 601.789 319.646C602.11 318.348 602.288 316.489 602.377 315.369C602.609 312.192 600.614 312.52 599.917 315.424C599.651 316.53 599.377 317.74 599.097 318.963C598.025 323.725 598.052 328.31 597.539 328.351C596.87 328.399 597.314 320.049 597.314 320.049C597.314 320.049 596.289 315.43 595.278 319.714C594.096 324.695 594.226 328.747 594.239 328.932C594.355 330.161 593.481 334.507 594.499 338.695Z" fill="#F8A492"/>
<path d="M739.336 327.661C738.318 331.85 736.48 338.47 736.48 338.47C736.623 340.288 737.163 347.865 737.805 357.151L724.16 351.691C724.16 351.691 724.324 336.564 723.716 335.635C723.204 334.849 722.336 335.826 718.155 329.841C716.945 328.112 716.72 325.024 716.72 325.024C716.72 325.024 716.474 321.225 717.321 320.87C718.175 320.514 719.152 321.081 719.46 321.737C719.767 322.393 719.692 323.924 719.999 324.58C720.307 325.236 722.281 326.028 723.115 325.987C723.949 325.946 723.013 314.748 723.013 314.748C723.013 314.748 722.548 311.57 722.316 310.532C722.118 309.644 721.311 307.047 721.311 307.047C721.311 307.047 720.362 303.276 721.537 302.989C722.227 302.818 723.983 305.879 725.192 309.131C726.49 312.63 727.228 316.34 727.597 316.292C728.472 316.176 728.007 310.033 728.007 310.033C728.007 310.033 727.139 307.218 727.16 305.893C726.34 304.266 725.793 301.246 727.242 301C727.508 300.953 729.408 304.786 729.408 304.786C729.408 304.786 730.153 307.485 730.59 308.742C731.362 310.962 731.471 314.481 731.874 316.025C732.209 317.317 732.51 316.784 732.647 316.838C732.756 316.879 732.564 315.103 732.353 312.664C732.243 311.434 732.387 310.013 732.045 308.612C731.724 307.314 731.546 305.455 731.464 304.335C731.232 301.158 733.227 301.486 733.924 304.389C734.191 305.496 734.464 306.706 734.744 307.929C735.817 312.691 735.789 317.276 736.302 317.317C736.972 317.364 736.527 309.015 736.527 309.015C736.527 309.015 737.552 304.396 738.563 308.68C739.739 313.661 739.616 317.72 739.602 317.897C739.472 319.127 740.354 323.473 739.336 327.661Z" fill="#F8A492"/>
<path d="M654.182 376.829C654.182 376.829 661.124 369.505 666.713 378.414C666.713 378.414 671.017 375.995 674.037 380.3C674.037 380.3 681.813 377.956 683.699 389.586C683.699 389.586 687.703 388.834 688.229 393.589C688.755 398.345 686.343 401.515 686.343 401.515C686.343 401.515 688.591 403.203 687.573 407.576C686.705 411.293 683.63 411.86 683.63 411.86C683.63 411.86 682.797 418.125 680.084 420.011C677.365 421.897 673.668 420.995 673.668 420.995C673.668 420.995 672.685 424.391 669.514 424.09C666.344 423.789 662.415 420.769 658.869 422.129C655.323 423.489 646.113 422.054 646.113 422.054C646.113 422.054 635.768 417.449 638.863 406.879C638.863 406.879 633.425 401.973 638.187 396.083C638.187 396.083 634.716 386.873 641.583 381.441C648.449 375.996 654.182 376.829 654.182 376.829Z" fill="#07345A"/>
<path d="M702.01 683.599C702.01 683.599 709.574 692.98 711.46 694.135C713.346 695.289 710.619 708.92 705.481 709.815C702.584 710.321 700.978 707.137 700.978 707.137L701.812 703.208L691.003 692.071L702.01 683.599Z" fill="#F7A491"/>
<path d="M663.03 685.914C663.03 685.914 669.337 696.183 671.059 697.57C672.78 698.957 668.332 712.124 663.133 712.356C660.202 712.486 659.013 709.124 659.013 709.124L660.338 705.339L651.039 692.911L663.03 685.914Z" fill="#F7A491"/>
<path d="M670.682 697.168C670.682 697.168 667.061 701.787 665.086 703.625C662.538 705.996 659.265 708.319 659.265 708.319C659.265 708.319 655.562 715.035 654.55 717.379C652.303 722.599 649.768 728.407 650.137 731.331C650.253 732.267 652.357 733.265 654.113 732.725C661.424 730.477 680.111 713.382 682.468 708.797C685.188 703.495 670.682 697.168 670.682 697.168Z" fill="#07345A"/>
<path d="M617.341 540.736C618.017 538.836 618.673 537.08 619.302 535.427C627.077 537.121 635.857 538.987 644.89 540.913L645.99 574.017C645.983 571.462 639.198 626.819 639.198 626.819C639.198 626.819 656.751 665.676 668.749 688.326C663.823 694.476 661.513 696.457 654.373 700.646C635.741 678.31 611.355 637.437 610.344 630.639C609.763 626.724 609.237 563.529 617.341 540.736Z" fill="white"/>
<path d="M686.719 550.308C684.341 576.101 679.066 625.419 679.504 629.388C680.829 634.335 704.32 679.97 708.549 686.611C705.194 691.667 699.994 697.133 694.405 698.643C693.305 698.944 654.537 643.778 652.426 639.398C650.035 634.451 646.058 607.449 645.983 574.024L644.883 540.92C659.935 544.118 673.771 547.267 686.719 550.308Z" fill="white"/>
<path d="M637.305 432.719L655.015 435.151C655.015 435.151 669.213 435.5 670.969 435.5C672.725 435.5 683.849 500.115 687.074 524.433C690.292 548.75 687.798 553.054 687.798 553.054C687.798 553.054 665.339 558.104 648.722 556.635C631.443 555.104 612.004 545.778 612.004 545.778C612.004 545.778 626.776 499.05 629.7 484.455C632.632 469.861 637.305 432.719 637.305 432.719Z" fill="#7B64F3"/>
<path d="M594.356 354.445C594.356 354.445 593.221 402.621 595.032 406.304C597.676 411.661 627.419 449.677 627.419 449.677C627.419 449.677 613.207 509.141 607.235 529.673C606.634 531.743 603.969 545.101 603.969 546.399C603.969 549.289 616.541 552.952 618.031 552.733C619.363 552.535 630.336 495.975 637.333 468.303C639.704 458.922 643.776 450.06 649.344 442.148L654.216 435.226L616.848 397.77C616.848 397.77 612.243 356.078 612.243 352.627C612.243 351.725 596.166 351.049 594.356 354.445Z" fill="#13375B"/>
<path d="M670.334 435.412L716.932 387.932C716.932 387.932 723.423 343.035 723.887 341.341C724.338 339.68 735.913 338.778 740.58 338.327C742.076 338.184 739.794 386.149 737.566 394.191C734.929 403.688 699.707 446.966 699.707 446.966C699.707 446.966 693.394 470.408 694.917 487.599C697.445 516.159 704.251 555.44 703.028 556.67C695.457 561.439 666.391 561.951 664.553 558.986C644.233 526.278 670.334 435.412 670.334 435.412Z" fill="#13375B"/>
<path d="M655.357 426.543L654.1 435.869C654.1 435.869 651.285 449.309 654.906 451.898C658.528 454.488 670.314 435.486 670.314 435.486L669.07 411.853L655.357 426.543Z" fill="#F7A491"/>
<path d="M669.473 419.512C666.48 427.574 659.354 432.528 654.291 434.448L655.357 426.543L669.07 411.853L669.473 419.512Z" fill="#F47458"/>
<path d="M688.351 395.789C688.351 399.39 686.301 402.307 683.78 402.307C681.259 402.307 679.209 399.39 679.209 395.789C679.209 392.188 681.259 389.271 683.78 389.271C686.301 389.271 688.351 392.188 688.351 395.789Z" fill="#07345A"/>
<path d="M669.076 385.527C672.148 385.527 674.638 383.85 674.638 381.782C674.638 379.714 672.148 378.038 669.076 378.038C666.005 378.038 663.515 379.714 663.515 381.782C663.515 383.85 666.005 385.527 669.076 385.527Z" fill="#07345A"/>
<path d="M660.7 387.022C653.348 384.494 645.511 389.373 644.383 396.957C643.898 400.25 643.454 404.398 643.372 408.921C643.174 419.812 648.811 430.416 653.758 430.416C658.705 430.416 672.377 423.365 672.869 407.896C673.183 398.351 668.414 389.68 660.7 387.022Z" fill="#F7A491"/>
<path d="M669.228 409.127C669.228 411.532 670.82 413.479 672.787 413.479C674.755 413.479 676.347 411.532 676.347 409.127C676.347 406.722 674.755 404.774 672.787 404.774C670.82 404.774 669.228 406.722 669.228 409.127Z" fill="#F7A491"/>
<path d="M639.266 381.605C634.155 385.65 632.365 391.806 635.269 395.345C638.173 398.885 644.664 398.475 649.774 394.423C654.885 390.378 656.675 384.222 653.772 380.683C650.868 377.143 644.377 377.553 639.266 381.605Z" fill="#07345A"/>
<path d="M657.373 388.102C659.992 388.102 662.114 386.677 662.114 384.918C662.114 383.16 659.992 381.734 657.373 381.734C654.754 381.734 652.631 383.16 652.631 384.918C652.631 386.677 654.754 388.102 657.373 388.102Z" fill="#07345A"/>
<path d="M638.508 398.461C638.508 400.722 640.318 402.554 642.559 402.554C644.794 402.554 646.611 400.722 646.611 398.461C646.611 396.199 644.801 394.368 642.559 394.368C640.318 394.361 638.508 396.199 638.508 398.461Z" fill="#07345A"/>
<path d="M711.036 693.778C711.036 693.778 708.037 698.821 706.308 700.898C704.081 703.576 701.136 706.296 701.136 706.296C701.136 706.296 698.321 713.429 697.617 715.882C696.052 721.348 694.283 727.934 695.014 730.79C695.253 731.706 697.262 733.455 698.922 732.369C705.331 728.194 722.453 708.653 724.202 703.795C726.232 698.206 711.036 693.778 711.036 693.778Z" fill="#07345A"/>
<path d="M822.642 522.784C822.642 522.784 802.205 525.934 787.112 540.986C772.019 556.038 763 580.212 763 580.212L793.911 589.224C793.911 589.231 781.557 560.404 822.642 522.784Z" fill="#2A6AF9"/>
<path d="M828.299 537.611L826.085 520.202L810.486 512.16C808.71 511.244 808.757 508.689 810.561 507.835L826.433 500.346L829.262 483.026C829.583 481.051 832.029 480.306 833.396 481.762L845.421 494.545L862.769 491.888C864.744 491.587 866.213 493.678 865.249 495.434L856.811 510.821L864.703 526.495C865.598 528.278 864.06 530.321 862.099 529.945L844.854 526.672L832.384 539.019C830.97 540.426 828.551 539.593 828.299 537.611Z" fill="#2A6AF9"/>
<path d="M1038.82 506.247L1043.6 498.171L1039.66 489.658C1039.21 488.688 1040.07 487.622 1041.12 487.861L1050.27 489.911L1057.15 483.529C1057.94 482.805 1059.22 483.29 1059.31 484.356L1060.19 493.696L1068.38 498.267C1069.32 498.786 1069.25 500.153 1068.27 500.576L1059.66 504.3L1057.84 513.504C1057.64 514.549 1056.32 514.911 1055.61 514.105L1049.4 507.067L1040.09 508.188C1039.02 508.311 1038.28 507.163 1038.82 506.247Z" fill="#466EB6"/>
<path d="M577.58 141.004L583.613 130.817L578.639 120.076C578.072 118.853 579.158 117.507 580.47 117.808L592.024 120.397L600.701 112.348C601.692 111.433 603.298 112.048 603.428 113.387L604.535 125.173L614.872 130.94C616.047 131.596 615.965 133.318 614.722 133.857L603.858 138.551L601.569 150.167C601.309 151.492 599.642 151.936 598.754 150.925L590.931 142.043L579.179 143.45C577.84 143.608 576.897 142.166 577.58 141.004Z" fill="#F79C8D"/>
<path d="M1020.23 166.306L1004.3 176.93L1013.2 192.392L997.982 203.557L1004.67 219.381L994.641 229.596L999.813 234.673L1013.23 221.007L1006.89 206.01L1022.73 194.401L1013.97 179.199L1028.4 169.565L1020.23 166.306Z" fill="url(#paint20_linear)"/>
<path d="M1044.69 422.446L1033.42 406.963L1018.34 416.495L1006.56 401.729L991.026 409.054L980.408 399.454L975.55 404.825L989.741 417.67L1004.47 410.728L1016.72 426.081L1031.56 416.713L1041.76 430.741L1044.69 422.446Z" fill="#7B64F3"/>
<path d="M516.729 101.827L520.555 83.0711L503.344 78.3635L506.295 59.7173L490.403 53.1854L490.327 38.8711L483.085 38.9121L483.181 58.057L498.24 64.2405L495.172 83.6382L512.096 88.2707L508.632 105.27L516.729 101.827Z" fill="#2A6AF9"/>
<path d="M367.86 126.779L375.15 140.39L390.872 139.508L397.957 155.34L414.41 149.238L423.217 166.791L439.062 163.047L450.295 178.55L444.432 182.8L436.028 171.212L419.309 175.161L410.843 158.291L394.117 164.495L386.294 147.017L370.941 147.878L364.19 135.265L354.222 137.937L352.35 130.94L367.86 126.779Z" fill="url(#paint21_linear)"/>
<path d="M315.858 286.564L307.232 294.412L293.072 281.934L279.047 291.858L266.92 284.25L263.063 290.386L279.287 300.564L292.575 291.16L307.31 304.14L320.288 292.33L315.858 286.564Z" fill="#7B64F3"/>
<path d="M500.847 519L496.508 529.823L478.32 524.76L470.018 539.798L455.793 538.234L455 545.442L474.029 547.533L481.893 533.273L500.813 538.541L507.351 522.259L500.847 519Z" fill="#2A6AF9"/>
<path d="M451.661 628.989C464.534 641.336 464.964 661.786 452.611 674.658C440.264 687.531 419.814 687.961 406.942 675.608C394.069 663.262 393.639 642.812 405.992 629.939C418.338 617.066 438.788 616.643 451.661 628.989Z" fill="#6274A6"/>
<path d="M450.958 655.991L437.217 660.214L432.906 673.934C432.558 675.041 431.089 675.273 430.419 674.316L422.152 662.551L407.776 662.687C406.614 662.701 405.945 661.375 406.642 660.446L415.278 648.947L410.707 635.316C410.338 634.216 411.39 633.17 412.49 633.546L426.094 638.206L437.648 629.645C438.584 628.955 439.903 629.631 439.882 630.793L439.65 645.168L451.361 653.504C452.304 654.188 452.065 655.65 450.958 655.991Z" fill="#0B0430"/>
<path d="M1153.81 367.061C1166.68 379.407 1167.11 399.857 1154.76 412.73C1142.41 425.602 1121.96 426.033 1109.09 413.679C1096.21 401.333 1095.78 380.883 1108.14 368.01C1120.49 355.138 1140.93 354.714 1153.81 367.061Z" fill="#6274A6"/>
<path d="M1153.09 394.063L1139.35 398.285L1135.04 412.005C1134.69 413.112 1133.22 413.344 1132.56 412.388L1124.29 400.622L1109.91 400.759C1108.75 400.772 1108.08 399.447 1108.78 398.517L1117.41 387.018L1112.84 373.387C1112.47 372.287 1113.53 371.242 1114.63 371.618L1128.23 376.277L1139.78 367.716C1140.71 367.026 1142.03 367.702 1142.01 368.864L1141.78 383.24L1153.49 391.582C1154.45 392.252 1154.21 393.721 1153.09 394.063Z" fill="#0B0430"/>
<path d="M1008.04 326.537L1013.68 335.918C1014.29 336.936 1015.81 336.806 1016.24 335.706L1020.25 325.519L1030.91 323.046C1032.07 322.779 1032.42 321.303 1031.5 320.545L1023.05 313.582L1023.99 302.678C1024.1 301.496 1022.8 300.71 1021.8 301.345L1012.57 307.228L1002.48 302.958C1001.39 302.493 1000.24 303.484 1000.54 304.632L1003.29 315.229L996.116 323.497C995.337 324.392 995.925 325.792 997.107 325.861L1008.04 326.537Z" fill="url(#paint22_linear)"/>
<path d="M314.178 419.546C314.178 423.16 311.007 426.091 307.092 426.091C303.177 426.091 300 423.16 300 419.546C300 415.931 303.17 413 307.092 413C311 413 314.178 415.931 314.178 419.546Z" fill="#E5E5E5"/>
<defs>
<linearGradient id="paint0_linear" x1="1044.02" y1="592.435" x2="931.302" y2="673.194" gradientUnits="userSpaceOnUse">
<stop offset="0.0354" stop-color="#9F19AB"/>
<stop offset="0.2438" stop-color="#AE25B1"/>
<stop offset="0.6455" stop-color="#D744BF"/>
<stop offset="1" stop-color="#FF63CE"/>
</linearGradient>
<linearGradient id="paint1_linear" x1="995.714" y1="707.455" x2="1072.24" y2="746.117" gradientUnits="userSpaceOnUse">
<stop offset="0.0354" stop-color="#9F19AB"/>
<stop offset="0.2438" stop-color="#AE25B1"/>
<stop offset="0.6455" stop-color="#D744BF"/>
<stop offset="1" stop-color="#FF63CE"/>
</linearGradient>
<linearGradient id="paint2_linear" x1="238.481" y1="831.526" x2="346.608" y2="777.334" gradientUnits="userSpaceOnUse">
<stop stop-color="#EF5D4F"/>
<stop offset="1" stop-color="#F29C62"/>
</linearGradient>
<linearGradient id="paint3_linear" x1="258.907" y1="927.816" x2="391.249" y2="839.847" gradientUnits="userSpaceOnUse">
<stop stop-color="#EF5D4F"/>
<stop offset="1" stop-color="#F29C62"/>
</linearGradient>
<linearGradient id="paint4_linear" x1="322.992" y1="610.77" x2="319.251" y2="620.144" gradientUnits="userSpaceOnUse">
<stop offset="0.0354" stop-color="#9F19AB"/>
<stop offset="0.2438" stop-color="#AE25B1"/>
<stop offset="0.6455" stop-color="#D744BF"/>
<stop offset="1" stop-color="#FF63CE"/>
</linearGradient>
<linearGradient id="paint5_linear" x1="359.692" y1="363.734" x2="217.268" y2="509.395" gradientUnits="userSpaceOnUse">
<stop offset="0.0354" stop-color="#9F19AB"/>
<stop offset="0.2438" stop-color="#AE25B1"/>
<stop offset="0.6455" stop-color="#D744BF"/>
<stop offset="1" stop-color="#FF63CE"/>
</linearGradient>
<linearGradient id="paint6_linear" x1="776.365" y1="496.039" x2="998.842" y2="359.272" gradientUnits="userSpaceOnUse">
<stop stop-color="#EF5D4F"/>
<stop offset="1" stop-color="#F29C62"/>
</linearGradient>
<linearGradient id="paint7_linear" x1="356.106" y1="496.039" x2="578.583" y2="359.272" gradientUnits="userSpaceOnUse">
<stop stop-color="#EF5D4F"/>
<stop offset="1" stop-color="#F29C62"/>
</linearGradient>
<linearGradient id="paint8_linear" x1="439.47" y1="535.694" x2="721.865" y2="139.912" gradientUnits="userSpaceOnUse">
<stop stop-color="#EF5D4F"/>
<stop offset="1" stop-color="#F29C62"/>
</linearGradient>
<linearGradient id="paint9_linear" x1="433.053" y1="249.018" x2="435.98" y2="198.756" gradientUnits="userSpaceOnUse">
<stop stop-color="#EF5D4F"/>
<stop offset="1" stop-color="#F29C62"/>
</linearGradient>
<linearGradient id="paint10_linear" x1="572.84" y1="605.81" x2="731.367" y2="464.209" gradientUnits="userSpaceOnUse">
<stop stop-color="#EF5D4F"/>
<stop offset="1" stop-color="#F29C62"/>
</linearGradient>
<linearGradient id="paint11_linear" x1="572.84" y1="747.846" x2="731.369" y2="606.238" gradientUnits="userSpaceOnUse">
<stop stop-color="#EF5D4F"/>
<stop offset="1" stop-color="#F29C62"/>
</linearGradient>
<linearGradient id="paint12_linear" x1="567.691" y1="598.91" x2="585.877" y2="527.92" gradientUnits="userSpaceOnUse">
<stop stop-color="#EF5D4F"/>
<stop offset="1" stop-color="#F29C62"/>
</linearGradient>
<linearGradient id="paint13_linear" x1="557.92" y1="709.959" x2="587.355" y2="614.862" gradientUnits="userSpaceOnUse">
<stop stop-color="#EF5D4F"/>
<stop offset="1" stop-color="#F29C62"/>
</linearGradient>
<linearGradient id="paint14_linear" x1="504.381" y1="742.885" x2="521" y2="647.928" gradientUnits="userSpaceOnUse">
<stop stop-color="#EF5D4F"/>
<stop offset="1" stop-color="#F29C62"/>
</linearGradient>
<linearGradient id="paint15_linear" x1="541.648" y1="742.894" x2="576.549" y2="728.263" gradientUnits="userSpaceOnUse">
<stop stop-color="#EF5D4F"/>
<stop offset="1" stop-color="#F29C62"/>
</linearGradient>
<linearGradient id="paint16_linear" x1="524.299" y1="742.894" x2="559.209" y2="728.255" gradientUnits="userSpaceOnUse">
<stop stop-color="#EF5D4F"/>
<stop offset="1" stop-color="#F29C62"/>
</linearGradient>
<linearGradient id="paint17_linear" x1="557.048" y1="742.894" x2="591.958" y2="728.255" gradientUnits="userSpaceOnUse">
<stop stop-color="#EF5D4F"/>
<stop offset="1" stop-color="#F29C62"/>
</linearGradient>
<linearGradient id="paint18_linear" x1="423.491" y1="1014.86" x2="433.602" y2="918.047" gradientUnits="userSpaceOnUse">
<stop stop-color="#EF5D4F"/>
<stop offset="1" stop-color="#F29C62"/>
</linearGradient>
<linearGradient id="paint19_linear" x1="525.595" y1="474.023" x2="545.165" y2="379.169" gradientUnits="userSpaceOnUse">
<stop stop-color="#EF5D4F"/>
<stop offset="1" stop-color="#F29C62"/>
</linearGradient>
<linearGradient id="paint20_linear" x1="1028.22" y1="89.7392" x2="960.271" y2="126.953" gradientUnits="userSpaceOnUse">
<stop offset="0.0354" stop-color="#9F19AB"/>
<stop offset="0.2438" stop-color="#AE25B1"/>
<stop offset="0.6455" stop-color="#D744BF"/>
<stop offset="1" stop-color="#FF63CE"/>
</linearGradient>
<linearGradient id="paint21_linear" x1="449.766" y1="64.0401" x2="395.932" y2="168.431" gradientUnits="userSpaceOnUse">
<stop offset="0.0354" stop-color="#9F19AB"/>
<stop offset="0.2438" stop-color="#AE25B1"/>
<stop offset="0.6455" stop-color="#D744BF"/>
<stop offset="1" stop-color="#FF63CE"/>
</linearGradient>
<linearGradient id="paint22_linear" x1="997.079" y1="350.437" x2="1043.61" y2="317.468" gradientUnits="userSpaceOnUse">
<stop stop-color="#EF5D4F"/>
<stop offset="1" stop-color="#F29C62"/>
</linearGradient>
</defs>
</svg>
