<svg width="810" height="696" viewBox="0 0 810 696" fill="none" xmlns="http://www.w3.org/2000/svg">
<path d="M113.313 506.43C-41.3953 439.818 -24.6928 253.824 85.3133 196.43C131.313 172.43 138.31 151.8 131.313 124.43C125.515 68.8283 174 51.5457 213.313 54.4302C371 66 345 17.4219 425.308 4.43066C561.302 -17.569 727.308 44.4301 695.314 144.43C676.941 176.156 681.164 191.429 713.314 214.43C809.308 268.43 831.308 356.43 789.314 420.43C761.739 444.398 760.883 459.989 777.314 490.43C803.308 532.43 789.314 632.43 667.314 632.43C623.308 634.43 516.206 613.724 409.313 672.43C277.308 736.43 155.313 656.43 155.313 586.43C155.313 528.43 147.005 522.794 113.313 506.43Z" fill="url(#paint0_linear)"/>
<defs>
<linearGradient id="paint0_linear" x1="404.821" y1="0" x2="404.821" y2="695.855" gradientUnits="userSpaceOnUse">
<stop stop-color="#231E4E"/>
<stop offset="1" stop-color="#0A0430"/>
</linearGradient>
</defs>
</svg>
