<svg width="121" height="105" viewBox="0 0 121 105" fill="none" xmlns="http://www.w3.org/2000/svg">
<path d="M119.7 6.8L118 5.1L117.8 4.9C117.3 4.6 116.9 4.4 116.3 4.3C116.2 3.8 115.9 3.3 115.6 2.8L114 1.1L113.8 0.9C112.9 0.3 111.8 0 110.8 0H5.8C4.7 0 3.7 0.3 2.7 0.9L1.1 2.5L0.9 2.7C0.3 3.6 0 4.7 0 5.8V73.8C0 74.9 0.3 75.9 0.9 76.8L2.5 78.5L2.8 78.7C3.3 79 3.8 79.2 4.3 79.4C4.4 79.9 4.7 80.4 4.9 80.8L6.5 82.5L6.8 82.7C7.7 83.3 8.8 83.6 9.9 83.6H45.7V91.3H33C32.2 91.3 31.5 91.8 31.1 92.8C30.7 93.6 30.6 94.8 30.6 96.1C30.6 97.4 30.8 98.6 31.1 99.4C31.5 100.4 32.2 100.9 33 100.9H34.6C34.7 101.8 34.8 102.7 35.1 103.3C35.6 104.6 36.4 104.8 37 104.8C37 104.8 37 104.8 37.1 104.8H87.5C88 104.8 88.8 104.6 89.4 103.2C89.8 102.4 89.9 101.2 89.9 99.9C89.9 98.6 89.7 97.4 89.4 96.6C88.8 95.2 88 95 87.5 95H86C85.9 94.1 85.8 93.2 85.5 92.6C85 91.3 84.2 91 83.6 91H75.9V83.3H114.8C115.9 83.3 116.9 83 117.8 82.4L119.5 80.8L119.7 80.5C120.3 79.6 120.6 78.5 120.6 77.4V9.4C120.6 8.7 120.3 7.7 119.7 6.8ZM83.1 93.8C83.2 94.2 83.4 94.7 83.4 95.3C83.4 95.6 83.4 95.9 83.4 96.2C83.4 96.4 83.4 96.6 83.4 96.8C83.4 97.4 83.3 97.9 83.1 98.3C83.1 98.4 83.1 98.5 83 98.5H37.8H36.3H34.8H33.5C33.3 98 33.1 97.1 33.1 96.2C33.1 95.3 33.2 94.4 33.5 93.9H48.2V83.6V82.1V80.6V77.1H7H5.8C5.7 77.1 5.6 77.1 5.5 77.1C5 77.1 4.6 76.9 4.2 76.7L4 76.5L2.9 75.4C2.6 74.9 2.5 74.4 2.5 73.8V5.8C2.5 5.2 2.7 4.7 2.9 4.1L4.2 3C4.7 2.7 5.2 2.5 5.8 2.6H110.8C111.4 2.6 111.9 2.7 112.4 3L113.5 4L113.7 4.2C113.9 4.6 114 5.1 114.1 5.5C114.1 5.6 114.1 5.7 114.1 5.8V7V73.8C114.1 74.4 113.9 74.9 113.7 75.4L112.5 76.6C112 76.9 111.4 77 110.9 77H69.4V93.7H72.9H74.4H75.9L83.1 93.8Z" fill="url(#paint0_linear)"/>
<path d="M110 61.5V13.5C110 10.5 107.6 8 104.6 8H12.4C9.4 8 7 10.5 7 13.5V61.6C7 64.6 9.4 67.1 12.4 67.1H104.7C107.6 67 110 64.5 110 61.5Z" fill="url(#paint1_linear)"/>
<path d="M58.3004 69C56.2004 69 54.4004 70.7 54.4004 72.9C54.4004 75.1 56.1004 76.8 58.3004 76.8C60.5004 76.8 62.2004 75.1 62.2004 72.9C62.2004 70.7 60.4004 69 58.3004 69Z" fill="url(#paint2_linear)"/>
<path d="M83.6 28.4C83.4 28 83 27.7 82.6 27.5L61.9 16.6C61.1 16.2 60.2 16 59.3 16C58.4 16 57.5 16.2 56.7 16.6L35.9 27.5C35.5 27.7 35.1 28 34.9 28.4C34.7 28.8 34.5 29.2 34.5 29.7C34.5 30.2 34.6 30.6 34.9 31C35.1 31.4 35.5 31.7 35.9 31.9L56.7 44.3C57.5 44.8 59.3 45.1 59.3 45.1C59.3 45.1 61.1 44.8 61.9 44.3L82.7 31.9C83.1 31.7 83.5 31.4 83.7 31C84 30.6 84.1 30.2 84.1 29.7C84 29.2 83.9 28.8 83.6 28.4Z" fill="url(#paint3_linear)"/>
<path d="M59.6 47.4C57.8 47.4 56 47 54.4 46.3L42.5 39V47.7L54.4 54.3C55.9 55.4 57.7 55.9 59.6 55.9C61.5 55.9 63.3 55.3 64.8 54.3L76.7 47.7V39L64.8 46.3C63.2 47.1 61.4 47.4 59.6 47.4Z" fill="url(#paint4_linear)"/>
<path d="M38.8002 44.8004V36.1004L34.4002 33.9004V44.8004C32.2002 46.3004 32.2002 50.6004 36.6002 50.6004C41.1002 50.7004 41.1002 46.3004 38.8002 44.8004Z" fill="url(#paint5_linear)"/>
<defs>
<linearGradient id="paint0_linear" x1="60.3" y1="0" x2="60.3" y2="104.8" gradientUnits="userSpaceOnUse">
<stop stop-color="#231E4E"/>
<stop offset="1" stop-color="#0A0430"/>
</linearGradient>
<linearGradient id="paint1_linear" x1="58.5" y1="8" x2="58.5" y2="67.1" gradientUnits="userSpaceOnUse">
<stop stop-color="#231E4E"/>
<stop offset="1" stop-color="#0A0430"/>
</linearGradient>
<linearGradient id="paint2_linear" x1="58.3004" y1="69" x2="58.3004" y2="76.8" gradientUnits="userSpaceOnUse">
<stop stop-color="#231E4E"/>
<stop offset="1" stop-color="#0A0430"/>
</linearGradient>
<linearGradient id="paint3_linear" x1="36.3" y1="56.4355" x2="76.176" y2="9.29683" gradientUnits="userSpaceOnUse">
<stop stop-color="#EF5D4F"/>
<stop offset="1" stop-color="#F29C62"/>
</linearGradient>
<linearGradient id="paint4_linear" x1="43.7411" y1="62.4831" x2="65.9368" y2="31.3312" gradientUnits="userSpaceOnUse">
<stop stop-color="#EF5D4F"/>
<stop offset="1" stop-color="#F29C62"/>
</linearGradient>
<linearGradient id="paint5_linear" x1="33.2223" y1="57.1079" x2="46.2006" y2="53.1398" gradientUnits="userSpaceOnUse">
<stop stop-color="#EF5D4F"/>
<stop offset="1" stop-color="#F29C62"/>
</linearGradient>
</defs>
</svg>
