<svg width="923" height="481" viewBox="0 0 923 481" fill="none" xmlns="http://www.w3.org/2000/svg">
<path d="M57.8372 480.799C57.8372 480.799 -42.6986 395.55 21.3284 295.299C85.3555 195.051 171.266 245.498 167.158 128.795C163.049 12.0946 364.843 2.12619 429.059 35.9824C493.275 69.8387 498.937 91.6439 631.542 78.1963C764.147 64.7487 825.814 164.08 782.236 233.002C731.335 313.503 884.662 321.305 768.158 481L57.8372 480.799Z" fill="url(#paint0_linear)"/>
<path d="M665.175 125.212V421.725C665.175 426.914 661.429 431.122 656.812 431.122H229.007C224.391 431.122 220.645 426.914 220.645 421.725V125.212C220.645 120.02 224.391 115.815 229.007 115.815H656.812C661.432 115.815 665.175 120.02 665.175 125.212Z" fill="white"/>
<path d="M665.174 124.178V146.567H220.646V124.178C220.646 119.559 224.393 115.815 229.009 115.815H656.814C661.43 115.815 665.174 119.556 665.174 124.178Z" fill="#2A6AF9"/>
<path d="M234.246 131.194C234.246 129.044 235.99 127.3 238.14 127.3C240.29 127.3 242.034 129.044 242.034 131.194C242.034 133.344 240.29 135.088 238.14 135.088C235.987 135.088 234.246 133.344 234.246 131.194Z" fill="#DFEBFD"/>
<path d="M249.586 131.192C249.586 129.042 251.33 127.298 253.48 127.298C255.63 127.298 257.374 129.042 257.374 131.192C257.374 133.342 255.63 135.086 253.48 135.086C251.33 135.086 249.586 133.342 249.586 131.192Z" fill="#DFEBFD"/>
<path d="M265.311 131.192C265.311 129.042 267.055 127.298 269.204 127.298C271.354 127.298 273.098 129.042 273.098 131.192C273.098 133.342 271.354 135.086 269.204 135.086C267.055 135.086 265.311 133.342 265.311 131.192Z" fill="#DFEBFD"/>
<path d="M506.721 338.811H459.838V385.694H506.721V338.811Z" fill="#EBF3FA"/>
<path d="M463.355 380.338L477.202 355.369L487.386 369.259L492.47 363.701L503.245 380.338H463.355Z" fill="url(#paint1_linear)"/>
<path d="M483.801 351.786C483.801 349.808 485.406 348.203 487.384 348.203C489.365 348.203 490.967 349.808 490.967 351.786C490.967 353.767 489.362 355.369 487.384 355.369C485.406 355.369 483.801 353.767 483.801 351.786Z" fill="url(#paint2_linear)"/>
<path d="M576.734 252.987H459.838V320.742H576.734V252.987Z" fill="#EBF3FA"/>
<path d="M505.09 269.507V304.22L531.47 286.864L505.09 269.507Z" fill="#2A6AF9"/>
<path d="M630.214 202.54C630.214 210.186 627.163 217.134 622.236 222.175C617.314 227.216 610.529 230.341 603.061 230.341H286.728C270.583 230.341 257.373 217.829 257.373 202.54C257.373 194.893 260.673 187.945 265.997 182.907C271.315 177.866 278.657 174.741 286.728 174.741H603.064C617.997 174.741 630.214 187.25 630.214 202.54Z" fill="#EBF3FA"/>
<path d="M630.212 202.54C630.212 210.186 627.16 217.134 622.233 222.175C617.312 227.216 610.527 230.341 603.059 230.341H545.816V174.741H603.059C617.995 174.741 630.212 187.25 630.212 202.54Z" fill="url(#paint3_linear)"/>
<path d="M576.28 212.646C576.985 212.646 577.692 212.594 578.402 212.49C582.146 211.93 585.446 209.949 587.697 206.907C592.345 200.626 591.019 191.738 584.742 187.09C578.461 182.443 569.572 183.768 564.925 190.049C560.277 196.33 561.603 205.218 567.883 209.866C570.344 211.687 573.269 212.646 576.28 212.646ZM583.351 188.963C588.595 192.845 589.706 200.273 585.821 205.517C583.939 208.057 581.183 209.715 578.055 210.18C574.93 210.644 571.808 209.866 569.267 207.987C564.023 204.105 562.913 196.677 566.798 191.433C570.679 186.189 578.107 185.082 583.351 188.963Z" fill="white"/>
<path d="M586.096 207.157L587.484 205.28L603.028 216.784L601.639 218.66L586.096 207.157Z" fill="white"/>
<path d="M607.702 221.714C608.388 220.788 608.191 219.484 607.265 218.798L598.112 212.022C597.186 211.336 595.882 211.533 595.196 212.456C594.51 213.382 594.707 214.686 595.63 215.372L604.783 222.148C605.712 222.833 607.016 222.64 607.702 221.714Z" fill="white"/>
<path d="M620.458 166.438C621.055 167.121 621.132 167.887 620.836 168.702C620.836 168.705 620.833 168.711 620.83 168.715C620.286 170.225 618.48 171.91 616.383 173.596C616.115 173.811 615.875 174.008 615.669 174.192C615.614 174.242 615.562 174.288 615.509 174.337C615.466 174.374 615.426 174.414 615.386 174.448C613.433 176.25 614.168 176.662 610.656 180.322C606.651 184.49 603.895 184.567 603.111 184.189C602.447 183.866 603.794 181.654 605.289 179.169C605.362 179.049 605.433 178.929 605.507 178.806C605.707 178.477 605.904 178.142 606.101 177.809C607.851 174.82 607.402 173.417 606.983 168.967C606.645 165.353 601.352 148.771 601.352 148.771L609.026 147.446C609.026 147.446 611.342 160.65 613.888 162.683C615.251 163.766 616.773 163.781 618.084 164.584C618.176 164.639 618.268 164.698 618.357 164.756C619.102 165.245 619.861 165.753 620.458 166.438Z" fill="#FFB27D"/>
<path d="M620.458 166.437C621.055 167.12 621.132 167.886 620.836 168.701C620.836 168.704 620.833 168.71 620.83 168.713C620.163 170.22 618.404 171.9 616.377 173.579C616.112 173.801 615.878 174.001 615.669 174.191C615.614 174.24 615.562 174.287 615.509 174.336C615.466 174.373 615.426 174.413 615.386 174.447C613.433 176.249 614.168 176.661 610.656 180.321C606.651 184.489 603.895 184.566 603.111 184.187C602.447 183.864 603.794 181.653 605.289 179.168C606.067 178.882 609.69 177.408 612.427 173.905C614.75 170.94 616.327 167.16 617.908 164.838C618.084 164.804 618.185 164.786 618.361 164.755C619.102 165.244 619.861 165.751 620.458 166.437Z" fill="#233862"/>
<path d="M558.569 161.664C558.096 164.032 554.718 163.638 550.945 162.719C547.171 161.799 548.069 162.894 542.698 162.3C537.328 161.707 535.701 159.707 535.538 158.908C535.391 158.2 538.045 157.948 540.89 157.619C541.247 157.579 541.607 157.533 541.966 157.49C545.181 157.087 547.53 155.011 550.449 153.307C553.214 151.692 557.336 145.119 557.336 145.119L564.699 145.7C564.699 145.7 560.836 151.572 559.344 154.125C558.465 155.626 558.514 157.61 558.625 159.144C558.68 159.978 558.735 160.83 558.569 161.664Z" fill="#FFB27D"/>
<path d="M550.945 162.719C547.171 161.799 548.069 162.894 542.699 162.3C537.329 161.707 535.702 159.708 535.539 158.908C535.391 158.2 538.045 157.948 540.89 157.619L540.918 157.675C540.918 157.675 544.138 159.957 548.607 160.061C552.249 160.147 556.109 159.105 558.625 159.145C558.684 159.978 558.736 160.83 558.57 161.664C558.096 164.035 554.719 163.641 550.945 162.719Z" fill="#233862"/>
<path d="M586.772 114.568L593.662 133.09L602.659 157.274C602.659 157.274 605.098 157.508 607.432 156.838C609.582 156.216 612.049 154.589 612.049 154.589C612.049 154.589 609.545 128.621 604.882 113.713C603.689 109.886 602.351 106.792 600.875 105.051C593.656 96.5224 586.772 114.568 586.772 114.568Z" fill="url(#paint4_linear)"/>
<path d="M593.767 85.146C597.685 83.8818 607.909 85.1213 619 87.1236C622.063 87.6773 625.152 86.2778 626.766 83.6142L654.676 81.4243C654.676 81.4243 663.893 101.844 658.855 114.861C658.114 116.774 656.49 117.967 653.98 118.01C653.98 118.01 637.116 118.041 631.721 118.041C617.84 118.047 602.345 108.509 600.34 108.109C597.058 107.454 595.747 114.018 592.469 120.908C589.19 127.797 561.641 151.431 561.641 151.431C561.641 151.431 557.405 151.474 555.655 150.819C553.773 150.115 553.084 149.198 553.084 149.198C553.084 149.198 583.598 88.4308 593.767 85.146Z" fill="url(#paint5_linear)"/>
<path d="M629.699 1.65786C631.772 0.424487 633.79 0.233795 635.029 0.267628C635.891 0.292234 636.752 0.236868 637.604 0.110763C648.255 -1.45479 654.674 14.0162 655.052 18.6913C655.744 27.2757 660.287 28.5798 666.679 33.9531C679.498 44.7274 675.743 57.2518 668.739 61.9085C664.535 64.7013 657.125 61.9116 657.125 61.9116C657.021 61.9854 636.853 50.6482 626.916 45.1796C612.014 43.0665 623.714 5.22264 629.699 1.65786Z" fill="#7B64F3"/>
<path d="M635.24 40.5199C635.197 40.5476 640.131 42.23 643.428 40.769C646.532 39.3973 648.881 34.2885 648.835 34.2885C647.424 34.2239 645.873 32.9905 644.677 24.8921L644.077 25.1074L633.97 28.7491C633.97 28.7491 634.702 31.9909 635.179 35.0789C635.576 37.6687 635.791 40.1508 635.24 40.5199Z" fill="#FFB27D"/>
<path d="M633.969 28.7455C633.969 28.7455 634.372 30.4956 634.963 33.7651C640.77 32.7194 643.258 28.2442 644.076 25.1069L633.969 28.7455Z" fill="#ED975D"/>
<path d="M632.464 31.9662C632.464 31.9662 646.293 30.1054 645.001 21.5118C643.709 12.9181 644.625 6.8897 635.74 7.714C626.857 8.53829 625.636 12.0754 625.371 15.0496C625.107 18.0208 628.835 32.2276 632.464 31.9662Z" fill="#FFB27D"/>
<path d="M625.878 10.3345C625.878 10.3345 634.733 17.9593 640.755 18.5744C646.778 19.1865 649.057 17.2549 649.057 17.2549C649.057 17.2549 645.507 14.3083 643.37 9.55326C642.739 8.15072 641.407 7.19109 639.879 7.05884C635.576 6.68975 627.425 6.52058 625.878 10.3345Z" fill="#7B64F3"/>
<path d="M631.406 9.65178C631.406 9.65178 628.444 12.5153 627.512 14.6406C626.614 16.6891 626.344 21.5918 627.063 23.5387C627.063 23.5387 622.447 14.5668 625.058 10.2085C627.826 5.58257 631.406 9.65178 631.406 9.65178Z" fill="#7B64F3"/>
<path d="M623.602 60.8961C624.029 88.8915 623.725 83.0414 626.788 85.6958C627.526 86.3355 629.599 86.7169 632.33 86.8953C640.915 87.4613 656.004 86.0433 656.577 84.4563C658.554 78.9661 657.155 77.2621 658.806 68.8561C658.979 67.9611 659.191 66.9953 659.44 65.9403C660.815 60.1672 662.156 58.2048 657.266 48.9315C652.83 40.5347 648.226 33.7189 647.811 33.965C636.123 40.91 635.176 35.0753 635.176 35.0753C635.176 35.0753 623.392 47.2398 623.602 60.8961Z" fill="white"/>
<path d="M593.662 133.09L602.659 157.275C602.659 157.275 605.098 157.508 607.432 156.838C609.582 156.216 612.049 154.589 612.049 154.589C612.049 154.589 609.545 128.621 604.882 113.713L593.662 133.09Z" fill="#39427C"/>
<path d="M635.176 35.0752C635.176 35.0752 623.147 37.1175 621.735 42.3001C620.323 47.4796 615.685 78.9198 615.685 78.9198C615.685 78.9198 619.077 82.2324 621.904 79.4058C624.727 76.5792 630.787 49.9864 630.787 49.9864L635.176 35.0752Z" fill="white"/>
<path d="M632.331 86.896C640.915 87.4619 656.005 86.044 656.577 84.4569C658.554 78.9667 657.155 77.2628 658.807 68.8568L654.664 57.1997C654.664 57.1997 655.353 70.1824 651.526 73.5995C647.703 77.0167 635.852 80.197 633.992 83.0513C633.09 84.42 632.5 85.7918 632.331 86.896Z" fill="#DBDBDB"/>
<path d="M642.162 81.4297C642.162 81.4297 633.692 79.5474 632.326 80.2978C630.96 81.0514 627.62 83.7888 627.205 84.7392C626.786 85.6927 630.247 84.0164 631.372 83.7119C632.101 83.5151 634.021 84.1825 634.971 84.4993C638.969 85.8311 641.418 85.1452 641.418 85.1452L642.162 81.4297Z" fill="#FFB27D"/>
<path d="M647.818 33.9585C647.818 33.9585 659.189 34.6567 663.129 40.1438C668.672 47.8701 679.677 80.8051 673.378 85.2003C666.285 90.1492 641.088 86.5044 641.088 86.5044C641.088 86.5044 640.249 82.5859 641.414 80.6882C642.58 78.7935 661.536 75.7239 662.409 74.8474C663.283 73.9708 651.466 57.7893 651.466 55.1657C651.466 52.5452 647.818 33.9585 647.818 33.9585Z" fill="url(#paint6_linear)"/>
<path d="M631.918 82.6572C631.918 82.6572 630.143 84.9456 629.562 85.2193C628.981 85.4931 628.605 85.4254 628.605 85.4254L629.802 83.2724L631.918 82.6572Z" fill="#FFB27D"/>
<path d="M632.33 80.3013L627.172 82.808C627.172 82.808 627.39 83.1678 628.027 83.1371C628.664 83.1063 630.263 82.5219 630.263 82.5219L632.33 80.3013Z" fill="#FFB27D"/>
<path d="M588.278 86.2035L642.168 86.1851V87.3754L588.758 87.3938L588.278 86.2035Z" fill="url(#paint7_linear)"/>
<path d="M629.568 87.3781L588.759 87.3935L576.472 56.8699L617.219 56.8545L629.568 87.3781Z" fill="url(#paint8_linear)"/>
<path d="M599.054 72.1255C598.747 71.0521 599.365 70.1816 600.438 70.1816C601.512 70.1816 602.631 71.0521 602.939 72.1224C603.246 73.1959 602.625 74.0663 601.555 74.0663C600.481 74.0694 599.362 73.1989 599.054 72.1255Z" fill="white"/>
<path d="M344.457 266.041H270.772C269.237 266.041 267.994 264.799 267.994 263.264V262.095C267.994 260.56 269.237 259.318 270.772 259.318H344.457C345.992 259.318 347.234 260.56 347.234 262.095V263.264C347.234 264.799 345.989 266.041 344.457 266.041Z" fill="url(#paint9_linear)"/>
<path d="M306.648 289.158H270.293C269.025 289.158 267.998 288.131 267.998 286.863C267.998 285.596 269.025 284.569 270.293 284.569H306.648C307.915 284.569 308.942 285.596 308.942 286.863C308.939 288.131 307.912 289.158 306.648 289.158Z" fill="#0B0430"/>
<path d="M334.486 279.538H270.133C268.955 279.538 267.998 278.581 267.998 277.403V277.086C267.998 275.908 268.955 274.952 270.133 274.952H334.486C335.664 274.952 336.621 275.908 336.621 277.086V277.403C336.621 278.581 335.664 279.538 334.486 279.538Z" fill="#0B0430"/>
<path d="M404.894 279.537H344.939C343.801 279.537 342.875 278.614 342.875 277.473V277.012C342.875 275.874 343.798 274.948 344.939 274.948H404.894C406.032 274.948 406.958 275.87 406.958 277.012V277.473C406.955 278.614 406.032 279.537 404.894 279.537Z" fill="#0B0430"/>
<path d="M351.993 289.158H315.638C314.371 289.158 313.344 288.131 313.344 286.864C313.344 285.597 314.371 284.569 315.638 284.569H351.993C353.261 284.569 354.288 285.597 354.288 286.864C354.288 288.131 353.261 289.158 351.993 289.158Z" fill="#0B0430"/>
<path d="M434.184 266.041H360.498C358.963 266.041 357.721 264.799 357.721 263.264V262.095C357.721 260.56 358.963 259.318 360.498 259.318H434.184C435.718 259.318 436.961 260.56 436.961 262.095V263.264C436.958 264.799 435.715 266.041 434.184 266.041Z" fill="url(#paint10_linear)"/>
<path d="M344.457 386.411H270.772C269.237 386.411 267.994 385.168 267.994 383.633V382.464C267.994 380.93 269.237 379.687 270.772 379.687H344.457C345.992 379.687 347.234 380.93 347.234 382.464V383.633C347.234 385.165 345.989 386.411 344.457 386.411Z" fill="url(#paint11_linear)"/>
<path d="M306.648 409.525H270.293C269.025 409.525 267.998 408.497 267.998 407.23C267.998 405.963 269.025 404.936 270.293 404.936H306.648C307.915 404.936 308.942 405.963 308.942 407.23C308.939 408.497 307.912 409.525 306.648 409.525Z" fill="#0B0430"/>
<path d="M334.486 399.905H270.133C268.955 399.905 267.998 398.948 267.998 397.77V397.45C267.998 396.272 268.955 395.316 270.133 395.316H334.486C335.664 395.316 336.621 396.272 336.621 397.45V397.77C336.621 398.948 335.664 399.905 334.486 399.905Z" fill="#0B0430"/>
<path d="M404.894 399.904H344.939C343.801 399.904 342.875 398.981 342.875 397.84V397.379C342.875 396.241 343.798 395.315 344.939 395.315H404.894C406.032 395.315 406.958 396.238 406.958 397.379V397.84C406.955 398.981 406.032 399.904 404.894 399.904Z" fill="#0B0430"/>
<path d="M351.993 409.525H315.638C314.371 409.525 313.344 408.498 313.344 407.231C313.344 405.963 314.371 404.936 315.638 404.936H351.993C353.261 404.936 354.288 405.963 354.288 407.231C354.288 408.498 353.261 409.525 351.993 409.525Z" fill="#0B0430"/>
<path d="M434.184 386.411H360.498C358.963 386.411 357.721 385.168 357.721 383.633V382.464C357.721 380.93 358.963 379.687 360.498 379.687H434.184C435.718 379.687 436.961 380.93 436.961 382.464V383.633C436.958 385.165 435.715 386.411 434.184 386.411Z" fill="url(#paint12_linear)"/>
<path d="M344.457 326.227H270.772C269.237 326.227 267.994 324.984 267.994 323.45V322.281C267.994 320.746 269.237 319.503 270.772 319.503H344.457C345.992 319.503 347.234 320.746 347.234 322.281V323.45C347.234 324.981 345.989 326.227 344.457 326.227Z" fill="url(#paint13_linear)"/>
<path d="M306.648 349.341H270.293C269.025 349.341 267.998 348.314 267.998 347.047C267.998 345.78 269.025 344.752 270.293 344.752H306.648C307.915 344.752 308.942 345.78 308.942 347.047C308.939 348.314 307.912 349.341 306.648 349.341Z" fill="#0B0430"/>
<path d="M334.486 339.721H270.133C268.955 339.721 267.998 338.765 267.998 337.587V337.267C267.998 336.089 268.955 335.132 270.133 335.132H334.486C335.664 335.132 336.621 336.089 336.621 337.267V337.587C336.621 338.765 335.664 339.721 334.486 339.721Z" fill="#0B0430"/>
<path d="M404.894 339.721H344.939C343.801 339.721 342.875 338.798 342.875 337.657V337.196C342.875 336.058 343.798 335.132 344.939 335.132H404.894C406.032 335.132 406.958 336.055 406.958 337.196V337.657C406.955 338.798 406.032 339.721 404.894 339.721Z" fill="#0B0430"/>
<path d="M351.993 349.341H315.638C314.371 349.341 313.344 348.314 313.344 347.047C313.344 345.78 314.371 344.752 315.638 344.752H351.993C353.261 344.752 354.288 345.78 354.288 347.047C354.288 348.314 353.261 349.341 351.993 349.341Z" fill="#0B0430"/>
<path d="M434.184 326.227H360.498C358.963 326.227 357.721 324.984 357.721 323.45V322.281C357.721 320.746 358.963 319.503 360.498 319.503H434.184C435.718 319.503 436.961 320.746 436.961 322.281V323.45C436.958 324.981 435.715 326.227 434.184 326.227Z" fill="url(#paint14_linear)"/>
<path d="M625.292 237.667L608.471 241.579L600.154 256.715L593.803 222.224L625.292 237.667Z" fill="#233862"/>
<path d="M607.518 238.25L605.066 240.108L615.81 254.287L618.261 252.429L607.518 238.25Z" fill="#233862"/>
<path d="M921.879 481L1.12101 480.698C0.505245 480.698 0 480.214 0 479.625V479.073C0 478.484 0.505245 478 1.12101 478L921.879 478.302C922.495 478.302 923 478.786 923 479.375V479.927C923 480.516 922.495 481 921.879 481Z" fill="#2E3552"/>
<path d="M283.781 208.66L284.981 207.236C286.067 208.174 287.152 208.709 288.561 208.709C289.791 208.709 290.569 208.143 290.569 207.251C290.569 206.442 290.117 206.003 288.01 205.501C285.596 204.935 284.236 204.222 284.236 202.099C284.236 200.156 285.857 198.812 288.109 198.812C289.76 198.812 291.074 199.313 292.224 200.236L291.154 201.743C290.133 200.98 289.112 200.577 288.075 200.577C286.909 200.577 286.23 201.177 286.23 201.955C286.23 202.828 286.749 203.219 288.918 203.736C291.314 204.32 292.562 205.178 292.562 207.088C292.562 209.211 290.895 210.475 288.512 210.475C286.78 210.475 285.144 209.875 283.781 208.66Z" fill="#090327"/>
<path d="M294.213 206.036C294.213 203.59 295.945 201.582 298.393 201.582C301.115 201.582 302.49 203.72 302.49 206.183C302.49 206.313 302.474 206.635 302.456 206.734H296.172C296.381 208.127 297.372 208.905 298.633 208.905C299.589 208.905 300.269 208.549 300.949 207.884L302.099 208.905C301.29 209.877 300.171 210.508 298.599 210.508C296.123 210.505 294.213 208.709 294.213 206.036ZM300.546 205.436C300.417 204.172 299.672 203.184 298.374 203.184C297.175 203.184 296.335 204.107 296.157 205.436H300.546Z" fill="#090327"/>
<path d="M309.693 210.311V209.259C309.109 209.958 308.22 210.49 306.922 210.49C305.301 210.49 303.877 209.567 303.877 207.817C303.877 205.922 305.35 205.015 307.343 205.015C308.38 205.015 309.044 205.159 309.709 205.372V205.209C309.709 204.027 308.964 203.378 307.602 203.378C306.645 203.378 305.935 203.588 305.156 203.914L304.621 202.342C305.559 201.921 306.485 201.628 307.878 201.628C310.407 201.628 311.637 202.957 311.637 205.239V210.308H309.693V210.311ZM309.742 206.731C309.241 206.537 308.543 206.39 307.783 206.39C306.553 206.39 305.824 206.891 305.824 207.749C305.824 208.558 306.553 209.013 307.476 209.013C308.77 209.013 309.742 208.284 309.742 207.214V206.731Z" fill="#090327"/>
<path d="M313.971 201.76H315.93V203.689C316.465 202.409 317.452 201.536 318.96 201.601V203.674H318.846C317.13 203.674 315.93 204.79 315.93 207.06V210.314H313.971V201.76Z" fill="#090327"/>
<path d="M319.902 206.051C319.902 203.621 321.782 201.582 324.341 201.582C325.962 201.582 326.964 202.182 327.758 203.055L326.543 204.369C325.943 203.738 325.313 203.298 324.325 203.298C322.901 203.298 321.865 204.529 321.865 206.051C321.865 207.574 322.917 208.804 324.424 208.804C325.346 208.804 326.026 208.367 326.641 207.734L327.822 208.899C326.98 209.837 325.992 210.502 324.322 210.502C321.782 210.505 319.902 208.515 319.902 206.051Z" fill="#090327"/>
<path d="M329.623 198.488H331.582V203.09C332.133 202.281 332.926 201.582 334.255 201.582C336.184 201.582 337.3 202.877 337.3 204.87V210.311H335.341V205.452C335.341 204.123 334.676 203.363 333.511 203.363C332.376 203.363 331.582 204.157 331.582 205.486V210.311H329.623V198.488V198.488Z" fill="#090327"/>
<path d="M339.537 208.094H341.69V210.311H339.537V208.094Z" fill="#090327"/>
<path d="M343.891 208.094H346.044V210.311H343.891V208.094Z" fill="#090327"/>
<path d="M348.248 208.094H350.401V210.311H348.248V208.094Z" fill="#090327"/>
<path d="M352.607 208.094H354.76V210.311H352.607V208.094Z" fill="#090327"/>
<path d="M465.91 314.631C465.91 313.471 466.848 312.533 468.008 312.533C469.167 312.533 470.105 313.471 470.105 314.631C470.105 315.79 469.167 316.729 468.008 316.729C466.851 316.729 465.91 315.787 465.91 314.631Z" fill="#D7E5FF"/>
<path d="M563.465 315.194H468.576C468.265 315.194 468.01 314.942 468.01 314.628C468.01 314.318 468.262 314.062 468.576 314.062H563.465C563.776 314.062 564.031 314.315 564.031 314.628C564.028 314.942 563.776 315.194 563.465 315.194Z" fill="#D7E5FF"/>
<defs>
<linearGradient id="paint0_linear" x1="406.5" y1="19" x2="406.5" y2="481" gradientUnits="userSpaceOnUse">
<stop stop-color="#231E4E"/>
<stop offset="1" stop-color="#0A0430"/>
</linearGradient>
<linearGradient id="paint1_linear" x1="503.029" y1="327.405" x2="477.817" y2="372.078" gradientUnits="userSpaceOnUse">
<stop offset="0.0354" stop-color="#9F19AB"/>
<stop offset="0.2438" stop-color="#AE25B1"/>
<stop offset="0.6455" stop-color="#D744BF"/>
<stop offset="1" stop-color="#FF63CE"/>
</linearGradient>
<linearGradient id="paint2_linear" x1="490.929" y1="340.177" x2="482.521" y2="349.502" gradientUnits="userSpaceOnUse">
<stop offset="0.0354" stop-color="#9F19AB"/>
<stop offset="0.2438" stop-color="#AE25B1"/>
<stop offset="0.6455" stop-color="#D744BF"/>
<stop offset="1" stop-color="#FF63CE"/>
</linearGradient>
<linearGradient id="paint3_linear" x1="548.879" y1="252" x2="626.036" y2="170.774" gradientUnits="userSpaceOnUse">
<stop stop-color="#EF5D4F"/>
<stop offset="1" stop-color="#F29C62"/>
</linearGradient>
<linearGradient id="paint4_linear" x1="599.459" y1="124.874" x2="586.928" y2="102.838" gradientUnits="userSpaceOnUse">
<stop stop-color="#39427C"/>
<stop offset="1" stop-color="#6274A6"/>
</linearGradient>
<linearGradient id="paint5_linear" x1="611.995" y1="74.7522" x2="655.569" y2="153.887" gradientUnits="userSpaceOnUse">
<stop stop-color="#6274A6"/>
<stop offset="1" stop-color="#39427C"/>
</linearGradient>
<linearGradient id="paint6_linear" x1="654.641" y1="51.7258" x2="780.243" y2="241.635" gradientUnits="userSpaceOnUse">
<stop stop-color="white"/>
<stop offset="1" stop-color="#D7D7D7"/>
</linearGradient>
<linearGradient id="paint7_linear" x1="588.569" y1="84.8313" x2="588.627" y2="87.6816" gradientUnits="userSpaceOnUse">
<stop offset="0.0354" stop-color="#9F19AB"/>
<stop offset="0.2438" stop-color="#AE25B1"/>
<stop offset="0.6455" stop-color="#D744BF"/>
<stop offset="1" stop-color="#FF63CE"/>
</linearGradient>
<linearGradient id="paint8_linear" x1="576.759" y1="22.6528" x2="606.2" y2="79.4265" gradientUnits="userSpaceOnUse">
<stop offset="0.0354" stop-color="#9F19AB"/>
<stop offset="0.2438" stop-color="#AE25B1"/>
<stop offset="0.6455" stop-color="#D744BF"/>
<stop offset="1" stop-color="#FF63CE"/>
</linearGradient>
<linearGradient id="paint9_linear" x1="270.87" y1="268.66" x2="273.122" y2="250.251" gradientUnits="userSpaceOnUse">
<stop stop-color="#EF5D4F"/>
<stop offset="1" stop-color="#F29C62"/>
</linearGradient>
<linearGradient id="paint10_linear" x1="360.596" y1="268.66" x2="362.849" y2="250.251" gradientUnits="userSpaceOnUse">
<stop stop-color="#EF5D4F"/>
<stop offset="1" stop-color="#F29C62"/>
</linearGradient>
<linearGradient id="paint11_linear" x1="270.87" y1="389.03" x2="273.122" y2="370.62" gradientUnits="userSpaceOnUse">
<stop stop-color="#EF5D4F"/>
<stop offset="1" stop-color="#F29C62"/>
</linearGradient>
<linearGradient id="paint12_linear" x1="360.596" y1="389.03" x2="362.849" y2="370.62" gradientUnits="userSpaceOnUse">
<stop stop-color="#EF5D4F"/>
<stop offset="1" stop-color="#F29C62"/>
</linearGradient>
<linearGradient id="paint13_linear" x1="270.87" y1="328.846" x2="273.122" y2="310.436" gradientUnits="userSpaceOnUse">
<stop stop-color="#EF5D4F"/>
<stop offset="1" stop-color="#F29C62"/>
</linearGradient>
<linearGradient id="paint14_linear" x1="360.596" y1="328.846" x2="362.849" y2="310.436" gradientUnits="userSpaceOnUse">
<stop stop-color="#EF5D4F"/>
<stop offset="1" stop-color="#F29C62"/>
</linearGradient>
</defs>
</svg>
