<svg width="244" height="229" viewBox="0 0 244 229" fill="none" xmlns="http://www.w3.org/2000/svg">
<path d="M192.785 120.353C192.785 120.353 183.698 109.682 192.279 102.95C192.279 102.95 198.54 99.1845 203.637 99.5101C203.637 99.5101 196.374 111.599 198.709 112.809C201.04 114.023 205.827 98.7545 205.827 98.7545C205.827 98.7545 220.059 97.4201 224.628 99.6346C224.628 99.6346 212.434 109.55 214.995 110.149C217.555 110.747 230.721 101.021 230.721 101.021C230.721 101.021 243.956 103.316 243.225 111.39C242.493 119.465 237.924 121.945 235.918 121.724C233.912 121.503 222.197 116.989 221.936 118.629C221.674 120.269 228.72 125.662 233.663 125.932C233.663 125.932 224.295 136.196 218.101 133.206C211.908 130.216 211.393 125.506 207.531 123.725C203.669 121.945 200.369 121.941 201.961 123.745C203.552 125.554 210.545 127.326 212.744 131.245C214.942 135.163 216.92 137.808 210.501 136.823C204.087 135.839 193.669 131.108 193.227 125.727C192.785 120.353 192.785 120.353 192.785 120.353Z" fill="#7B64F3"/>
<path d="M236.721 111.594C236.721 111.594 200.762 110.095 192.788 120.352C192.788 120.352 191.016 125.605 185.594 130.38L184.746 132.674C184.746 132.674 191 126.123 193.23 125.733C193.23 125.733 189.782 112.981 236.721 111.594Z" fill="#7B64F3"/>
<path d="M185.597 130.38C185.597 130.38 177.86 136.063 177.289 146.264L178.692 146.392C178.692 146.392 181.192 135.854 185.661 131.743C190.126 127.635 185.597 130.38 185.597 130.38Z" fill="#7B64F3"/>
<path d="M144.57 92.2118C144.57 92.2118 159.103 84.1334 152.367 73.0849C152.367 73.0849 146.973 66.2967 141.173 64.5363C141.173 64.5363 144.216 80.9905 141.121 81.3683C138.027 81.7461 139.051 62.792 139.051 62.792C139.051 62.792 123.791 55.3929 117.794 55.9556C117.794 55.9556 127.223 72.04 124.128 71.6461C121.034 71.2482 110.447 54.9669 110.447 54.9669C110.447 54.9669 94.7891 52.0169 92.245 61.2929C89.7009 70.569 93.7482 75.2271 96.0672 75.8139C98.3862 76.4007 113.281 76.256 112.891 78.1892C112.497 80.1223 102.429 83.1849 96.8228 81.4286C96.8228 81.4286 102.964 96.7292 111.091 95.9817C119.217 95.2341 121.749 90.2103 126.781 89.8405C131.813 89.4707 135.482 90.8373 132.962 92.1796C130.442 93.526 121.934 92.5896 117.863 96.0299C113.791 99.4703 110.496 101.588 118.032 103.16C125.571 104.731 139.116 103.807 141.841 98.0113C144.57 92.2118 144.57 92.2118 144.57 92.2118Z" fill="#7B64F3"/>
<path d="M99.3897 64.2104C99.3897 64.2104 139.971 77.4935 144.568 92.2114C144.568 92.2114 144.355 98.7867 148.395 106.347L148.386 109.248C148.386 109.248 144.162 99.3695 141.843 98.007C141.843 98.007 150.975 85.2665 99.3897 64.2104Z" fill="#090327"/>
<path d="M148.394 106.343C148.394 106.343 154.627 115.876 151.022 127.447L149.411 127.009C149.411 127.009 151.014 114.26 147.759 107.834C144.499 101.407 148.394 106.343 148.394 106.343Z" fill="#090327"/>
<path d="M167.686 81.0789C167.686 81.0789 148.595 70.3078 157.566 55.8029C157.566 55.8029 164.736 46.9005 172.392 44.6298C172.392 44.6298 168.245 66.2927 172.32 66.8152C176.399 67.3377 175.202 42.3429 175.202 42.3429C175.202 42.3429 195.377 32.7172 203.279 33.5049C203.279 33.5049 190.715 54.6293 194.799 54.1349C198.882 53.6366 212.973 32.263 212.973 32.263C212.973 32.263 233.639 28.5052 236.915 40.7553C240.19 53.0055 234.817 59.1106 231.754 59.8661C228.692 60.6217 209.058 60.3043 209.561 62.8564C210.063 65.4085 223.31 69.5321 230.713 67.2573C230.713 67.2573 222.49 87.3768 211.783 86.3238C201.077 85.2708 197.781 78.6273 191.153 78.0967C184.526 77.5662 179.675 79.3346 182.983 81.1312C186.29 82.9277 197.516 81.7622 202.857 86.3319C208.198 90.9016 212.523 93.719 202.572 95.7285C192.62 97.738 174.776 96.4037 171.227 88.7433C167.686 81.0789 167.686 81.0789 167.686 81.0789Z" fill="#6274A6"/>
<path d="M227.473 44.5479C227.473 44.5479 173.866 61.7174 167.685 81.0774C167.685 81.0774 167.914 89.7466 162.524 99.6778L162.512 103.504C162.512 103.504 168.163 90.5182 171.229 88.7418C171.229 88.7378 159.301 71.8696 227.473 44.5479Z" fill="#1B124C"/>
<path d="M162.531 99.6794C162.531 99.6794 154.231 112.195 158.893 127.475L161.019 126.913C161.019 126.913 159.01 110.093 163.358 101.649C167.707 93.2046 162.531 99.6794 162.531 99.6794Z" fill="#1B124C"/>
<path d="M14.5653 227.763H210.572C237.898 196.503 230.684 154.274 194.412 118.657C189.85 114.18 181.1 111.001 171.668 108.762C154.281 104.635 134.559 103.682 134.407 103.602C134.35 103.582 123.985 95.1776 117.751 87.6257C98.3794 64.1743 81.9012 66.1878 81.9012 66.1878C62.1554 62.3456 45.3154 61.2162 32.8281 68.1653C32.8281 68.1693 32.8281 68.1693 32.8241 68.1733C21.2571 74.6199 13.4279 88.0075 10.498 112.612C9.94337 117.266 9.56153 122.319 9.3646 127.805C8.6492 147.771 4.71455 165.532 2.37544 180.571C2.37142 180.571 2.37141 180.575 2.37141 180.575C-1.01668 202.363 -3.41212 218.929 14.5653 227.763Z" fill="url(#paint0_linear)"/>
<path d="M42.6102 93.2521C54.5911 99.7791 55.9174 121.277 74.6664 126.828C93.4195 132.382 125.251 131.876 143.309 151.461C160.727 170.358 179.939 122.282 171.667 108.758C154.281 104.63 134.559 103.678 134.406 103.597C134.35 103.577 123.985 95.1732 117.751 87.6213C98.3791 64.1699 81.9008 66.1834 81.9008 66.1834C62.155 62.3412 45.3151 61.2118 32.8278 68.1609C32.8278 68.1649 32.8277 68.1649 32.8237 68.1689C19.0664 82.3885 30.6292 86.7251 42.6102 93.2521Z" fill="#F4904D"/>
<path d="M172.292 186.206C172.292 186.206 168.839 195.357 169.555 198.757C170.27 202.157 169.076 208.745 170.459 211.695C171.842 214.645 174.313 218.937 171.922 220.014C171.018 220.424 160.512 212.221 159.917 209.81C159.322 207.398 158.876 200.288 156.87 196.422C154.869 192.556 156.565 189.449 159.483 188.038C162.401 186.628 166.484 178.867 166.484 178.867L172.292 186.206Z" fill="white"/>
<path d="M116.159 99.4371C116.159 99.4371 173.508 95.8963 180.899 103.504C188.688 111.519 175.999 190.349 175.999 190.349C175.999 190.349 160.446 190.795 159.224 186.676C159.224 186.676 162.142 148.51 159.714 141.907C157.286 135.304 158.826 126.168 158.826 126.168C158.826 126.168 128.397 130.714 118.743 128.399C109.094 126.084 116.159 99.4371 116.159 99.4371Z" fill="#233862"/>
<path d="M102.262 57.3413C102.266 57.3895 110.714 77.067 114.838 79.165C118.961 81.263 133.884 98.4245 137.088 98.127C140.287 97.8296 133.784 101.632 133.784 101.632C133.784 101.632 107.25 88.6862 105.735 87.9346C104.219 87.1831 96.2296 74.0326 95.1364 67.3569C94.0351 60.6812 102.262 57.3413 102.262 57.3413Z" fill="#FFB27D"/>
<path d="M182.883 201.313C182.883 201.313 186.15 210.533 188.891 212.667C191.632 214.806 194.968 220.605 197.93 221.968C200.888 223.33 205.546 225.014 204.417 227.377C203.987 228.274 190.672 228.784 188.662 227.329C186.652 225.87 181.721 220.726 177.698 219.066C173.675 217.406 172.967 213.933 174.286 210.975C175.604 208.017 173.719 199.453 173.719 199.453L182.883 201.313Z" fill="white"/>
<path d="M84.9898 48.6039C86.2157 47.1892 55.1561 50.6778 51.0285 66.5451C51.0285 66.5451 27.1751 47.7438 49.0551 31.9006C56.6311 26.4145 57.3947 20.5587 58.4919 15.2012C59.5891 9.83976 67.1491 -5.55738 80.2634 2.09095C80.2634 2.09095 86.2558 2.11909 90.0458 5.40671C98.6667 12.8742 108.071 60.3638 84.9898 48.6039Z" fill="#163560"/>
<path d="M91.0332 102.219C91.0332 102.219 153.381 108.581 158.859 114.947C164.337 121.313 185.848 204.079 185.848 204.079C185.848 204.079 179.485 207.623 173.702 204.308C173.702 204.308 157.216 176.226 149.921 167.412C142.626 158.595 139.901 131.385 138.7 131.104C137.494 130.827 98.4203 136.542 84.9684 126.209C71.5165 115.876 91.0332 102.219 91.0332 102.219Z" fill="#2A4E96"/>
<path d="M56.3298 45.6262C56.3298 45.6262 71.2045 38.9866 90.062 42.0331C93.9163 42.6561 97.3849 43.9221 100.142 48.4636C104.032 54.8781 105.853 58.3225 105.853 58.3225C105.853 58.3225 105.475 61.2926 100.158 63.6599C101.605 68.9771 98.8276 78.2612 101.384 81.8663C103.94 85.4714 119.783 94.4099 120.563 99.3815C121.998 108.513 93.4783 125.055 84.9739 123.283C60.5057 118.191 43.9068 52.6154 56.3298 45.6262Z" fill="url(#paint1_linear)"/>
<path d="M64.7531 26.8169C64.7531 26.8169 61.8232 21.0455 61.4374 16.3151C61.1601 12.935 64.0177 0.777257 76.2317 3.72325C76.2317 3.72325 79.7926 4.41854 82.9556 7.01889C85.4716 9.08872 88.9802 13.3731 83.6268 23.7142L82.1558 27.239L64.7531 26.8169Z" fill="#163560"/>
<path d="M81.4876 46.2805C82.7214 47.5826 82.2351 51.9112 76.4557 51.5857C72.6616 51.3727 64.5311 46.6784 65.2947 43.435C65.6564 41.8956 68.5743 37.9208 69.2655 28.7773L69.9528 28.9703L81.5318 32.2297C81.5318 32.2297 80.9731 35.9112 80.6878 39.3998C80.4506 42.3297 80.9771 45.7419 81.4876 46.2805Z" fill="#FFB27D"/>
<path d="M81.5312 32.2345C81.5312 32.2345 80.9726 35.9159 80.6872 39.4045C74.12 38.7012 71.1137 32.4193 69.9482 28.979L81.5312 32.2345Z" fill="#F4A269"/>
<path d="M81.7765 37.5883C81.7765 37.5883 66.6245 33.7702 69.1444 24.3695C71.6684 14.9688 71.4112 8.14441 81.1937 10.1861C90.9761 12.2278 91.8845 16.3152 91.8041 19.6591C91.7278 23.003 85.7835 38.3399 81.7765 37.5883Z" fill="#FFB27D"/>
<path d="M88.127 11.8091C88.127 11.8091 83.0348 21.5032 73.4372 22.5441C67.8186 23.155 66.2792 26.8526 66.2792 26.8526C66.2792 26.8526 67.9672 16.2703 70.7927 9.7996C70.7927 9.7996 86.4269 5.72022 88.127 11.8091Z" fill="#163560"/>
<path d="M86.3907 13.091C86.3907 13.091 89.7063 16.4791 90.7312 18.8664C92.2464 22.4032 89.2884 29.8506 88.0666 31.4582C88.0666 31.4582 95.1241 19.4974 92.7689 14.3128C90.269 8.81868 86.3907 13.091 86.3907 13.091Z" fill="#163560"/>
<path d="M132.583 100.378C132.583 100.378 135.601 103.573 135.967 103.746C137.96 104.683 140.484 104.136 141.702 104.445C142.92 104.751 142.711 103.995 141.81 103.376C140.914 102.761 138.7 103.003 139.604 102.777C140.508 102.552 145.387 101.644 147.224 102.138C150.13 102.918 152.425 102.006 152.61 101.708C152.791 101.411 145.97 98.0751 144.021 98.1876C142.072 98.3002 136.469 98.0269 136.469 98.0269L132.583 100.378Z" fill="#FFB27D"/>
<path d="M51.2003 51.5181C51.2003 51.5181 32.395 93.9677 37.6158 100.201C42.8004 106.391 78.9883 98.871 78.9883 98.871L77.875 94.9283C77.875 94.9283 51.2646 93.3005 49.3676 92.762C46.6426 91.9903 62.8517 62.2169 62.8517 62.2169L51.2003 51.5181Z" fill="#FFB27D"/>
<path d="M58.2134 44.9301C57.7633 44.9422 52.1406 46.783 48.1054 54.7689C44.1386 62.6142 42.6957 66.4243 42.6957 66.4243C42.6957 66.4243 53.5414 77.5503 60.5346 72.5345C67.5278 67.5187 64.6641 44.7613 58.2134 44.9301Z" fill="url(#paint2_linear)"/>
<path d="M74.7689 94.7393C74.7689 94.7393 77.7913 92.7779 79.0131 91.7089C80.2349 90.6398 87.3125 89.7637 87.3125 90.4831C87.3085 91.1985 83.189 92.1711 82.7388 92.8865C82.2887 93.6019 79.7727 96.5479 77.6225 96.5438C75.4723 96.5398 74.7689 94.7393 74.7689 94.7393Z" fill="#FFB27D"/>
<path d="M83.0199 101.117L91.1304 99.9636C92.3401 99.7908 93.57 98.778 93.8754 97.7009L98.3528 81.8656C98.6582 80.7885 97.9227 80.0571 96.7089 80.2299L88.5984 81.3833C87.3887 81.5562 86.1588 82.569 85.8533 83.6461L81.376 99.4813C81.0746 100.558 81.8101 101.29 83.0199 101.117Z" fill="#1F4A91"/>
<path d="M84.7113 100.88L92.8219 99.7268C94.0316 99.554 95.2614 98.5412 95.5668 97.4641L100.044 81.6289C100.35 80.5517 99.6141 79.8202 98.4003 79.9931L90.2898 81.1465C89.0801 81.3194 87.8502 82.3322 87.5448 83.4093L83.0675 99.2445C82.7661 100.318 83.5015 101.049 84.7113 100.88Z" fill="#F4F4F4"/>
<path d="M98.6616 82.0145C98.7862 81.5684 98.4808 81.263 97.9784 81.3353C97.476 81.4077 96.9657 81.8256 96.837 82.2758C96.7084 82.7259 97.0179 83.0273 97.5203 82.955C98.0227 82.8786 98.533 82.4606 98.6616 82.0145Z" fill="#1F4A91"/>
<path d="M78.9928 98.8746C78.9928 98.8746 84.4789 98.951 85.8535 98.6255C87.232 98.2999 90.7447 93.9392 89.8083 92.846C89.2175 92.1587 85.9379 93.3926 84.3785 93.3886C82.8151 93.3845 78.7597 91.1258 75.9825 95.7478C75.669 96.2662 78.9928 98.8746 78.9928 98.8746Z" fill="#FFB27D"/>
<path d="M55.4438 109.312C55.4438 109.312 61.3519 114.847 86.0693 115.643C110.787 116.438 143.008 143.752 143.309 151.465C143.611 159.177 93.5408 170.893 92.7651 169.788C91.9894 168.683 61.0183 142.072 61.0183 142.072L55.4438 109.312Z" fill="url(#paint3_linear)"/>
<path d="M2.3708 180.575C29.8694 146.252 86.3577 193.042 100.975 191.724C114.415 190.51 74.7667 143.595 25.5971 136.614C5.72274 133.793 10.4813 113.251 10.4893 112.616C9.93471 117.27 9.55287 122.322 9.35593 127.808C8.64455 147.771 4.70991 165.536 2.3708 180.575Z" fill="#EF5D4F"/>
<defs>
<linearGradient id="paint0_linear" x1="218.9" y1="291.896" x2="-9.65092" y2="73.2097" gradientUnits="userSpaceOnUse">
<stop stop-color="#EF5D4F"/>
<stop offset="1" stop-color="#F29C62"/>
</linearGradient>
<linearGradient id="paint1_linear" x1="29.0072" y1="-49.5551" x2="141.594" y2="28.2019" gradientUnits="userSpaceOnUse">
<stop offset="0.0354" stop-color="#9F19AB"/>
<stop offset="0.2438" stop-color="#AE25B1"/>
<stop offset="0.6455" stop-color="#D744BF"/>
<stop offset="1" stop-color="#FF63CE"/>
</linearGradient>
<linearGradient id="paint2_linear" x1="62.8826" y1="15.1791" x2="79.2243" y2="61.2273" gradientUnits="userSpaceOnUse">
<stop offset="0.0354" stop-color="#9F19AB"/>
<stop offset="0.2438" stop-color="#AE25B1"/>
<stop offset="0.6455" stop-color="#D744BF"/>
<stop offset="1" stop-color="#FF63CE"/>
</linearGradient>
<linearGradient id="paint3_linear" x1="136.155" y1="119.579" x2="79.2655" y2="185.838" gradientUnits="userSpaceOnUse">
<stop stop-color="#EF5D4F"/>
<stop offset="1" stop-color="#F29C62"/>
</linearGradient>
</defs>
</svg>
