<svg width="1402" height="941" viewBox="0 0 1402 941" fill="none" xmlns="http://www.w3.org/2000/svg">
<path d="M155.916 938.701C155.916 938.701 -9.88722 780.286 95.7061 593.994C201.299 407.707 342.983 501.45 336.207 284.586C329.431 67.7271 662.23 49.2032 768.135 112.117C874.04 175.03 883.377 215.55 1102.07 190.561C1320.76 165.572 1422.46 350.155 1350.59 478.23C1266.65 627.822 1519.51 642.319 1327.38 939.074L155.916 938.701Z" fill="url(#paint0_linear)"/>
<path d="M1194.58 248.207V825.791C1194.58 835.898 1187.28 844.094 1178.29 844.094H344.961C335.968 844.094 328.671 835.898 328.671 825.791V248.207C328.671 238.094 335.968 229.904 344.961 229.904H1178.29C1187.29 229.904 1194.58 238.094 1194.58 248.207Z" fill="white"/>
<path d="M1194.58 246.194V289.805H328.677V246.194C328.677 237.195 335.974 229.904 344.967 229.904H1178.29C1187.29 229.904 1194.58 237.189 1194.58 246.194Z" fill="#2A6AF9"/>
<path d="M355.165 259.855C355.165 255.667 358.562 252.27 362.75 252.27C366.938 252.27 370.335 255.667 370.335 259.855C370.335 264.043 366.938 267.44 362.75 267.44C358.556 267.44 355.165 264.043 355.165 259.855Z" fill="#DFEBFD"/>
<path d="M385.044 259.855C385.044 255.667 388.441 252.27 392.629 252.27C396.817 252.27 400.214 255.667 400.214 259.855C400.214 264.043 396.817 267.44 392.629 267.44C388.441 267.44 385.044 264.043 385.044 259.855Z" fill="#DFEBFD"/>
<path d="M415.677 259.855C415.677 255.667 419.074 252.27 423.262 252.27C427.45 252.27 430.847 255.667 430.847 259.855C430.847 264.043 427.45 267.44 423.262 267.44C419.074 267.44 415.677 264.043 415.677 259.855Z" fill="#DFEBFD"/>
<path d="M885.921 664.277H794.596V755.602H885.921V664.277Z" fill="#EBF3FA"/>
<path d="M801.455 745.17L828.428 696.533L848.265 723.59L858.169 712.764L879.156 745.17H801.455Z" fill="url(#paint1_linear)"/>
<path d="M841.285 689.554C841.285 685.702 844.413 682.574 848.265 682.574C852.123 682.574 855.245 685.702 855.245 689.554C855.245 693.412 852.117 696.534 848.265 696.534C844.413 696.534 841.285 693.412 841.285 689.554Z" fill="url(#paint2_linear)"/>
<path d="M1022.3 497.103H794.596V629.085H1022.3V497.103Z" fill="#EBF3FA"/>
<path d="M882.751 529.282V596.9L934.138 563.091L882.751 529.282Z" fill="#2A6AF9"/>
<path d="M1126.48 398.834C1126.48 413.729 1120.53 427.263 1110.93 437.083C1101.35 446.902 1088.13 452.989 1073.58 452.989H457.394C425.945 452.989 400.213 428.617 400.213 398.834C400.213 383.94 406.642 370.406 417.012 360.592C427.371 350.772 441.673 344.685 457.394 344.685H1073.59C1102.68 344.685 1126.48 369.052 1126.48 398.834Z" fill="#EBF3FA"/>
<path d="M1126.48 398.834C1126.48 413.729 1120.53 427.263 1110.93 437.083C1101.35 446.902 1088.13 452.989 1073.58 452.989H962.081V344.685H1073.58C1102.68 344.685 1126.48 369.052 1126.48 398.834Z" fill="url(#paint3_linear)"/>
<path d="M1021.43 418.521C1022.8 418.521 1024.18 418.419 1025.56 418.216C1032.85 417.125 1039.28 413.267 1043.67 407.342C1052.72 395.107 1050.14 377.793 1037.91 368.74C1025.67 359.687 1008.36 362.269 999.307 374.503C990.254 386.738 992.836 404.052 1005.07 413.105C1009.86 416.652 1015.56 418.521 1021.43 418.521ZM1035.2 372.388C1045.42 379.949 1047.58 394.418 1040.01 404.633C1036.34 409.582 1030.98 412.812 1024.88 413.716C1018.8 414.621 1012.72 413.105 1007.77 409.445C997.551 401.884 995.388 387.415 1002.96 377.199C1010.52 366.984 1024.99 364.827 1035.2 372.388Z" fill="white"/>
<path d="M1040.55 407.828L1043.25 404.172L1073.53 426.581L1070.82 430.236L1040.55 407.828Z" fill="white"/>
<path d="M1082.63 436.184C1083.97 434.38 1083.59 431.84 1081.78 430.504L1063.95 417.305C1062.15 415.969 1059.61 416.353 1058.27 418.15C1056.94 419.953 1057.32 422.494 1059.12 423.83L1076.95 437.029C1078.76 438.365 1081.3 437.987 1082.63 436.184Z" fill="white"/>
<path d="M582.468 324.206C581.306 325.536 581.156 327.028 581.731 328.616C581.731 328.622 581.737 328.634 581.743 328.64C582.804 331.581 586.321 334.865 590.407 338.148C590.928 338.567 591.395 338.951 591.797 339.31C591.905 339.406 592.006 339.496 592.108 339.592C592.192 339.664 592.27 339.742 592.348 339.807C596.152 343.318 594.72 344.121 601.563 351.251C609.363 359.369 614.731 359.519 616.259 358.782C617.553 358.153 614.929 353.845 612.017 349.004C611.874 348.77 611.736 348.537 611.592 348.297C611.203 347.656 610.819 347.003 610.436 346.356C607.027 340.532 607.901 337.8 608.716 329.131C609.375 322.091 619.686 289.792 619.686 289.792L604.738 287.21C604.738 287.21 600.226 312.931 595.266 316.891C592.612 319 589.646 319.03 587.094 320.593C586.914 320.701 586.734 320.815 586.56 320.929C585.11 321.882 583.631 322.87 582.468 324.206Z" fill="#FFB27D"/>
<path d="M582.468 324.206C581.306 325.536 581.156 327.028 581.731 328.616C581.731 328.622 581.737 328.634 581.743 328.64C583.044 331.576 586.471 334.847 590.419 338.118C590.934 338.55 591.389 338.939 591.797 339.31C591.905 339.406 592.006 339.496 592.108 339.592C592.192 339.664 592.27 339.742 592.348 339.808C596.152 343.319 594.72 344.121 601.563 351.251C609.363 359.369 614.731 359.519 616.259 358.782C617.553 358.153 614.929 353.845 612.017 349.004C610.501 348.447 603.444 345.577 598.112 338.753C593.588 332.978 590.515 325.614 587.435 321.091C587.094 321.025 586.896 320.989 586.554 320.929C585.11 321.882 583.631 322.87 582.468 324.206Z" fill="#233862"/>
<path d="M703.019 314.908C703.941 319.521 710.52 318.754 717.871 316.963C725.222 315.171 723.473 317.304 733.934 316.148C744.395 314.992 747.564 311.097 747.881 309.54C748.169 308.162 742.999 307.67 737.457 307.029C736.762 306.951 736.061 306.861 735.36 306.778C729.099 305.993 724.521 301.949 718.836 298.629C713.45 295.484 705.421 282.681 705.421 282.681L691.078 283.813C691.078 283.813 698.603 295.25 701.509 300.223C703.222 303.147 703.127 307.011 702.911 310.001C702.803 311.625 702.695 313.284 703.019 314.908Z" fill="#FFB27D"/>
<path d="M717.871 316.963C725.222 315.171 723.473 317.304 733.934 316.148C744.395 314.992 747.564 311.097 747.881 309.54C748.169 308.162 742.999 307.67 737.457 307.029L737.403 307.137C737.403 307.137 731.13 311.583 722.424 311.786C715.331 311.954 707.812 309.923 702.911 310.001C702.797 311.625 702.695 313.284 703.019 314.908C703.941 319.527 710.52 318.76 717.871 316.963Z" fill="#233862"/>
<path d="M648.078 223.169L634.658 259.249L617.133 306.358C617.133 306.358 612.382 306.814 607.835 305.508C603.647 304.297 598.842 301.128 598.842 301.128C598.842 301.128 603.719 250.544 612.802 221.504C615.126 214.051 617.732 208.023 620.608 204.632C634.67 188.019 648.078 223.169 648.078 223.169Z" fill="url(#paint4_linear)"/>
<path d="M634.466 165.857C626.833 163.394 606.918 165.809 585.313 169.709C579.346 170.788 573.331 168.062 570.185 162.873L515.821 158.607C515.821 158.607 497.865 198.384 507.678 223.739C509.122 227.465 512.286 229.79 517.175 229.874C517.175 229.874 550.025 229.934 560.534 229.934C587.572 229.946 617.756 211.367 621.663 210.588C628.055 209.312 630.608 222.097 636.994 235.517C643.381 248.938 697.045 294.975 697.045 294.975C697.045 294.975 705.295 295.059 708.704 293.783C712.371 292.411 713.713 290.625 713.713 290.625C713.713 290.625 654.273 172.256 634.466 165.857Z" fill="url(#paint5_linear)"/>
<path d="M564.464 3.22937C560.425 0.826866 556.495 0.455413 554.081 0.521318C552.403 0.569248 550.726 0.461399 549.066 0.215756C528.318 -2.83381 515.814 27.3023 515.078 36.4091C513.729 53.1308 504.88 55.6711 492.43 66.1378C467.459 87.1253 474.774 111.522 488.416 120.593C496.606 126.033 511.039 120.599 511.039 120.599C511.243 120.742 550.528 98.6585 569.886 88.006C598.914 83.89 576.123 10.1733 564.464 3.22937Z" fill="#7B64F3"/>
<path d="M553.667 78.929C553.751 78.9829 544.141 82.2602 537.719 79.4143C531.673 76.7422 527.096 66.7907 527.186 66.7907C529.936 66.6648 532.955 64.2623 535.286 48.4873L536.454 48.9067L556.142 56.0004C556.142 56.0004 554.716 62.3152 553.787 68.3304C553.014 73.3751 552.595 78.2101 553.667 78.929Z" fill="#FFB27D"/>
<path d="M556.148 55.9944C556.148 55.9944 555.363 59.4035 554.213 65.7722C542.902 63.7352 538.055 55.0178 536.461 48.9067L556.148 55.9944Z" fill="#ED975D"/>
<path d="M559.078 62.2674C559.078 62.2674 532.141 58.6426 534.657 41.903C537.173 25.1634 535.388 13.4205 552.697 15.0261C570 16.6318 572.378 23.5218 572.894 29.3153C573.409 35.1029 566.147 62.7766 559.078 62.2674Z" fill="#FFB27D"/>
<path d="M571.911 20.1311C571.911 20.1311 554.662 34.9834 542.931 36.1817C531.2 37.374 526.761 33.6114 526.761 33.6114C526.761 33.6114 533.675 27.8718 537.839 18.6093C539.067 15.8772 541.661 14.008 544.639 13.7503C553.021 13.0314 568.897 12.7019 571.911 20.1311Z" fill="#7B64F3"/>
<path d="M561.133 18.8009C561.133 18.8009 566.902 24.3788 568.718 28.5188C570.467 32.5089 570.994 42.059 569.593 45.8515C569.593 45.8515 578.585 28.375 573.499 19.8853C568.107 10.8744 561.133 18.8009 561.133 18.8009Z" fill="#7B64F3"/>
<path d="M576.339 118.622C575.506 173.154 576.099 161.759 570.132 166.929C568.694 168.176 564.656 168.918 559.335 169.266C542.614 170.368 513.221 167.606 512.106 164.515C508.254 153.82 510.98 150.501 507.762 134.127C507.427 132.384 507.014 130.502 506.528 128.447C503.85 117.202 501.238 113.379 510.764 95.3156C519.403 78.9594 528.372 65.6827 529.181 66.162C551.948 79.6903 553.793 68.3248 553.793 68.3248C553.793 68.3248 576.746 92.0204 576.339 118.622Z" fill="white"/>
<path d="M634.658 259.248L617.133 306.358C617.133 306.358 612.382 306.813 607.835 305.507C603.647 304.297 598.842 301.128 598.842 301.128C598.842 301.128 603.719 250.543 612.802 221.503L634.658 259.248Z" fill="#39427C"/>
<path d="M553.793 68.3247C553.793 68.3247 577.225 72.3029 579.975 82.3982C582.725 92.4875 591.76 153.73 591.76 153.73C591.76 153.73 585.151 160.183 579.645 154.677C574.145 149.171 562.343 97.3704 562.343 97.3704L553.793 68.3247Z" fill="white"/>
<path d="M559.335 169.265C542.613 170.368 513.22 167.606 512.105 164.514C508.253 153.82 510.979 150.501 507.762 134.126L515.832 111.419C515.832 111.419 514.49 136.709 521.943 143.365C529.39 150.021 552.475 156.216 556.099 161.776C557.855 164.442 559.005 167.114 559.335 169.265Z" fill="#DBDBDB"/>
<path d="M540.182 158.619C540.182 158.619 556.682 154.952 559.342 156.414C562.002 157.882 568.508 163.214 569.317 165.066C570.132 166.923 563.392 163.658 561.199 163.064C559.779 162.681 556.041 163.981 554.189 164.598C546.401 167.192 541.631 165.856 541.631 165.856L540.182 158.619Z" fill="#FFB27D"/>
<path d="M529.169 66.1494C529.169 66.1494 507.02 67.5094 499.345 78.1979C488.548 93.248 467.112 157.403 479.382 165.964C493.198 175.604 542.278 168.504 542.278 168.504C542.278 168.504 543.914 160.872 541.643 157.175C539.373 153.484 502.448 147.505 500.747 145.798C499.045 144.09 522.064 112.57 522.064 107.459C522.064 102.355 529.169 66.1494 529.169 66.1494Z" fill="url(#paint6_linear)"/>
<path d="M560.138 161.01C560.138 161.01 563.595 165.467 564.727 166.001C565.859 166.534 566.59 166.402 566.59 166.402L564.26 162.208L560.138 161.01Z" fill="#FFB27D"/>
<path d="M559.342 156.42L569.389 161.303C569.389 161.303 568.964 162.004 567.724 161.944C566.483 161.884 563.368 160.746 563.368 160.746L559.342 156.42Z" fill="#FFB27D"/>
<path d="M645.154 167.918L540.181 167.882V170.201L644.219 170.237L645.154 167.918Z" fill="url(#paint7_linear)"/>
<path d="M564.727 170.207L644.219 170.236L668.154 110.779L588.782 110.749L564.727 170.207Z" fill="url(#paint8_linear)"/>
<path d="M624.16 140.495C624.759 138.405 623.555 136.709 621.464 136.709C619.373 136.709 617.192 138.405 616.593 140.489C615.994 142.58 617.204 144.276 619.289 144.276C621.38 144.282 623.561 142.586 624.16 140.495Z" fill="white"/>
<path d="M569.85 522.53H426.317C423.328 522.53 420.907 520.11 420.907 517.12V514.843C420.907 511.854 423.328 509.433 426.317 509.433H569.85C572.84 509.433 575.261 511.854 575.261 514.843V517.12C575.261 520.11 572.834 522.53 569.85 522.53Z" fill="url(#paint9_linear)"/>
<path d="M496.2 567.561H425.383C422.914 567.561 420.913 565.56 420.913 563.092C420.913 560.623 422.914 558.622 425.383 558.622H496.2C498.668 558.622 500.669 560.623 500.669 563.092C500.663 565.56 498.662 567.561 496.2 567.561Z" fill="#0B0430"/>
<path d="M550.427 548.82H425.071C422.776 548.82 420.913 546.956 420.913 544.662V544.045C420.913 541.75 422.776 539.887 425.071 539.887H550.427C552.721 539.887 554.585 541.75 554.585 544.045V544.662C554.585 546.956 552.721 548.82 550.427 548.82Z" fill="#0B0430"/>
<path d="M687.573 548.82H570.785C568.568 548.82 566.765 547.022 566.765 544.8V543.901C566.765 541.684 568.562 539.881 570.785 539.881H687.573C689.79 539.881 691.593 541.678 691.593 543.901V544.8C691.587 547.022 689.79 548.82 687.573 548.82Z" fill="#0B0430"/>
<path d="M584.53 567.561H513.713C511.244 567.561 509.243 565.56 509.243 563.092C509.243 560.623 511.244 558.622 513.713 558.622H584.53C586.998 558.622 588.999 560.623 588.999 563.092C588.999 565.56 586.998 567.561 584.53 567.561Z" fill="#0B0430"/>
<path d="M744.628 522.53H601.095C598.105 522.53 595.685 520.11 595.685 517.12V514.843C595.685 511.854 598.105 509.433 601.095 509.433H744.628C747.617 509.433 750.038 511.854 750.038 514.843V517.12C750.032 520.11 747.611 522.53 744.628 522.53Z" fill="url(#paint10_linear)"/>
<path d="M569.85 756.998H426.317C423.328 756.998 420.907 754.578 420.907 751.588V749.312C420.907 746.322 423.328 743.901 426.317 743.901H569.85C572.84 743.901 575.261 746.322 575.261 749.312V751.588C575.261 754.572 572.834 756.998 569.85 756.998Z" fill="url(#paint11_linear)"/>
<path d="M496.2 802.024H425.383C422.914 802.024 420.913 800.023 420.913 797.554C420.913 795.086 422.914 793.085 425.383 793.085H496.2C498.668 793.085 500.669 795.086 500.669 797.554C500.663 800.023 498.662 802.024 496.2 802.024Z" fill="#0B0430"/>
<path d="M550.427 783.283H425.071C422.776 783.283 420.913 781.419 420.913 779.125V778.502C420.913 776.207 422.776 774.344 425.071 774.344H550.427C552.721 774.344 554.585 776.207 554.585 778.502V779.125C554.585 781.419 552.721 783.283 550.427 783.283Z" fill="#0B0430"/>
<path d="M687.573 783.283H570.785C568.568 783.283 566.765 781.485 566.765 779.263V778.364C566.765 776.147 568.562 774.344 570.785 774.344H687.573C689.79 774.344 691.593 776.141 691.593 778.364V779.263C691.587 781.485 689.79 783.283 687.573 783.283Z" fill="#0B0430"/>
<path d="M584.528 802.024H513.711C511.242 802.024 509.241 800.023 509.241 797.554C509.241 795.086 511.242 793.085 513.711 793.085H584.528C586.996 793.085 588.997 795.086 588.997 797.554C588.997 800.023 586.996 802.024 584.528 802.024Z" fill="#0B0430"/>
<path d="M744.628 756.998H601.095C598.105 756.998 595.685 754.578 595.685 751.588V749.312C595.685 746.322 598.105 743.901 601.095 743.901H744.628C747.617 743.901 750.038 746.322 750.038 749.312V751.588C750.032 754.572 747.611 756.998 744.628 756.998Z" fill="url(#paint12_linear)"/>
<path d="M569.85 639.767H426.317C423.328 639.767 420.907 637.346 420.907 634.357V632.08C420.907 629.09 423.328 626.67 426.317 626.67H569.85C572.84 626.67 575.261 629.09 575.261 632.08V634.357C575.261 637.34 572.834 639.767 569.85 639.767Z" fill="url(#paint13_linear)"/>
<path d="M496.2 684.792H425.383C422.914 684.792 420.913 682.79 420.913 680.322C420.913 677.854 422.914 675.853 425.383 675.853H496.2C498.668 675.853 500.669 677.854 500.669 680.322C500.663 682.79 498.662 684.792 496.2 684.792Z" fill="#0B0430"/>
<path d="M550.427 666.051H425.071C422.776 666.051 420.913 664.188 420.913 661.893V661.27C420.913 658.976 422.776 657.112 425.071 657.112H550.427C552.721 657.112 554.585 658.976 554.585 661.27V661.893C554.585 664.188 552.721 666.051 550.427 666.051Z" fill="#0B0430"/>
<path d="M687.573 666.051H570.785C568.568 666.051 566.765 664.254 566.765 662.031V661.133C566.765 658.916 568.562 657.112 570.785 657.112H687.573C689.79 657.112 691.593 658.91 691.593 661.133V662.031C691.587 664.254 689.79 666.051 687.573 666.051Z" fill="#0B0430"/>
<path d="M584.528 684.792H513.711C511.242 684.792 509.241 682.79 509.241 680.322C509.241 677.854 511.242 675.853 513.711 675.853H584.528C586.996 675.853 588.997 677.854 588.997 680.322C588.997 682.79 586.996 684.792 584.528 684.792Z" fill="#0B0430"/>
<path d="M744.628 639.767H601.095C598.105 639.767 595.685 637.346 595.685 634.357V632.08C595.685 629.09 598.105 626.67 601.095 626.67H744.628C747.617 626.67 750.038 629.09 750.038 632.08V634.357C750.032 637.34 747.611 639.767 744.628 639.767Z" fill="url(#paint14_linear)"/>
<path d="M341.521 576.709C341.521 576.709 343.139 573.066 344.188 571.347C345.236 569.621 349.712 564.57 350.478 565.715C351.239 566.859 354.289 574.552 352.671 576.709C351.054 578.866 352.773 582.61 344.721 584.881L341.521 576.709Z" fill="#FFB27D"/>
<path d="M251.993 553.72C251.993 553.72 293.231 588.146 309.312 584.958C321.887 582.466 341.185 575.851 341.185 575.851L345.044 585.725C345.044 585.725 327.735 609.199 309.695 609.355C281.488 609.594 260.651 597.145 260.651 597.145L251.993 553.72Z" fill="url(#paint15_linear)"/>
<path d="M179.667 916.828C179.667 916.828 180.865 936.138 184.598 936.419C185.095 936.455 203.548 936.455 203.548 936.455L227.106 936.317C227.106 936.317 226.95 930.644 220.066 929.439C213.182 928.241 201.655 923.4 197.485 914.299C193.099 904.731 179.667 916.828 179.667 916.828Z" fill="#6274A6"/>
<path d="M178.313 918.17C178.313 918.17 185.472 920.567 191.062 920.567C197.299 920.567 202.967 918.871 202.967 918.871C202.967 918.871 204.315 905.834 211.732 877.106C215.621 862.05 221.174 842.686 229.077 818.631C250.927 752.146 257.571 713.25 258.177 709.566C258.207 709.374 258.225 709.278 258.225 709.278L258.153 709.248L190.978 679.753C190.978 679.753 199.282 771.39 188.69 806.558C187.204 811.477 185.934 817.205 184.843 823.412C178.157 861.606 178.313 918.17 178.313 918.17Z" fill="#39427C"/>
<path d="M211.732 877.1C215.621 862.044 221.175 842.68 229.077 818.625C250.927 752.14 257.572 713.244 258.177 709.56C258.171 709.452 258.165 709.344 258.153 709.236L190.979 679.741C190.979 679.741 199.282 771.378 188.69 806.547C187.204 811.466 211.732 877.1 211.732 877.1Z" fill="#39427C"/>
<path d="M232.139 916.828C232.139 916.828 233.337 936.138 237.069 936.419C237.567 936.455 256.02 936.455 256.02 936.455L279.578 936.317C279.578 936.317 279.422 930.644 272.538 929.439C265.654 928.241 254.127 923.4 249.957 914.299C245.565 904.731 232.139 916.828 232.139 916.828Z" fill="#6274A6"/>
<path d="M270.225 681.904C270.225 681.904 271.1 741.284 260.825 814.192C250.55 887.1 254.03 918.045 254.03 918.045C254.03 918.045 246.973 920.333 244.121 920.567C236.865 921.16 229.424 918.865 229.424 918.865C229.424 918.865 214.722 845.934 218.934 809.441C223.151 772.948 198.797 684.223 198.797 684.223L270.225 681.904Z" fill="url(#paint16_linear)"/>
<path d="M222.589 542.948L235.704 551.546L247.65 548.166C249.831 545.051 250.412 539.048 250.442 533.847C250.472 528.683 249.975 524.309 249.975 524.309L232.283 516.503L225.68 513.591C225.698 513.693 226.196 519.013 226.267 519.786C227.496 533.578 222.589 542.948 222.589 542.948Z" fill="#FFB27D"/>
<path d="M270.524 698.41C254.204 714.167 192.434 711.518 188.624 694.156C184.825 676.793 192.775 546.351 220.653 538.161C226.44 536.459 257.367 546.459 257.367 546.459C257.367 546.459 262.22 559.154 265.402 575.319C266.019 578.464 267.822 611.8 269.17 642.984C269.799 657.567 270.333 671.688 270.602 682.023C270.866 691.705 270.878 698.068 270.524 698.41Z" fill="url(#paint17_linear)"/>
<path d="M227.585 520.037C231.174 526.106 243.767 531.414 250.442 533.847C250.471 528.682 249.974 524.309 249.974 524.309L232.282 516.502C228.37 516.454 225.985 517.323 227.585 520.037Z" fill="#FCA56B"/>
<path d="M256.643 523.237C256.643 523.237 228.136 532.128 222.87 514.292C217.604 496.456 210.378 485.588 228.358 479.159C246.338 472.724 251.898 478.482 255.103 484.012C258.314 489.536 263.922 520.463 256.643 523.237Z" fill="#FFB27D"/>
<path d="M253.988 482.292C253.988 482.292 252.173 503.052 247.877 502.148C243.587 501.249 238.86 499.32 239.489 505.575C240.118 511.829 235.313 522.56 229.124 522.53C215.848 522.476 201.427 488.409 205.057 481.951C215.542 463.318 269.14 459.555 253.988 482.292Z" fill="#163560"/>
<path d="M249.795 538.611C249.429 538.455 228.574 529.102 226.135 529.905C223.697 530.708 220.659 538.161 220.659 538.161L257.38 546.465C257.374 546.465 254.486 540.588 249.795 538.611Z" fill="white"/>
<path d="M379.613 639.63L262.723 749.69C260.435 751.847 257.541 752.536 256.301 751.218L252.352 747.024C251.112 745.706 251.975 742.866 254.264 740.709L371.16 630.655C373.448 628.499 376.342 627.81 377.582 629.128L381.53 633.322C382.765 634.634 381.908 637.474 379.613 639.63Z" fill="#1F4D84"/>
<path d="M314.021 701.393L262.723 749.689C260.435 751.846 257.541 752.535 256.301 751.217L252.352 747.023C251.112 745.705 251.975 742.865 254.264 740.708L305.561 692.412L314.021 701.393Z" fill="#2A6AF9"/>
<path d="M352.748 598.08C357.235 612.866 365.545 626.718 377.612 638.072C414.464 672.743 472.454 670.97 507.125 634.124C541.341 597.75 540.065 540.815 504.609 506.006C504.141 505.539 503.656 505.077 503.171 504.622C466.324 469.95 408.341 471.712 373.675 508.564C350.345 533.35 343.509 567.698 352.748 598.08ZM378.936 513.519C399.114 492.07 427.86 483.521 454.857 488.2C470.59 490.92 485.718 498.127 498.216 509.888C532.163 541.822 533.786 595.228 501.853 629.169C490.092 641.667 475.437 649.773 459.908 653.457C433.241 659.772 404.021 652.996 382.572 632.811C348.626 600.872 346.996 547.472 378.936 513.519Z" fill="#1F4D84"/>
<g opacity="0.5">
<path opacity="0.5" d="M501.854 629.163C490.099 641.661 475.432 649.773 459.903 653.451C433.236 659.76 404.016 652.984 382.567 632.806C348.627 600.872 346.997 547.466 378.931 513.519C399.109 492.07 427.856 483.527 454.852 488.2C470.585 490.92 485.719 498.127 498.211 509.882C532.164 541.816 533.787 595.222 501.854 629.163Z" fill="#B3CFF9"/>
</g>
<path d="M270.615 682.024C206.209 636.125 211.559 574.882 211.559 574.882C235.099 588.159 258.459 617.516 269.177 642.985C269.812 657.568 270.345 671.689 270.615 682.024Z" fill="#EF5D4F"/>
<path d="M334.182 661.126C338.723 660.078 341.772 656.645 342.408 656.046C342.408 656.046 344.343 656.178 342.09 660.312C341.904 660.659 341.485 661.546 341.167 662.175C341.036 662.433 341.215 662.732 341.503 662.75C344.127 662.948 346.757 661.911 351.808 662.966C352.503 663.11 352.707 664.781 352.683 665.488C352.635 666.692 352.725 668.04 351.323 669.886C350.508 670.958 348.237 672.114 343.186 674.146C341.263 674.918 335.751 674.337 330.593 672.564L326.471 670.653L327.747 662.99L328.783 663.205C330.431 663.553 332.468 661.546 334.182 661.126Z" fill="#FFB27D"/>
<path d="M231.551 546.465C231.551 546.465 173.675 557.483 248.578 641.289C260.555 654.691 325.279 672.144 325.279 672.144C325.279 672.144 331.845 666.56 328.532 662.037C328.532 662.037 283.969 629.678 274.167 624.531C269.757 622.219 257.05 572.88 249.86 561C242.665 549.125 231.551 546.465 231.551 546.465Z" fill="url(#paint18_linear)"/>
<path d="M343.091 577.722C343.091 577.722 344.984 574.103 345.356 572.198C345.727 570.293 348.105 564.727 349.088 563.744C349.483 563.349 350.778 563.858 350.927 565.547C350.993 566.284 350.634 567.614 349.999 569.208C348.962 571.796 349.136 575.307 348.777 576.482C347.878 579.393 343.091 577.722 343.091 577.722Z" fill="#FFB27D"/>
<path d="M1116.89 467.26L1084.12 474.881L1067.92 504.364L1055.55 437.178L1116.89 467.26Z" fill="#233862"/>
<path d="M1082.27 468.397L1077.49 472.015L1098.42 499.634L1103.2 496.015L1082.27 468.397Z" fill="#233862"/>
<path d="M1008.85 777.784C1008.85 777.784 1022.4 761.878 1009.61 751.842C1009.61 751.842 1000.27 746.228 992.678 746.714C992.678 746.714 1003.5 764.735 1000.02 766.539C996.548 768.348 989.413 745.587 989.413 745.587C989.413 745.587 968.197 743.598 961.385 746.899C961.385 746.899 979.563 761.68 975.746 762.573C971.93 763.465 952.303 748.966 952.303 748.966C952.303 748.966 932.573 752.387 933.664 764.424C934.754 776.46 941.566 780.157 944.556 779.827C947.545 779.498 965.01 772.77 965.4 775.214C965.789 777.659 955.286 785.699 947.917 786.1C947.917 786.1 961.883 801.402 971.115 796.945C980.348 792.487 981.115 785.465 986.872 782.811C992.63 780.157 997.549 780.151 995.176 782.841C992.804 785.537 982.379 788.179 979.102 794.021C975.824 799.862 972.877 803.805 982.445 802.337C992.007 800.869 1007.54 793.817 1008.2 785.795C1008.85 777.784 1008.85 777.784 1008.85 777.784Z" fill="#7B64F3"/>
<path d="M943.363 764.728C943.363 764.728 996.967 762.493 1008.85 777.783C1008.85 777.783 1011.5 785.613 1019.58 792.731L1020.84 796.152C1020.84 796.152 1011.52 786.386 1008.19 785.805C1008.19 785.805 1013.34 766.795 943.363 764.728Z" fill="#7B64F3"/>
<path d="M1019.57 792.733C1019.57 792.733 1031.11 801.204 1031.96 816.41L1029.87 816.602C1029.87 816.602 1026.14 800.893 1019.48 794.764C1012.82 788.64 1019.57 792.733 1019.57 792.733Z" fill="#7B64F3"/>
<path d="M1080.73 735.833C1080.73 735.833 1059.07 723.791 1069.11 707.321C1069.11 707.321 1077.15 697.202 1085.79 694.577C1085.79 694.577 1081.26 719.106 1085.87 719.669C1090.49 720.232 1088.96 691.977 1088.96 691.977C1088.96 691.977 1111.71 680.947 1120.65 681.786C1120.65 681.786 1106.59 705.763 1111.2 705.176C1115.82 704.583 1131.6 680.312 1131.6 680.312C1131.6 680.312 1154.94 675.915 1158.73 689.742C1162.52 703.57 1156.49 710.514 1153.03 711.389C1149.58 712.264 1127.37 712.048 1127.95 714.93C1128.54 717.812 1143.55 722.377 1151.91 719.759C1151.91 719.759 1142.75 742.568 1130.64 741.453C1118.52 740.339 1114.75 732.85 1107.25 732.298C1099.75 731.747 1094.28 733.784 1098.03 735.785C1101.79 737.792 1114.47 736.396 1120.54 741.525C1126.61 746.654 1131.53 749.811 1120.29 752.154C1109.05 754.496 1088.86 753.118 1084.8 744.479C1080.73 735.833 1080.73 735.833 1080.73 735.833Z" fill="#7B64F3"/>
<path d="M1148.08 694.091C1148.08 694.091 1087.59 713.892 1080.73 735.832C1080.73 735.832 1081.05 745.634 1075.03 756.903L1075.04 761.229C1075.04 761.229 1081.34 746.503 1084.79 744.471C1084.79 744.471 1071.18 725.479 1148.08 694.091Z" fill="#090327"/>
<path d="M1075.03 756.897C1075.03 756.897 1065.74 771.109 1071.11 788.357L1073.51 787.704C1073.51 787.704 1071.12 768.7 1075.97 759.12C1080.83 749.54 1075.03 756.897 1075.03 756.897Z" fill="#090327"/>
<path d="M1046.27 719.237C1046.27 719.237 1074.73 703.181 1061.36 681.558C1061.36 681.558 1050.67 668.287 1039.25 664.902C1039.25 664.902 1045.44 697.195 1039.36 697.974C1033.28 698.753 1035.07 661.493 1035.07 661.493C1035.07 661.493 1004.99 647.144 993.211 648.318C993.211 648.318 1011.94 679.809 1005.85 679.072C999.765 678.329 978.76 646.467 978.76 646.467C978.76 646.467 947.952 640.865 943.07 659.127C938.187 677.388 946.197 686.489 950.762 687.615C955.328 688.742 984.595 688.268 983.846 692.073C983.097 695.877 963.35 702.024 952.314 698.633C952.314 698.633 964.572 728.626 980.533 727.056C996.494 725.486 1001.41 715.583 1011.29 714.792C1021.17 714.001 1028.4 716.637 1023.47 719.315C1018.54 721.993 1001.8 720.256 993.84 727.068C985.877 733.88 979.431 738.08 994.265 741.075C1009.1 744.071 1035.7 742.082 1040.99 730.663C1046.27 719.237 1046.27 719.237 1046.27 719.237Z" fill="#6274A6"/>
<path d="M957.143 664.781C957.143 664.781 1037.05 690.376 1046.27 719.236C1046.27 719.236 1045.93 732.159 1053.96 746.964L1053.98 752.667C1053.98 752.667 1045.56 733.31 1040.98 730.661C1040.98 730.655 1058.77 705.51 957.143 664.781Z" fill="#1B124C"/>
<path d="M1053.96 746.966C1053.96 746.966 1066.33 765.623 1059.38 788.402L1056.21 787.563C1056.21 787.563 1059.21 762.489 1052.72 749.902C1046.24 737.314 1053.96 746.966 1053.96 746.966Z" fill="#1B124C"/>
<path d="M1274.53 937.9H982.337C941.602 891.3 952.357 828.35 1006.43 775.255C1013.23 768.581 1026.27 763.842 1040.33 760.504C1066.25 754.351 1095.65 752.931 1095.88 752.812C1095.96 752.782 1111.41 740.254 1120.71 728.996C1149.58 694.037 1174.15 697.039 1174.15 697.039C1203.58 691.311 1228.69 689.627 1247.3 699.986C1247.3 699.992 1247.3 699.992 1247.31 699.998C1264.55 709.608 1276.22 729.565 1280.59 766.244C1281.42 773.182 1281.98 780.713 1282.28 788.891C1283.34 818.656 1289.21 845.131 1292.7 867.551C1292.7 867.551 1292.7 867.557 1292.7 867.557C1297.75 900.035 1301.32 924.731 1274.53 937.9Z" fill="url(#paint19_linear)"/>
<path d="M1232.72 737.384C1214.86 747.114 1212.88 779.161 1184.93 787.435C1156.98 795.715 1109.53 794.96 1082.61 824.156C1056.64 852.327 1028 780.659 1040.33 760.499C1066.25 754.345 1095.65 752.926 1095.88 752.806C1095.96 752.776 1111.41 740.248 1120.71 728.99C1149.58 694.031 1174.15 697.033 1174.15 697.033C1203.58 691.305 1228.69 689.622 1247.3 699.981C1247.3 699.987 1247.3 699.987 1247.31 699.993C1267.82 721.19 1250.58 727.654 1232.72 737.384Z" fill="#F4904D"/>
<path d="M1039.4 875.949C1039.4 875.949 1044.55 889.591 1043.48 894.66C1042.42 899.728 1044.2 909.548 1042.14 913.946C1040.08 918.343 1036.39 924.742 1039.96 926.348C1041.3 926.959 1056.96 914.73 1057.85 911.136C1058.74 907.541 1059.4 896.942 1062.39 891.179C1065.38 885.415 1062.85 880.784 1058.5 878.681C1054.15 876.578 1048.06 865.009 1048.06 865.009L1039.4 875.949Z" fill="white"/>
<path d="M1123.08 746.604C1123.08 746.604 1037.59 741.325 1026.58 752.667C1014.97 764.613 1033.88 882.126 1033.88 882.126C1033.88 882.126 1057.07 882.792 1058.89 876.65C1058.89 876.65 1054.54 819.757 1058.16 809.914C1061.78 800.07 1059.48 786.452 1059.48 786.452C1059.48 786.452 1104.84 793.228 1119.23 789.777C1133.62 786.326 1123.08 746.604 1123.08 746.604Z" fill="#233862"/>
<path d="M1143.8 683.852C1143.79 683.923 1131.2 713.257 1125.05 716.384C1118.9 719.512 1096.66 745.094 1091.88 744.651C1087.11 744.208 1096.81 749.876 1096.81 749.876C1096.81 749.876 1136.36 730.578 1138.62 729.457C1140.88 728.337 1152.79 708.733 1154.42 698.782C1156.06 688.83 1143.8 683.852 1143.8 683.852Z" fill="#FFB27D"/>
<path d="M1023.62 898.471C1023.62 898.471 1018.75 912.215 1014.66 915.397C1010.57 918.584 1005.6 927.229 1001.19 929.26C996.776 931.291 989.832 933.802 991.516 937.325C992.157 938.661 1012.01 939.422 1015 937.253C1018 935.078 1025.35 927.409 1031.35 924.935C1037.34 922.46 1038.4 917.284 1036.43 912.874C1034.47 908.465 1037.28 895.697 1037.28 895.697L1023.62 898.471Z" fill="white"/>
<path d="M1169.55 670.826C1167.72 668.717 1214.02 673.918 1220.17 697.571C1220.17 697.571 1255.73 669.544 1223.11 645.926C1211.82 637.748 1210.68 629.019 1209.05 621.033C1207.41 613.04 1196.14 590.088 1176.59 601.489C1176.59 601.489 1167.66 601.531 1162.01 606.432C1149.16 617.564 1135.14 688.357 1169.55 670.826Z" fill="#163560"/>
<path d="M1160.54 750.75C1160.54 750.75 1067.59 760.234 1059.43 769.724C1051.26 779.215 1019.2 902.593 1019.2 902.593C1019.2 902.593 1028.68 907.877 1037.3 902.935C1037.3 902.935 1061.88 861.073 1072.75 847.935C1083.63 834.79 1087.69 794.229 1089.48 793.809C1091.28 793.396 1149.52 801.916 1169.58 786.512C1189.63 771.108 1160.54 750.75 1160.54 750.75Z" fill="#2A4E96"/>
<path d="M1212.27 666.387C1212.27 666.387 1190.1 656.49 1161.99 661.031C1156.24 661.96 1151.07 663.847 1146.96 670.617C1141.16 680.179 1138.45 685.314 1138.45 685.314C1138.45 685.314 1139.01 689.741 1146.94 693.27C1144.78 701.197 1148.92 715.036 1145.11 720.411C1141.3 725.785 1117.68 739.109 1116.52 746.521C1114.38 760.133 1156.89 784.793 1169.57 782.151C1206.05 774.56 1230.79 676.806 1212.27 666.387Z" fill="url(#paint20_linear)"/>
<path d="M1199.71 638.348C1199.71 638.348 1204.08 629.745 1204.66 622.693C1205.07 617.654 1200.81 599.531 1182.6 603.922C1182.6 603.922 1177.29 604.959 1172.58 608.835C1168.83 611.921 1163.6 618.307 1171.58 633.723L1173.77 638.977L1199.71 638.348Z" fill="#163560"/>
<path d="M1174.77 667.363C1172.93 669.305 1173.65 675.757 1182.27 675.272C1187.92 674.954 1200.04 667.957 1198.9 663.122C1198.36 660.827 1194.02 654.902 1192.98 641.271L1191.96 641.559L1174.7 646.418C1174.7 646.418 1175.53 651.906 1175.96 657.106C1176.31 661.474 1175.53 666.561 1174.77 667.363Z" fill="#FFB27D"/>
<path d="M1174.7 646.424C1174.7 646.424 1175.53 651.912 1175.96 657.113C1185.75 656.064 1190.23 646.7 1191.97 641.571L1174.7 646.424Z" fill="#F4A269"/>
<path d="M1174.33 654.404C1174.33 654.404 1196.92 648.712 1193.16 634.699C1189.4 620.685 1189.79 610.512 1175.2 613.556C1160.62 616.599 1159.27 622.692 1159.39 627.677C1159.5 632.662 1168.36 655.525 1174.33 654.404Z" fill="#FFB27D"/>
<path d="M1164.87 615.976C1164.87 615.976 1172.46 630.427 1186.77 631.979C1195.14 632.889 1197.44 638.401 1197.44 638.401C1197.44 638.401 1194.92 622.626 1190.71 612.98C1190.71 612.98 1167.4 606.899 1164.87 615.976Z" fill="#163560"/>
<path d="M1167.46 617.887C1167.46 617.887 1162.51 622.937 1160.99 626.496C1158.73 631.768 1163.14 642.87 1164.96 645.267C1164.96 645.267 1154.44 627.437 1157.95 619.708C1161.67 611.518 1167.46 617.887 1167.46 617.887Z" fill="#163560"/>
<path d="M1098.6 748.006C1098.6 748.006 1094.1 752.769 1093.55 753.027C1090.58 754.423 1086.82 753.608 1085 754.069C1083.19 754.524 1083.5 753.398 1084.84 752.475C1086.18 751.559 1089.48 751.918 1088.13 751.583C1086.78 751.247 1079.51 749.893 1076.77 750.63C1072.44 751.792 1069.02 750.432 1068.74 749.989C1068.47 749.546 1078.64 744.573 1081.55 744.741C1084.45 744.908 1092.8 744.501 1092.8 744.501L1098.6 748.006Z" fill="#FFB27D"/>
<path d="M1219.91 675.17C1219.91 675.17 1247.95 738.45 1240.17 747.742C1232.44 756.969 1178.49 745.759 1178.49 745.759L1180.15 739.882C1180.15 739.882 1219.82 737.455 1222.65 736.652C1226.71 735.502 1202.55 691.119 1202.55 691.119L1219.91 675.17Z" fill="#FFB27D"/>
<path d="M1209.46 665.35C1210.13 665.368 1218.51 668.112 1224.53 680.017C1230.44 691.712 1232.59 697.391 1232.59 697.391C1232.59 697.391 1216.43 713.977 1206 706.5C1195.58 699.023 1199.84 665.098 1209.46 665.35Z" fill="url(#paint21_linear)"/>
<path d="M1184.78 739.6C1184.78 739.6 1180.28 736.676 1178.46 735.083C1176.63 733.489 1166.08 732.183 1166.08 733.255C1166.09 734.322 1172.23 735.772 1172.9 736.838C1173.57 737.905 1177.32 742.296 1180.53 742.29C1183.73 742.284 1184.78 739.6 1184.78 739.6Z" fill="#FFB27D"/>
<path d="M1172.48 749.108L1160.39 747.388C1158.58 747.131 1156.75 745.621 1156.29 744.015L1149.62 720.41C1149.16 718.804 1150.26 717.714 1152.07 717.971L1164.16 719.691C1165.96 719.948 1167.8 721.458 1168.25 723.064L1174.93 746.67C1175.38 748.275 1174.28 749.366 1172.48 749.108Z" fill="#1F4A91"/>
<path d="M1169.96 748.755L1157.87 747.035C1156.07 746.777 1154.23 745.268 1153.78 743.662L1147.1 720.056C1146.65 718.451 1147.74 717.36 1149.55 717.618L1161.64 719.337C1163.45 719.595 1165.28 721.105 1165.74 722.71L1172.41 746.316C1172.86 747.916 1171.76 749.006 1169.96 748.755Z" fill="#F4F4F4"/>
<path d="M1149.16 720.631C1148.98 719.966 1149.43 719.511 1150.18 719.618C1150.93 719.726 1151.69 720.349 1151.88 721.02C1152.08 721.691 1151.61 722.141 1150.87 722.033C1150.12 721.919 1149.36 721.296 1149.16 720.631Z" fill="#1F4A91"/>
<path d="M1178.49 745.765C1178.49 745.765 1170.31 745.879 1168.26 745.394C1166.2 744.908 1160.97 738.408 1162.36 736.778C1163.24 735.754 1168.13 737.593 1170.46 737.587C1172.79 737.581 1178.83 734.214 1182.97 741.104C1183.44 741.877 1178.49 745.765 1178.49 745.765Z" fill="#FFB27D"/>
<path d="M1213.59 761.324C1213.59 761.324 1204.78 769.574 1167.93 770.76C1131.09 771.947 1083.06 812.664 1082.61 824.161C1082.16 835.658 1156.8 853.123 1157.95 851.475C1159.11 849.827 1205.28 810.159 1205.28 810.159L1213.59 761.324Z" fill="url(#paint22_linear)"/>
<path d="M1292.7 867.557C1251.71 816.391 1167.5 886.142 1145.71 884.176C1125.68 882.367 1184.78 812.431 1258.08 802.024C1287.71 797.818 1280.61 767.197 1280.6 766.25C1281.43 773.188 1282 780.719 1282.29 788.897C1283.35 818.656 1289.22 845.137 1292.7 867.557Z" fill="#EF5D4F"/>
<path d="M1399.8 940.997L2.22399 940.518C1.28935 940.518 0.522461 939.751 0.522461 938.817V937.942C0.522461 937.007 1.28935 936.24 2.22399 936.24L1399.8 936.72C1400.74 936.72 1401.51 937.486 1401.51 938.421V939.296C1401.51 940.23 1400.74 940.997 1399.8 940.997Z" fill="#2E3552"/>
<path d="M451.653 410.756L453.99 407.982C456.105 409.81 458.22 410.852 460.964 410.852C463.36 410.852 464.876 409.75 464.876 408.012C464.876 406.437 463.995 405.58 459.891 404.603C455.188 403.501 452.54 402.111 452.54 397.977C452.54 394.19 455.697 391.572 460.083 391.572C463.3 391.572 465.859 392.549 468.099 394.346L466.014 397.282C464.025 395.796 462.036 395.011 460.017 395.011C457.746 395.011 456.422 396.18 456.422 397.695C456.422 399.397 457.435 400.158 461.659 401.164C466.326 402.303 468.758 403.974 468.758 407.695C468.758 411.829 465.511 414.291 460.868 414.291C457.495 414.291 454.307 413.123 451.653 410.756Z" fill="#090327"/>
<path d="M471.976 405.646C471.976 400.883 475.349 396.97 480.118 396.97C485.42 396.97 488.098 401.134 488.098 405.933C488.098 406.185 488.068 406.814 488.032 407.006H475.792C476.199 409.72 478.129 411.235 480.585 411.235C482.448 411.235 483.772 410.54 485.096 409.246L487.337 411.235C485.761 413.129 483.581 414.357 480.519 414.357C475.696 414.351 471.976 410.852 471.976 405.646ZM484.312 404.477C484.06 402.015 482.61 400.092 480.082 400.092C477.745 400.092 476.11 401.889 475.762 404.477H484.312Z" fill="#090327"/>
<path d="M502.136 413.974V411.925C500.998 413.285 499.266 414.321 496.738 414.321C493.581 414.321 490.807 412.524 490.807 409.115C490.807 405.424 493.676 403.657 497.559 403.657C499.578 403.657 500.872 403.939 502.166 404.352V404.034C502.166 401.734 500.716 400.47 498.062 400.47C496.199 400.47 494.815 400.877 493.299 401.512L492.257 398.45C494.084 397.63 495.887 397.061 498.601 397.061C503.526 397.061 505.923 399.649 505.923 404.094V413.968H502.136V413.974ZM502.232 407C501.255 406.623 499.895 406.335 498.416 406.335C496.019 406.335 494.599 407.312 494.599 408.983C494.599 410.559 496.019 411.446 497.816 411.446C500.339 411.446 502.232 410.026 502.232 407.941V407Z" fill="#090327"/>
<path d="M510.464 397.319H514.28V401.075C515.323 398.583 517.246 396.881 520.182 397.007V401.045H519.96C516.617 401.045 514.28 403.22 514.28 407.642V413.98H510.464V397.319Z" fill="#090327"/>
<path d="M522.015 405.676C522.015 400.942 525.675 396.97 530.66 396.97C533.818 396.97 535.771 398.139 537.316 399.84L534.95 402.398C533.782 401.17 532.553 400.313 530.63 400.313C527.856 400.313 525.837 402.71 525.837 405.676C525.837 408.641 527.886 411.038 530.822 411.038C532.619 411.038 533.943 410.187 535.142 408.953L537.442 411.223C535.801 413.051 533.877 414.345 530.624 414.345C525.675 414.351 522.015 410.475 522.015 405.676Z" fill="#090327"/>
<path d="M540.947 390.943H544.764V399.906C545.836 398.331 547.382 396.971 549.97 396.971C553.727 396.971 555.902 399.493 555.902 403.375V413.974H552.085V404.508C552.085 401.919 550.791 400.44 548.52 400.44C546.309 400.44 544.764 401.985 544.764 404.574V413.974H540.947V390.943V390.943Z" fill="#090327"/>
<path d="M560.257 409.654H564.451V413.974H560.257V409.654Z" fill="#090327"/>
<path d="M568.74 409.654H572.934V413.974H568.74V409.654Z" fill="#090327"/>
<path d="M577.23 409.654H581.424V413.974H577.23V409.654Z" fill="#090327"/>
<path d="M585.721 409.654H589.915V413.974H585.721V409.654Z" fill="#090327"/>
<path d="M806.428 617.18C806.428 614.921 808.255 613.094 810.514 613.094C812.772 613.094 814.6 614.921 814.6 617.18C814.6 619.439 812.772 621.266 810.514 621.266C808.261 621.266 806.428 619.433 806.428 617.18Z" fill="#D7E5FF"/>
<path d="M996.454 618.277H811.617C811.012 618.277 810.515 617.786 810.515 617.175C810.515 616.57 811.006 616.072 811.617 616.072H996.454C997.059 616.072 997.556 616.564 997.556 617.175C997.55 617.786 997.059 618.277 996.454 618.277Z" fill="#D7E5FF"/>
<defs>
<linearGradient id="paint0_linear" x1="730.93" y1="80.5591" x2="730.93" y2="939.074" gradientUnits="userSpaceOnUse">
<stop stop-color="#231E4E"/>
<stop offset="1" stop-color="#0A0430"/>
</linearGradient>
<linearGradient id="paint1_linear" x1="878.736" y1="642.063" x2="829.625" y2="729.081" gradientUnits="userSpaceOnUse">
<stop offset="0.0354" stop-color="#9F19AB"/>
<stop offset="0.2438" stop-color="#AE25B1"/>
<stop offset="0.6455" stop-color="#D744BF"/>
<stop offset="1" stop-color="#FF63CE"/>
</linearGradient>
<linearGradient id="paint2_linear" x1="855.169" y1="666.94" x2="838.792" y2="685.105" gradientUnits="userSpaceOnUse">
<stop offset="0.0354" stop-color="#9F19AB"/>
<stop offset="0.2438" stop-color="#AE25B1"/>
<stop offset="0.6455" stop-color="#D744BF"/>
<stop offset="1" stop-color="#FF63CE"/>
</linearGradient>
<linearGradient id="paint3_linear" x1="968.047" y1="495.178" x2="1118.34" y2="336.958" gradientUnits="userSpaceOnUse">
<stop stop-color="#EF5D4F"/>
<stop offset="1" stop-color="#F29C62"/>
</linearGradient>
<linearGradient id="paint4_linear" x1="623.366" y1="243.246" x2="647.775" y2="200.32" gradientUnits="userSpaceOnUse">
<stop stop-color="#39427C"/>
<stop offset="1" stop-color="#6274A6"/>
</linearGradient>
<linearGradient id="paint5_linear" x1="598.958" y1="145.611" x2="514.081" y2="299.759" gradientUnits="userSpaceOnUse">
<stop stop-color="#6274A6"/>
<stop offset="1" stop-color="#39427C"/>
</linearGradient>
<linearGradient id="paint6_linear" x1="515.88" y1="100.759" x2="271.217" y2="470.686" gradientUnits="userSpaceOnUse">
<stop stop-color="white"/>
<stop offset="1" stop-color="#D7D7D7"/>
</linearGradient>
<linearGradient id="paint7_linear" x1="644.587" y1="165.245" x2="644.475" y2="170.798" gradientUnits="userSpaceOnUse">
<stop offset="0.0354" stop-color="#9F19AB"/>
<stop offset="0.2438" stop-color="#AE25B1"/>
<stop offset="0.6455" stop-color="#D744BF"/>
<stop offset="1" stop-color="#FF63CE"/>
</linearGradient>
<linearGradient id="paint8_linear" x1="667.596" y1="44.1269" x2="610.245" y2="154.717" gradientUnits="userSpaceOnUse">
<stop offset="0.0354" stop-color="#9F19AB"/>
<stop offset="0.2438" stop-color="#AE25B1"/>
<stop offset="0.6455" stop-color="#D744BF"/>
<stop offset="1" stop-color="#FF63CE"/>
</linearGradient>
<linearGradient id="paint9_linear" x1="426.509" y1="527.632" x2="430.896" y2="491.771" gradientUnits="userSpaceOnUse">
<stop stop-color="#EF5D4F"/>
<stop offset="1" stop-color="#F29C62"/>
</linearGradient>
<linearGradient id="paint10_linear" x1="601.286" y1="527.632" x2="605.673" y2="491.771" gradientUnits="userSpaceOnUse">
<stop stop-color="#EF5D4F"/>
<stop offset="1" stop-color="#F29C62"/>
</linearGradient>
<linearGradient id="paint11_linear" x1="426.509" y1="762.1" x2="430.896" y2="726.239" gradientUnits="userSpaceOnUse">
<stop stop-color="#EF5D4F"/>
<stop offset="1" stop-color="#F29C62"/>
</linearGradient>
<linearGradient id="paint12_linear" x1="601.286" y1="762.1" x2="605.673" y2="726.239" gradientUnits="userSpaceOnUse">
<stop stop-color="#EF5D4F"/>
<stop offset="1" stop-color="#F29C62"/>
</linearGradient>
<linearGradient id="paint13_linear" x1="426.509" y1="644.869" x2="430.896" y2="609.008" gradientUnits="userSpaceOnUse">
<stop stop-color="#EF5D4F"/>
<stop offset="1" stop-color="#F29C62"/>
</linearGradient>
<linearGradient id="paint14_linear" x1="601.286" y1="644.869" x2="605.673" y2="609.008" gradientUnits="userSpaceOnUse">
<stop stop-color="#EF5D4F"/>
<stop offset="1" stop-color="#F29C62"/>
</linearGradient>
<linearGradient id="paint15_linear" x1="255.37" y1="631.031" x2="331.839" y2="542.335" gradientUnits="userSpaceOnUse">
<stop stop-color="#EF5D4F"/>
<stop offset="1" stop-color="#F29C62"/>
</linearGradient>
<linearGradient id="paint16_linear" x1="325.659" y1="697.512" x2="198.565" y2="886.048" gradientUnits="userSpaceOnUse">
<stop stop-color="#6274A6"/>
<stop offset="1" stop-color="#39427C"/>
</linearGradient>
<linearGradient id="paint17_linear" x1="190.749" y1="775.397" x2="334.503" y2="726.932" gradientUnits="userSpaceOnUse">
<stop stop-color="#EF5D4F"/>
<stop offset="1" stop-color="#F29C62"/>
</linearGradient>
<linearGradient id="paint18_linear" x1="210.349" y1="751.379" x2="381.097" y2="575.796" gradientUnits="userSpaceOnUse">
<stop stop-color="#EF5D4F"/>
<stop offset="1" stop-color="#F29C62"/>
</linearGradient>
<linearGradient id="paint19_linear" x1="969.924" y1="1033.5" x2="1310.63" y2="707.506" gradientUnits="userSpaceOnUse">
<stop stop-color="#EF5D4F"/>
<stop offset="1" stop-color="#F29C62"/>
</linearGradient>
<linearGradient id="paint20_linear" x1="1253" y1="524.5" x2="1085.17" y2="640.413" gradientUnits="userSpaceOnUse">
<stop offset="0.0354" stop-color="#9F19AB"/>
<stop offset="0.2438" stop-color="#AE25B1"/>
<stop offset="0.6455" stop-color="#D744BF"/>
<stop offset="1" stop-color="#FF63CE"/>
</linearGradient>
<linearGradient id="paint21_linear" x1="1202.5" y1="621" x2="1178.14" y2="689.644" gradientUnits="userSpaceOnUse">
<stop offset="0.0354" stop-color="#9F19AB"/>
<stop offset="0.2438" stop-color="#AE25B1"/>
<stop offset="0.6455" stop-color="#D744BF"/>
<stop offset="1" stop-color="#FF63CE"/>
</linearGradient>
<linearGradient id="paint22_linear" x1="1093.27" y1="776.629" x2="1178.08" y2="875.401" gradientUnits="userSpaceOnUse">
<stop stop-color="#EF5D4F"/>
<stop offset="1" stop-color="#F29C62"/>
</linearGradient>
</defs>
</svg>
