<svg width="209" height="277" viewBox="0 0 209 277" fill="none" xmlns="http://www.w3.org/2000/svg">
<path d="M112.107 64.811C112.107 64.811 111.155 62.6672 110.538 61.6553C109.921 60.6398 107.288 57.6675 106.836 58.3409C106.388 59.0144 104.594 63.5416 105.546 64.811C106.498 66.0803 105.486 68.284 110.225 69.6203L112.107 64.811Z" fill="#FFB27D"/>
<path d="M164.795 51.2817C164.795 51.2817 140.526 71.5416 131.063 69.6658C123.662 68.1991 112.305 64.3064 112.305 64.3064L110.034 70.1172C110.034 70.1172 120.22 83.9317 130.837 84.0233C147.437 84.1644 159.7 76.8375 159.7 76.8375L164.795 51.2817Z" fill="url(#paint0_linear)"/>
<path d="M207.359 264.973C207.359 264.973 206.654 276.337 204.458 276.503C204.165 276.524 193.305 276.524 193.305 276.524L179.441 276.443C179.441 276.443 179.533 273.104 183.584 272.395C187.635 271.69 194.419 268.841 196.873 263.485C199.454 257.854 207.359 264.973 207.359 264.973Z" fill="#6274A6"/>
<path d="M208.156 265.762C208.156 265.762 203.943 267.173 200.653 267.173C196.982 267.173 193.647 266.175 193.647 266.175C193.647 266.175 192.854 258.502 188.489 241.596C186.2 232.735 182.932 221.339 178.281 207.183C165.422 168.056 161.512 145.166 161.156 142.997C161.138 142.884 161.127 142.828 161.127 142.828L161.17 142.81L200.702 125.452C200.702 125.452 195.815 179.381 202.049 200.078C202.924 202.973 203.671 206.344 204.313 209.996C208.248 232.474 208.156 265.762 208.156 265.762Z" fill="#39427C"/>
<path d="M188.487 241.593C186.199 232.732 182.93 221.336 178.28 207.18C165.421 168.053 161.51 145.163 161.154 142.994C161.158 142.931 161.161 142.867 161.168 142.804L200.701 125.446C200.701 125.446 195.814 179.375 202.048 200.072C202.922 202.966 188.487 241.593 188.487 241.593Z" fill="#39427C"/>
<path d="M176.479 264.973C176.479 264.973 175.773 276.337 173.577 276.503C173.284 276.524 162.424 276.524 162.424 276.524L148.56 276.443C148.56 276.443 148.652 273.104 152.703 272.395C156.755 271.69 163.538 268.841 165.992 263.485C168.577 257.854 176.479 264.973 176.479 264.973Z" fill="#6274A6"/>
<path d="M154.064 126.719C154.064 126.719 153.549 161.664 159.596 204.571C165.643 247.478 163.594 265.689 163.594 265.689C163.594 265.689 167.748 267.036 169.426 267.173C173.696 267.522 178.075 266.172 178.075 266.172C178.075 266.172 186.728 223.251 184.249 201.775C181.767 180.298 196.1 128.083 196.1 128.083L154.064 126.719Z" fill="url(#paint1_linear)"/>
<path d="M182.1 44.942L174.381 50.0017L167.351 48.0131C166.067 46.1796 165.725 42.6466 165.708 39.5861C165.69 36.5468 165.983 33.9729 165.983 33.9729L176.395 29.3786L180.28 27.665C180.27 27.725 179.977 30.856 179.935 31.3108C179.212 39.4275 182.1 44.942 182.1 44.942Z" fill="#FFB27D"/>
<path d="M153.889 136.433C163.493 145.706 199.846 144.148 202.088 133.93C204.323 123.711 199.645 46.9454 183.239 42.1254C179.833 41.1241 161.632 47.0088 161.632 47.0088C161.632 47.0088 158.776 54.4802 156.904 63.9931C156.54 65.8442 155.479 85.4624 154.686 103.815C154.316 112.397 154.002 120.707 153.843 126.79C153.688 132.487 153.681 136.232 153.889 136.433Z" fill="url(#paint2_linear)"/>
<path d="M179.157 31.4588C177.045 35.0306 169.633 38.1545 165.705 39.586C165.688 36.5467 165.98 33.9728 165.98 33.9728L176.392 29.3785C178.695 29.3503 180.098 29.8616 179.157 31.4588Z" fill="#FCA56B"/>
<path d="M162.061 33.3422C162.061 33.3422 178.837 38.5746 181.937 28.078C185.036 17.5814 189.288 11.1854 178.707 7.40209C168.126 3.61526 164.854 7.00366 162.967 10.2581C161.077 13.509 157.777 31.7097 162.061 33.3422Z" fill="#FFB27D"/>
<path d="M163.621 9.24595C163.621 9.24595 164.689 21.4632 167.217 20.9308C169.742 20.4019 172.524 19.2666 172.154 22.9476C171.784 26.6287 174.611 32.9436 178.254 32.9259C186.067 32.8942 194.554 12.8459 192.417 9.04495C186.247 -1.92063 154.704 -4.13488 163.621 9.24595Z" fill="#163560"/>
<path d="M166.088 42.3897C166.303 42.298 178.577 36.7941 180.012 37.2666C181.447 37.739 183.234 42.1253 183.234 42.1253L161.624 47.0122C161.628 47.0122 163.327 43.5533 166.088 42.3897Z" fill="white"/>
<path d="M89.6883 101.84L158.479 166.611C159.826 167.88 161.529 168.286 162.259 167.51L164.582 165.042C165.312 164.266 164.804 162.595 163.457 161.326L94.6634 96.5584C93.3165 95.289 91.6135 94.8835 90.8836 95.6592L88.56 98.1274C87.8337 98.8996 88.3379 100.571 89.6883 101.84Z" fill="#1F4D84"/>
<path d="M128.29 138.188L158.479 166.611C159.826 167.88 161.529 168.285 162.259 167.51L164.582 165.042C165.312 164.266 164.804 162.595 163.457 161.325L133.269 132.903L128.29 138.188Z" fill="#2A6AF9"/>
<path d="M105.498 77.3877C102.857 86.0896 97.9668 94.2415 90.8657 100.923C69.1778 121.328 35.0505 120.284 14.6461 98.5995C-5.49039 77.1937 -4.73939 43.687 16.1269 23.2015C16.402 22.9264 16.6876 22.655 16.9732 22.387C38.6575 1.98255 72.7813 3.01916 93.1822 24.707C106.912 39.2937 110.935 59.5078 105.498 77.3877ZM90.0864 27.623C78.2112 15.0002 61.2939 9.96873 45.4061 12.7225C36.1471 14.3232 27.2441 18.5649 19.8891 25.4862C-0.0887039 44.2793 -1.04421 75.7093 17.7489 95.6836C24.6703 103.039 33.2946 107.809 42.4338 109.978C58.1276 113.694 75.3235 109.706 87.9462 97.8274C107.924 79.0307 108.883 47.6043 90.0864 27.623Z" fill="#1F4D84"/>
<g opacity="0.5">
<path opacity="0.5" d="M17.752 95.6801C24.6699 103.035 33.3013 107.809 42.4404 109.974C58.1343 113.687 75.3301 109.699 87.9529 97.8239C107.927 79.0308 108.886 47.6008 90.0931 27.623C78.2178 15.0003 61.3005 9.97231 45.4128 12.7225C36.1537 14.3233 27.2473 18.5649 19.8958 25.4828C-0.0855677 44.2759 -1.04107 75.7059 17.752 95.6801Z" fill="#B3CFF9"/>
</g>
<path d="M153.835 126.789C191.739 99.7772 188.59 63.7354 188.59 63.7354C174.737 71.5488 160.99 88.8257 154.682 103.814C154.308 112.396 153.994 120.707 153.835 126.789Z" fill="#EF5D4F"/>
<path d="M116.427 114.491C113.754 113.874 111.96 111.854 111.586 111.501C111.586 111.501 110.447 111.579 111.773 114.012C111.882 114.216 112.129 114.738 112.316 115.108C112.393 115.26 112.288 115.436 112.118 115.447C110.574 115.563 109.026 114.953 106.054 115.574C105.645 115.658 105.525 116.642 105.539 117.058C105.567 117.767 105.514 118.56 106.339 119.646C106.819 120.277 108.155 120.958 111.128 122.153C112.259 122.608 115.503 122.266 118.539 121.222L120.965 120.098L120.214 115.588L119.604 115.715C118.634 115.919 117.435 114.738 116.427 114.491Z" fill="#FFB27D"/>
<path d="M176.826 47.0122C176.826 47.0122 210.886 53.4964 166.805 102.817C159.757 110.704 121.667 120.975 121.667 120.975C121.667 120.975 117.802 117.689 119.752 115.027C119.752 115.027 145.978 95.9835 151.746 92.9548C154.341 91.5938 161.82 62.5579 166.051 55.5661C170.286 48.5777 176.826 47.0122 176.826 47.0122Z" fill="url(#paint3_linear)"/>
<path d="M111.184 65.4066C111.184 65.4066 110.069 63.2769 109.851 62.1557C109.632 61.0344 108.232 57.7589 107.654 57.1806C107.421 56.9479 106.66 57.2476 106.572 58.2419C106.533 58.6756 106.744 59.4584 107.118 60.3963C107.728 61.9194 107.626 63.9856 107.838 64.6767C108.366 66.3903 111.184 65.4066 111.184 65.4066Z" fill="#FFB27D"/>
<defs>
<linearGradient id="paint0_linear" x1="162.808" y1="96.7801" x2="117.805" y2="44.5818" gradientUnits="userSpaceOnUse">
<stop stop-color="#EF5D4F"/>
<stop offset="1" stop-color="#F29C62"/>
</linearGradient>
<linearGradient id="paint1_linear" x1="121.44" y1="135.904" x2="196.236" y2="246.859" gradientUnits="userSpaceOnUse">
<stop stop-color="#6274A6"/>
<stop offset="1" stop-color="#39427C"/>
</linearGradient>
<linearGradient id="paint2_linear" x1="200.837" y1="181.741" x2="116.237" y2="153.219" gradientUnits="userSpaceOnUse">
<stop stop-color="#EF5D4F"/>
<stop offset="1" stop-color="#F29C62"/>
</linearGradient>
<linearGradient id="paint3_linear" x1="189.303" y1="167.605" x2="88.8173" y2="64.2738" gradientUnits="userSpaceOnUse">
<stop stop-color="#EF5D4F"/>
<stop offset="1" stop-color="#F29C62"/>
</linearGradient>
</defs>
</svg>
