<svg width="656" height="304" viewBox="0 0 656 304" fill="none" xmlns="http://www.w3.org/2000/svg">
<path d="M331.174 42.783L289.295 51.6211L298.133 93.5006L340.013 84.6625L331.174 42.783Z" fill="#D9E8FE"/>
<path d="M348.929 66.7658L308.791 51.9058L293.931 92.0434L334.069 106.903L348.929 66.7658Z" fill="#F5FBFF"/>
<path d="M253.399 150.256C253.399 150.256 250.9 108.95 243.758 96.0239H281.359V150.174L253.399 150.256Z" fill="white"/>
<path d="M272.201 150.256C272.201 150.256 269.701 108.95 262.56 96.0239H300.161V150.174L272.201 150.256Z" fill="url(#paint0_linear)"/>
<path d="M322.74 73.8027H286.348V191.204H322.74V73.8027Z" fill="#7B64F3"/>
<path d="M410.502 73.8022H322.74V191.203H410.502V73.8022Z" fill="url(#paint1_linear)"/>
<path d="M304.543 94.5382C307.897 94.5382 310.616 91.8192 310.616 88.4651C310.616 85.1111 307.897 82.3921 304.543 82.3921C301.189 82.3921 298.47 85.1111 298.47 88.4651C298.47 91.8192 301.189 94.5382 304.543 94.5382Z" fill="#DDE7FE"/>
<path d="M304.543 92.7592C306.914 92.7592 308.836 90.8368 308.836 88.4655C308.836 86.0942 306.914 84.1719 304.543 84.1719C302.171 84.1719 300.249 86.0942 300.249 88.4655C300.249 90.8368 302.171 92.7592 304.543 92.7592Z" fill="#6C7AFF"/>
<path d="M313.237 103.098H296.12V134.019H313.237V103.098Z" fill="#8FADEF"/>
<path d="M419.031 127.662H349.194V150.171H419.031V127.662Z" fill="white"/>
<path d="M488.865 127.662H419.028V150.171H488.865V127.662Z" fill="#39427C"/>
<path d="M366.621 138.671H349.194V139.16H366.621V138.671Z" fill="#8FADEF"/>
<path d="M419.031 131.746H370.894V132.234H419.031V131.746Z" fill="#8FADEF"/>
<path d="M380.003 144.733H349.194V145.222H380.003V144.733Z" fill="#8FADEF"/>
<path d="M397.372 105.151H327.535V127.661H397.372V105.151Z" fill="white"/>
<path d="M467.206 105.151H397.369V127.661H467.206V105.151Z" fill="#2A6AF9"/>
<path d="M344.962 116.162H327.535V116.651H344.962V116.162Z" fill="#8FADEF"/>
<path d="M397.372 109.236H349.234V109.725H397.372V109.236Z" fill="#8FADEF"/>
<path d="M358.347 122.223H327.535V122.712H358.347V122.223Z" fill="#8FADEF"/>
<path d="M436.458 41.6885H366.621V64.1982H436.458V41.6885Z" fill="white"/>
<path d="M506.292 41.6885H436.455V64.1982H506.292V41.6885Z" fill="#6274A6"/>
<path d="M384.048 52.6987H366.621V53.1876H384.048V52.6987Z" fill="#8FADEF"/>
<path d="M436.458 45.7725H388.32V46.2613H436.458V45.7725Z" fill="#8FADEF"/>
<path d="M397.43 58.4468H366.621V58.9357H397.43V58.4468Z" fill="#8FADEF"/>
<path d="M414.799 19.1787H344.962V41.6884H414.799V19.1787Z" fill="#F5FBFF"/>
<path d="M484.633 19.1787H414.796V41.6884H484.633V19.1787Z" fill="url(#paint2_linear)"/>
<path d="M362.389 30.189H344.962V30.6778H362.389V30.189Z" fill="#8FADEF"/>
<path d="M428.621 30.189H411.194V30.6778H428.621V30.189Z" fill="#8FADEF"/>
<path d="M452.892 23.2627H404.754V23.7516H452.892V23.2627Z" fill="#8FADEF"/>
<path d="M375.77 36.25H344.962V36.7389H375.77V36.25Z" fill="#8FADEF"/>
<path d="M423.632 105.151L493.469 105.151V64.17H423.632V105.151Z" fill="url(#paint3_linear)"/>
<path d="M353.798 105.151L423.635 105.151V64.17H353.798V105.151Z" fill="#F5FBFF"/>
<path d="M493.47 84.3301H476.043V84.989H493.47V84.3301Z" fill="#8FADEF"/>
<path d="M471.77 71.8716H375.771V72.2299H471.77V71.8716Z" fill="#35488B"/>
<path d="M493.47 95.3618H462.661V96.0207H493.47V95.3618Z" fill="#8FADEF"/>
<path d="M436.458 79.2139H403.36V79.5722H436.458V79.2139Z" fill="#35488B"/>
<path d="M523.549 150.256H317.935V302.173H523.549V150.256Z" fill="#EF5D4F"/>
<path d="M413.363 150.257H250.338V302.174H413.363V150.257Z" fill="url(#paint4_linear)"/>
<path d="M343.671 175.055H301.443C298.828 175.055 296.69 172.918 296.69 170.3V169.684C296.69 167.069 298.828 164.932 301.443 164.932H343.671C346.286 164.932 348.427 167.069 348.427 169.684V170.3C348.424 172.918 346.286 175.055 343.671 175.055Z" fill="#191442"/>
<path d="M354.481 205.153L315.985 198.395L309.227 236.891L347.723 243.649L354.481 205.153Z" fill="#7B64F3"/>
<path d="M354.481 205.152L315.985 198.394L314.893 204.615L353.389 211.373L354.481 205.152Z" fill="#6453BF"/>
<path d="M393.957 167.328L356.153 177.26L366.085 215.064L403.889 205.132L393.957 167.328Z" fill="#6796FF"/>
<path d="M393.955 167.333L356.151 177.265L357.756 183.374L395.56 173.442L393.955 167.333Z" fill="#2A6AF9"/>
<path d="M251.31 108.006C250.256 102.149 247.193 96.1636 247.159 96.1059L247.478 95.9419C247.508 96.0026 250.597 102.033 251.662 107.942L251.31 108.006Z" fill="#8FADEF"/>
<path d="M260.532 122.761C258.327 106.986 253.709 96.2002 253.66 96.0939L253.988 95.9512C254.034 96.0575 258.673 106.889 260.884 122.709L260.532 122.761Z" fill="#8FADEF"/>
<path d="M652.002 187.633H497.106V302.076H652.002V187.633Z" fill="url(#paint5_linear)"/>
<path d="M568.996 187.633H446.184V302.076H568.996V187.633Z" fill="url(#paint6_linear)"/>
<path d="M516.494 206.317H484.681C482.71 206.317 481.101 204.704 481.101 202.737V202.272C481.101 200.301 482.713 198.692 484.681 198.692H516.494C518.465 198.692 520.074 200.304 520.074 202.272V202.737C520.077 204.704 518.465 206.317 516.494 206.317Z" fill="#191342"/>
<path d="M568.997 168.159H440.163V193.371H568.997V168.159Z" fill="#6274A6"/>
<path d="M655.865 168.159H568.996V193.371H655.865V168.159Z" fill="#39427C"/>
<path d="M552.647 211.513L513.251 221.863L523.601 261.259L562.997 250.909L552.647 211.513Z" fill="#F29C62"/>
<path d="M552.646 211.515L513.25 221.865L514.923 228.232L554.319 217.883L552.646 211.515Z" fill="#EF5D4F"/>
<path d="M525.878 116.782L558.174 90.7798L606.094 96.6372V116.782H525.878Z" fill="#EF5D4F"/>
<path d="M558.173 116.908V90.6543L477.954 90.6543V116.908L558.173 116.908Z" fill="url(#paint7_linear)"/>
<path d="M548.154 99.6953C550.446 99.6953 552.305 101.554 552.305 103.846C552.305 106.139 550.446 107.997 548.154 107.997C545.861 107.997 544.003 106.139 544.003 103.846C544.006 101.551 545.861 99.6953 548.154 99.6953Z" fill="#DDE7FE"/>
<path d="M548.154 101.522C549.435 101.522 550.474 102.561 550.474 103.842C550.474 105.124 549.435 106.162 548.154 106.162C546.873 106.162 545.834 105.124 545.834 103.842C545.834 102.561 546.873 101.522 548.154 101.522Z" fill="#0B0755"/>
<path d="M538.156 109.785V98.0884H513.33V109.785H538.156Z" fill="#BDD8FF"/>
<path d="M562.275 142.534H482.775V168.159H562.275V142.534Z" fill="white"/>
<path d="M641.77 142.534H562.271V168.159H641.77V142.534Z" fill="#7B64F3"/>
<path d="M502.612 155.069H482.774V155.625H502.612V155.069Z" fill="#35488B"/>
<path d="M562.271 147.183H507.474V147.739H562.271V147.183Z" fill="#35488B"/>
<path d="M517.846 161.968H482.774V162.523H517.846V161.968Z" fill="#35488B"/>
<path d="M537.617 116.909H458.118V142.534H537.617V116.909Z" fill="white"/>
<path d="M617.115 116.909H537.616V142.534H617.115V116.909Z" fill="#2A6AF9"/>
<path d="M477.955 129.443H458.117V129.999H477.955V129.443Z" fill="#8FADEF"/>
<path d="M537.616 121.558H482.819V122.113H537.616V121.558Z" fill="#8FADEF"/>
<path d="M493.189 136.342H458.117V136.898H493.189V136.342Z" fill="#8FADEF"/>
<path d="M227.054 163.137C204.529 155.907 60.832 217.74 60.832 217.74C60.832 217.74 37.4356 234.352 59.7753 269.13C78.3254 298.007 217.878 209.79 220.407 220.87C226.447 247.327 277.922 298.086 277.922 298.086C286.518 300.907 305.648 289.426 305.648 289.426C285.553 258.887 245.045 168.912 227.054 163.137Z" fill="url(#paint8_linear)"/>
<path d="M153.819 65.7224C153.819 65.7224 150.664 60.7334 150.154 55.6806C149.644 50.6279 150.439 36.4018 146.877 33.0828C143.315 29.7639 132.035 21.5501 127.966 23.3083C123.897 25.0695 137.248 33.2802 137.649 37.4403C138.053 41.6003 137.798 42.0588 136.243 42.3351C134.689 42.6114 129.554 36.4959 129.53 38.4393C129.505 40.3826 134.528 51.0864 137.027 53.2332C139.526 55.377 143.24 71.8653 143.24 71.8653L153.819 65.7224Z" fill="#FFB27D"/>
<path d="M153.82 58.6777C153.82 58.6777 140.508 58.6777 138.258 69.4118C138.258 69.4118 138.944 105.829 143.727 138.435C115.029 111.322 125.653 111.735 102.324 94.0744C92.8439 86.8991 84.3021 111.583 84.539 129.049C84.7758 146.515 145.67 186.427 161.348 181.523C178.349 176.203 181.832 138.119 153.82 58.6777Z" fill="url(#paint9_linear)"/>
<path d="M398.997 300.852C399.07 300.801 399.483 300.245 399.571 300.169L426.575 254.806C427.453 253.425 426.669 251.612 425.069 251.269C421.765 250.558 417.344 251.33 414.399 255.156C408.994 262.176 397.321 273.098 385.868 270.757C385.503 270.681 385.133 270.59 384.762 270.487C372.968 267.168 377.432 291.767 377.432 291.767C377.432 291.767 377.821 292.046 378.498 292.505C382.142 294.986 395.603 303.233 398.997 300.852Z" fill="#2C3A64"/>
<path d="M35.1941 231.899C35.1941 231.899 160.338 226.367 208.719 238.907C208.719 238.907 256.811 272.737 216.672 283.969C201.052 288.342 147.652 301.138 118.741 301.138C71.2832 301.138 25.8629 301.442 25.8629 301.442C18.5479 298.223 17.4123 276.588 16.228 270.764C8.00816 230.256 35.1941 231.899 35.1941 231.899Z" fill="#39427C"/>
<path d="M205.752 238.182C205.752 238.182 336.921 263.075 387.852 271.028C387.852 271.028 382.314 292.42 374.036 297.163C374.036 297.163 343.738 299.146 313.443 301.135C276.039 303.591 239.142 299.006 216.708 289.997C166.056 269.661 205.752 238.182 205.752 238.182Z" fill="#39427C"/>
<path d="M107.358 120.374C84.2773 119.345 54.1611 83.8234 54.1611 83.8234C54.1611 83.8234 71.2142 78.6583 82.5617 59.2762C84.7632 55.5139 86.7491 51.2172 88.3584 46.3193L96.0256 59.0424L107.328 77.7989C107.328 77.7989 106.304 80.5318 104.009 85.3447V85.3508C103.243 86.954 102.342 88.7972 101.282 90.8377C100.01 93.2943 98.5277 96.0423 96.8121 99.0576C103.918 107.183 107.358 120.374 107.358 120.374Z" fill="#FFB27D"/>
<path d="M107.327 77.7925C107.327 77.7925 106.304 80.5254 104.008 85.3382C87.7023 74.2428 86.2539 58.295 86.2539 58.295C86.2539 58.295 87.5201 58.1037 96.0254 59.0359L107.327 77.7925Z" fill="#ED975D"/>
<path d="M113.907 81.8492C113.907 81.8492 79.06 69.7031 86.9579 48.1195C94.8559 26.5359 95.6758 10.4302 118.258 17.2746C140.841 24.1158 142.125 33.9268 141.242 41.7702C140.358 49.6135 123.175 84.4545 113.907 81.8492Z" fill="#FFB27D"/>
<path d="M80.5909 8.79091C80.3328 8.32328 79.6161 7.84049 77.8914 7.38198C77.8914 7.38198 79.4704 6.78681 81.347 7.1269C82.2245 4.73716 84.4229 0.643937 88.8229 0.452637C88.8229 0.452637 86.3238 1.19962 85.4857 3.75941C91.3735 -0.27916 102.505 -1.79439 130.73 6.48012C167.93 17.3873 150.343 39.3899 144.835 41.3029C139.326 43.2159 128.671 32.6094 119.395 31.4464C110.118 30.2834 105.594 43.3131 102.117 44.5065C98.6399 45.6998 100.532 42.7028 96.7452 39.9092C92.9556 37.1156 91.0911 44.0813 91.3493 48.9155C91.6043 53.7496 83.348 57.8975 83.348 57.8975C83.348 57.8975 82.5251 55.0644 80.099 51.0259C75.5654 43.4801 75.7324 15.371 79.5736 10.1786C79.9077 9.72616 80.2447 9.25853 80.5909 8.79091Z" fill="url(#paint10_linear)"/>
<path d="M117.163 143.849C114.539 211.454 91.8563 201.021 103.653 221.028C111.172 233.773 95.4637 243.833 78.2193 256.826C77.7122 257.206 77.2081 257.591 76.701 257.977C71.7545 261.739 66.5195 265.419 61.2876 268.766C53.171 273.952 45.0453 278.358 37.958 281.063C30.7281 283.83 24.5791 284.838 20.6226 283.116C20.495 283.064 20.3796 283.019 20.2673 282.961C16.8846 281.294 14.0789 276.773 11.7833 270.648C7.65966 259.732 2.97735 216.556 1.64432 203.653C1.40747 201.337 1.27689 199.994 1.27689 199.994C-6.37817 105.874 71.7575 72.8159 71.7575 72.8159C71.7575 72.8159 78.5958 93.2456 100.683 91.9915C100.72 92.028 118.274 115.203 117.163 143.849Z" fill="#F5F5F5"/>
<path d="M78.2185 256.829C77.7114 257.208 77.2073 257.594 76.7002 257.98C71.7537 261.742 66.5188 265.422 61.2869 268.768C53.1702 273.955 45.0445 278.361 37.9573 281.066C30.117 283.292 23.631 284.276 20.6218 283.119C20.4943 283.067 20.3789 283.022 20.2665 282.964C16.8839 281.297 14.0781 276.776 11.7825 270.651C7.65889 259.735 2.97659 216.559 1.64355 203.656C11.2329 176.061 24.4144 144.869 39.0474 130.898C67.8974 103.348 76.6911 145.307 76.6911 145.307C76.6911 145.307 54.3727 200.359 78.2185 256.829Z" fill="url(#paint11_linear)"/>
<path d="M48.6403 105.568C37.2017 134.005 13.447 188.85 21.8977 215.532C21.8977 215.532 56.104 224.56 57.097 213.974C62.6477 154.802 113.552 90.0723 74.2594 91.3416C63.2702 91.6999 52.7457 95.365 48.6403 105.568Z" fill="#F5F5F5"/>
<path d="M97.8043 95.3774C97.8043 95.3774 125.081 177.755 109.285 257.221L85.8253 265.286L80.0771 248.603C80.0771 248.603 110.491 170.89 94.0178 96.255L97.8043 95.3774Z" fill="#2A6AF9"/>
<path d="M47.5747 282.029C47.5747 282.029 56.4899 294.202 67.4183 292.477C78.3468 290.753 82.3732 293.917 87.262 296.504C92.1508 299.091 93.496 300.454 91.7439 301.138C90.426 301.654 66.5529 301.393 54.8289 301.232C50.9786 301.18 39.9561 290.895 39.9561 290.895L47.5747 282.029Z" fill="#FFB27D"/>
<path d="M20.4769 207.817C18.8159 252.265 34.1412 282.591 38.3012 298.132C38.3012 298.132 43.357 300.528 47.2863 299.234C55.8827 296.404 55.7794 289.584 55.7794 289.584C55.7794 289.584 56.0072 234.289 57.0973 213.975C58.157 194.183 20.8261 198.54 20.4769 207.817Z" fill="url(#paint12_linear)"/>
<path d="M76.6883 67.6201C76.6883 67.6201 69.3612 69.5939 65.7295 75.8521C65.7295 75.8521 68.5869 88.1956 96.4803 95.0976L95.4266 91.8728C95.4266 91.8728 79.491 84.0416 76.6883 67.6201Z" fill="#2A6AF9"/>
<path d="M95.4275 91.8733C95.4275 91.8733 101.115 89.7599 102.314 88.8125C102.314 88.8125 103.741 92.0616 103.158 94.7094C103.158 94.7094 101.315 95.8633 96.4842 95.1011C91.647 94.3359 95.4275 91.8733 95.4275 91.8733Z" fill="#2A6AF9"/>
<path d="M97.8051 91.843C97.8051 91.843 92.2453 91.3693 91.6714 92.0859C91.0975 92.8025 94.9204 99.3705 96.8152 99.0517C98.707 98.7329 99.3386 92.6112 97.8051 91.843Z" fill="#2A6AF9"/>
<path d="M428.041 284.482C428.482 285.542 429.292 291.154 431.02 295.845V295.851C432.062 298.675 433.428 301.159 435.247 302.128C440.093 304.718 448.665 301.211 448.665 301.211C448.665 301.211 462.894 303.658 464.325 303.072C465.755 302.489 468.336 281.069 468.336 281.069C468.336 281.069 457.836 268.878 456.861 268.492C455.886 268.106 447.49 271.954 446.099 271.878C444.709 271.802 436.847 266.026 434.585 267.241C432.32 268.465 427.337 282.785 428.041 284.482Z" fill="white"/>
<path d="M446.096 271.881C446.096 271.881 448.27 277.642 448.941 278.176C449.609 278.71 456.86 268.496 456.86 268.496C455.882 268.113 447.489 271.96 446.096 271.881Z" fill="#F2F7FE"/>
<path d="M434.44 272.84C434.44 272.84 444.096 282.827 443.914 283.701C443.731 284.576 432.511 290.257 432.126 290.014C431.74 289.771 434.856 282.757 434.789 281.536C434.722 280.316 434.44 272.84 434.44 272.84Z" fill="#F2F7FE"/>
<path d="M428.041 284.482C428.482 285.542 429.292 291.154 431.02 295.845V295.851H431.023L430.391 285.275L434.582 267.244C432.32 268.465 427.337 282.785 428.041 284.482Z" fill="#F2F7FE"/>
<path d="M448.665 301.214C448.665 301.214 462.894 303.661 464.324 303.075C465.755 302.492 468.336 281.072 468.336 281.072C468.336 281.072 464.61 291.925 464.513 292.471C464.415 293.015 460.073 291.57 460.073 291.57L448.665 301.214Z" fill="#F2F7FE"/>
<path d="M464.604 280.866L462.697 286.48L459.415 286.298L461.987 284.039L464.604 280.866Z" fill="#F2F7FE"/>
<path d="M508.503 289.365C508.846 290.085 509.474 293.889 510.817 297.081V297.084C511.624 299.006 512.687 300.7 514.096 301.375C517.855 303.181 524.505 300.91 524.505 300.91C524.505 300.91 535.546 302.726 536.654 302.349C537.763 301.97 539.758 287.522 539.758 287.522C539.758 287.522 531.611 279.159 530.852 278.889C530.092 278.616 523.585 281.121 522.504 281.054C521.423 280.987 515.323 276.991 513.571 277.787C511.816 278.585 507.956 288.208 508.503 289.365Z" fill="white"/>
<path d="M522.505 281.054C522.505 281.054 524.193 284.971 524.712 285.342C525.232 285.709 530.852 278.889 530.852 278.889C530.096 278.619 523.586 281.121 522.505 281.054Z" fill="#C4D9E8"/>
<path d="M513.462 281.567C513.462 281.567 520.956 288.43 520.816 289.019C520.677 289.608 511.974 293.319 511.673 293.152C511.373 292.985 513.787 288.278 513.738 287.452C513.684 286.626 513.462 281.567 513.462 281.567Z" fill="#DFEBF5"/>
<path d="M508.503 289.366C508.846 290.086 509.474 293.891 510.817 297.082V297.085H510.82L510.325 289.928L513.568 277.788C511.816 278.587 507.956 288.209 508.503 289.366Z" fill="#C4D9E8"/>
<path d="M524.505 300.911C524.505 300.911 535.546 302.726 536.654 302.35C537.762 301.97 539.757 287.522 539.757 287.522C539.757 287.522 536.873 294.816 536.797 295.184C536.721 295.551 533.353 294.522 533.353 294.522L524.505 300.911Z" fill="#DFEBF5"/>
<path d="M536.864 287.34L535.388 291.114L532.841 290.953L534.833 289.453L536.864 287.34Z" fill="#DFEBF5"/>
<path d="M524.952 78.7123C525.295 79.4319 525.924 83.2367 527.266 86.4281V86.4311C528.074 88.3532 529.136 90.0476 530.545 90.7217C534.304 92.5284 540.954 90.2571 540.954 90.2571C540.954 90.2571 551.995 92.073 553.104 91.6964C554.212 91.3169 556.207 76.8691 556.207 76.8691C556.207 76.8691 548.06 68.5065 547.301 68.2363C546.542 67.963 540.034 70.4681 538.953 70.4013C537.872 70.3345 531.775 66.3385 530.02 67.134C528.265 67.9357 524.405 77.5584 524.952 78.7123Z" fill="white"/>
<path d="M538.953 70.4051C538.953 70.4051 540.641 74.3222 541.161 74.6927C541.68 75.0631 547.301 68.2401 547.301 68.2401C546.541 67.9668 540.034 70.4719 538.953 70.4051Z" fill="#C4D9E8"/>
<path d="M529.911 70.918C529.911 70.918 537.405 77.7805 537.265 78.3696C537.125 78.9587 528.423 82.6693 528.122 82.5023C527.825 82.3353 530.235 77.6287 530.187 76.8027C530.132 75.9768 529.911 70.918 529.911 70.918Z" fill="#DFEBF5"/>
<path d="M524.952 78.7135C525.295 79.4332 525.924 83.2379 527.266 86.4293V86.4323H527.269L526.774 79.2753L530.017 67.1353C528.265 67.9369 524.405 77.5596 524.952 78.7135Z" fill="#C4D9E8"/>
<path d="M540.954 90.2611C540.954 90.2611 551.995 92.0769 553.103 91.7004C554.212 91.3208 556.207 76.873 556.207 76.873C556.207 76.873 553.322 84.1668 553.246 84.5342C553.17 84.9016 549.802 83.8722 549.802 83.8722L540.954 90.2611Z" fill="#DFEBF5"/>
<path d="M553.313 76.6904L551.835 80.4618L549.29 80.3008L551.282 78.8038L553.313 76.6904Z" fill="#DFEBF5"/>
<path d="M390.758 187.939C391.611 191.982 391.438 196.174 390.254 200.133C389.709 202.025 388.698 203.751 387.315 205.153C385.933 206.552 384.155 207.495 382.221 207.854C381.159 208.133 380.044 208.132 378.983 207.852C377.922 207.572 376.952 207.023 376.166 206.256C374.41 204.386 373.266 202.025 372.886 199.487C371.858 194.35 372.141 189.94 373.737 186.257C375.332 182.574 377.89 180.38 381.41 179.676C382.485 179.385 383.618 179.382 384.694 179.667C385.771 179.952 386.754 180.515 387.545 181.299C389.249 183.146 390.367 185.457 390.758 187.939ZM382.056 205.263C383.188 205.036 384.027 204.103 384.573 202.463C385.151 200.606 385.407 198.663 385.333 196.719C385.329 193.529 385.072 190.344 384.562 187.194C384.373 185.759 383.916 184.373 383.215 183.108C382.992 182.793 382.678 182.555 382.315 182.426C381.952 182.297 381.558 182.283 381.187 182.386C380.313 182.561 379.633 183.32 379.117 184.651C378.57 186.227 378.288 187.884 378.281 189.552C378.158 193.392 378.478 197.234 379.235 201C379.394 202.266 379.813 203.484 380.464 204.581C380.631 204.841 380.871 205.045 381.155 205.166C381.439 205.288 381.752 205.322 382.056 205.263V205.263Z" fill="white"/>
<path d="M336.957 231.585C336.423 231.928 335.797 232.101 335.162 232.082C334.545 232.087 333.928 232.039 333.319 231.938C333.103 233.489 332.987 235.052 332.972 236.618C332.05 237.097 330.189 237.33 327.401 237.33H327.048C327.212 235.166 327.548 233.019 328.053 230.909C326.734 230.685 325.4 230.565 324.062 230.55C322.996 230.532 321.935 230.688 320.92 231.011L319.538 231.508H319.502C319.263 231.508 318.963 231.244 318.598 230.724C318.267 230.304 318.06 229.801 318 229.27C318 229.108 318.215 228.809 318.64 228.384C322.358 223.114 326.122 217.852 329.932 212.598C332.014 212.212 334.127 212.012 336.245 212C336.588 212.61 336.748 213.306 336.706 214.005C336.676 215.142 336.54 216.274 336.299 217.386C336.03 218.756 335.641 220.509 335.144 222.639C334.647 224.77 334.27 226.517 334.013 227.887C334.911 227.935 335.617 227.959 336.119 227.959C336.336 227.975 336.553 227.935 336.749 227.841C336.946 227.748 337.114 227.605 337.238 227.427L337.807 226.469L339.081 226.894C338.726 229.331 338.018 230.895 336.957 231.585ZM328.831 227.253C330.347 220.611 331.115 216.592 331.135 215.195C328.965 217.705 326.294 221.582 323.122 226.828C324.71 226.852 326.613 226.994 328.831 227.253Z" fill="white"/>
<path d="M548.752 242.466C548.359 242.965 547.823 243.332 547.217 243.521C546.635 243.727 546.036 243.882 545.427 243.985C545.728 245.522 546.128 247.038 546.624 248.523C545.908 249.275 544.225 250.102 541.588 251.011L541.255 251.126C540.705 249.027 540.324 246.887 540.114 244.728C538.793 244.945 537.493 245.266 536.223 245.688C535.21 246.018 534.257 246.511 533.403 247.147L532.258 248.067L532.224 248.079C531.998 248.157 531.629 248.005 531.114 247.632C530.664 247.344 530.304 246.935 530.075 246.452C530.022 246.299 530.128 245.946 530.392 245.406C532.19 239.213 534.035 233.012 535.925 226.803C537.769 225.76 539.701 224.883 541.699 224.181C542.222 224.646 542.6 225.252 542.788 225.926C543.13 227.011 543.37 228.126 543.504 229.256C543.696 230.639 543.9 232.423 544.124 234.599C544.348 236.775 544.561 238.55 544.764 239.929C545.628 239.682 546.304 239.475 546.779 239.311C546.989 239.256 547.181 239.146 547.336 238.994C547.491 238.842 547.604 238.652 547.663 238.443L547.889 237.352L549.232 237.339C549.691 239.759 549.531 241.468 548.752 242.466ZM539.658 241.017C538.928 234.244 538.344 230.194 537.908 228.867C536.674 231.946 535.412 236.482 534.122 242.475C535.631 241.981 537.476 241.495 539.658 241.017Z" fill="white"/>
<defs>
<linearGradient id="paint0_linear" x1="299.958" y1="35.2873" x2="238.136" y2="82.8272" gradientUnits="userSpaceOnUse">
<stop offset="0.0354" stop-color="#9F19AB"/>
<stop offset="0.2438" stop-color="#AE25B1"/>
<stop offset="0.6455" stop-color="#D744BF"/>
<stop offset="1" stop-color="#FF63CE"/>
</linearGradient>
<linearGradient id="paint1_linear" x1="366.621" y1="73.8022" x2="458.819" y2="191.321" gradientUnits="userSpaceOnUse">
<stop stop-color="#7B64F3"/>
<stop offset="1" stop-color="#2C3A64" stop-opacity="0"/>
</linearGradient>
<linearGradient id="paint2_linear" x1="417.33" y1="50.4568" x2="441.239" y2="-0.988175" gradientUnits="userSpaceOnUse">
<stop stop-color="#EF5D4F"/>
<stop offset="1" stop-color="#F29C62"/>
</linearGradient>
<linearGradient id="paint3_linear" x1="424.009" y1="151.047" x2="463.971" y2="75.5159" gradientUnits="userSpaceOnUse">
<stop offset="0.0354" stop-color="#9F19AB"/>
<stop offset="0.2438" stop-color="#AE25B1"/>
<stop offset="0.6455" stop-color="#D744BF"/>
<stop offset="1" stop-color="#FF63CE"/>
</linearGradient>
<linearGradient id="paint4_linear" x1="256.254" y1="361.351" x2="392.031" y2="161.124" gradientUnits="userSpaceOnUse">
<stop offset="0.261469" stop-color="#EF5D4F"/>
<stop offset="1" stop-color="#F29C62"/>
</linearGradient>
<linearGradient id="paint5_linear" x1="631.718" y1="168.844" x2="636.329" y2="287.568" gradientUnits="userSpaceOnUse">
<stop offset="0.0607812" stop-color="#57679B"/>
<stop offset="0.552282" stop-color="#39427C"/>
</linearGradient>
<linearGradient id="paint6_linear" x1="507.807" y1="-15.5817" x2="507.59" y2="302.076" gradientUnits="userSpaceOnUse">
<stop stop-color="#39427C"/>
<stop offset="1" stop-color="#6274A6"/>
</linearGradient>
<linearGradient id="paint7_linear" x1="446.706" y1="91.6071" x2="457.629" y2="139.73" gradientUnits="userSpaceOnUse">
<stop stop-color="#EF5D4F"/>
<stop offset="1" stop-color="#F29C62"/>
</linearGradient>
<linearGradient id="paint8_linear" x1="66.9141" y1="329.064" x2="207.539" y2="202.272" gradientUnits="userSpaceOnUse">
<stop stop-color="#1B124C"/>
<stop offset="1" stop-color="#39427C"/>
</linearGradient>
<linearGradient id="paint9_linear" x1="174.689" y1="58.7655" x2="84.7812" y2="167.692" gradientUnits="userSpaceOnUse">
<stop stop-color="#F5F5F5"/>
<stop offset="1" stop-color="#D7D7D7"/>
</linearGradient>
<linearGradient id="paint10_linear" x1="79.4934" y1="80.2743" x2="159.113" y2="6.13205" gradientUnits="userSpaceOnUse">
<stop stop-color="#EF5D4F"/>
<stop offset="1" stop-color="#F29C62"/>
</linearGradient>
<linearGradient id="paint11_linear" x1="78.3807" y1="121.641" x2="-38.5564" y2="213.347" gradientUnits="userSpaceOnUse">
<stop stop-color="#F5F5F5"/>
<stop offset="1" stop-color="#D7D7D7"/>
</linearGradient>
<linearGradient id="paint12_linear" x1="38.6743" y1="225.325" x2="-112.09" y2="259.291" gradientUnits="userSpaceOnUse">
<stop stop-color="#F5F5F5"/>
<stop offset="1" stop-color="#D7D7D7"/>
</linearGradient>
</defs>
</svg>
