<svg width="1680" height="1042" viewBox="0 0 1680 1042" fill="none" xmlns="http://www.w3.org/2000/svg">
<path fill-rule="evenodd" clip-rule="evenodd" d="M0 797.177V1037C0 1037 21.133 1019.18 390.5 1006.18C461.649 1003.67 652.582 1010.88 715.5 1006.18C877.34 994.088 920.24 969.454 1069 1006.18C1139.35 1023.54 1286.46 999.299 1327.5 1016.18C1406.97 1048.86 1479 1037.18 1680 1041.18V985.177C1482.16 987.815 1418.78 961.75 1339.31 929.065C1298.27 912.187 1252.94 893.544 1182.59 876.177C1033.83 839.454 893.432 849.942 731.592 862.031C668.674 866.731 602.516 871.673 531.367 874.177C162 887.177 0 797.177 0 797.177Z" fill="white"/>
<path fill-rule="evenodd" clip-rule="evenodd" d="M0 0H1680V1H0V0ZM0 776V800C0 800 162 890 531.367 877C602.516 874.496 668.674 869.554 731.592 864.854C893.432 852.765 1033.83 842.277 1182.59 879C1252.94 896.367 1298.27 915.01 1339.31 931.888C1418.78 964.573 1482.16 990.638 1680 988V964C1482.16 966.638 1418.78 940.573 1339.31 907.888C1298.27 891.01 1252.94 872.367 1182.59 855C1033.83 818.277 893.432 828.765 731.592 840.854C668.674 845.554 602.516 850.496 531.367 853C162 866 0 776 0 776Z" fill="#2A6AF9"/>
</svg>
