<svg width="1684" height="1041" viewBox="0 0 1684 1041" fill="none" xmlns="http://www.w3.org/2000/svg">
<path fill-rule="evenodd" clip-rule="evenodd" d="M0.217109 868.674L0.216797 1028.67C0.216797 1028.67 95.4567 1035.04 400.217 1038.17C560.217 1039.82 661.047 1026.26 723.358 1016.37C886 1030 910.5 1030 1070 1030C1141.55 1041.48 1237.5 1030 1315 1030C1405.5 1030 1488 1030 1682.8 1039.17L1682.8 914.483C1485.86 933.511 1420.54 913.796 1338.63 887.811C1296.33 874.393 1249.61 859.571 1178.07 848.096C1026.77 823.83 887.728 845.919 727.447 871.382C665.135 881.281 599.614 891.69 528.918 900.082C161.899 943.655 0.217109 868.674 0.217109 868.674Z" fill="white"/>
<path d="M3.30078 871.328V848.094C38.2834 861.756 207.395 918.346 532.012 882.792C602.782 875.041 668.394 865.227 730.793 855.894L730.8 855.893C891.303 831.887 1030.54 811.061 1181.6 836.699C1253.04 848.823 1299.62 864.067 1341.79 877.868L1341.8 877.87C1423.14 904.489 1488.07 925.737 1683.3 908.881V932.967C1489.45 949.543 1424.66 928.342 1343.57 901.805L1343.57 901.802C1301.4 888.001 1254.81 872.758 1183.38 860.633C1032.31 834.996 893.075 855.821 732.572 879.828L732.566 879.829C670.166 889.162 604.554 898.975 533.784 906.726C203.276 942.925 33.9687 883.606 3.30078 871.328Z" fill="url(#paint0_linear)"/>
<defs>
<linearGradient id="paint0_linear" x1="843.301" y1="824.939" x2="843.301" y2="938.825" gradientUnits="userSpaceOnUse">
<stop stop-color="#231E4E"/>
<stop offset="1" stop-color="#0A0430"/>
</linearGradient>
</defs>
</svg>
